<svg width="48" height="48" viewBox="0 0 48 48" fill="none" xmlns="http://www.w3.org/2000/svg">
<rect width="48" height="48" rx="8" fill="#E8EDF2"/>
<g clip-path="url(#clip0_3001_8998)">
<path fill-rule="evenodd" clip-rule="evenodd" d="M20.7478 18.5625L14.625 24L20.7441 29.4375C20.945 29.6154 21.0358 29.8869 20.9823 30.1499C20.9288 30.4128 20.739 30.6273 20.4845 30.7124C20.23 30.7975 19.9494 30.7404 19.7484 30.5625L12.9984 24.5625C12.837 24.4201 12.7445 24.2153 12.7445 24C12.7445 23.7847 12.837 23.5799 12.9984 23.4375L19.7484 17.4375C19.9494 17.259 20.2303 17.2012 20.4854 17.286C20.7405 17.3708 20.931 17.5852 20.9851 17.8485C21.0392 18.1118 20.9488 18.384 20.7478 18.5625ZM34.9978 23.4375L28.2478 17.4375C27.9372 17.1626 27.4624 17.1915 27.1875 17.5022C26.9126 17.8128 26.9415 18.2876 27.2522 18.5625L33.375 24L27.2559 29.4375C27.055 29.6154 26.9642 29.8869 27.0177 30.1499C27.0712 30.4128 27.261 30.6273 27.5155 30.7124C27.77 30.7975 28.0506 30.7404 28.2516 30.5625L35.0016 24.5625C35.163 24.4201 35.2555 24.2153 35.2555 24C35.2555 23.7847 35.163 23.5799 35.0016 23.4375H34.9978Z" fill="#0D141C"/>
</g>
<defs>
<clipPath id="clip0_3001_8998">
<rect width="24" height="24" fill="white" transform="translate(12 12)"/>
</clipPath>
</defs>
</svg>
