<svg width="48" height="48" viewBox="0 0 48 48" fill="none" xmlns="http://www.w3.org/2000/svg">
<rect width="48" height="48" rx="8" fill="#E8EDF2"/>
<g clip-path="url(#clip0_3001_9001)">
<path fill-rule="evenodd" clip-rule="evenodd" d="M24 19.5C21.5147 19.5 19.5 21.5147 19.5 24C19.5 26.4853 21.5147 28.5 24 28.5C26.4853 28.5 28.5 26.4853 28.5 24C28.4974 21.5158 26.4842 19.5026 24 19.5ZM24 27C22.3431 27 21 25.6569 21 24C21 22.3431 22.3431 21 24 21C25.6569 21 27 22.3431 27 24C27 25.6569 25.6569 27 24 27ZM32.25 24.2025C32.2537 24.0675 32.2537 23.9325 32.25 23.7975L33.6488 22.05C33.7975 21.8639 33.849 21.6183 33.7875 21.3881C33.5582 20.5262 33.2152 19.6986 32.7675 18.9272C32.6486 18.7225 32.4401 18.5859 32.205 18.5588L29.9813 18.3113C29.8888 18.2138 29.795 18.12 29.7 18.03L29.4375 15.8006C29.4101 15.5653 29.2732 15.3568 29.0681 15.2381C28.2964 14.7913 27.4689 14.4486 26.6072 14.2191C26.3769 14.1578 26.1312 14.2097 25.9453 14.3588L24.2025 15.75C24.0675 15.75 23.9325 15.75 23.7975 15.75L22.05 14.3541C21.8639 14.2053 21.6183 14.1538 21.3881 14.2153C20.5263 14.445 19.6988 14.788 18.9272 15.2353C18.7225 15.3542 18.5859 15.5627 18.5588 15.7978L18.3113 18.0253C18.2138 18.1184 18.12 18.2122 18.03 18.3066L15.8006 18.5625C15.5653 18.5899 15.3568 18.7268 15.2381 18.9319C14.7913 19.7036 14.4486 20.5311 14.2191 21.3928C14.1578 21.6231 14.2097 21.8688 14.3588 22.0547L15.75 23.7975C15.75 23.9325 15.75 24.0675 15.75 24.2025L14.3541 25.95C14.2053 26.1361 14.1538 26.3817 14.2153 26.6119C14.4446 27.4738 14.7876 28.3014 15.2353 29.0728C15.3542 29.2775 15.5627 29.4141 15.7978 29.4412L18.0216 29.6887C18.1147 29.7862 18.2084 29.88 18.3028 29.97L18.5625 32.1994C18.5899 32.4347 18.7268 32.6432 18.9319 32.7619C19.7036 33.2087 20.5311 33.5514 21.3928 33.7809C21.6231 33.8422 21.8688 33.7903 22.0547 33.6413L23.7975 32.25C23.9325 32.2537 24.0675 32.2537 24.2025 32.25L25.95 33.6488C26.1361 33.7975 26.3817 33.849 26.6119 33.7875C27.4738 33.5582 28.3014 33.2152 29.0728 32.7675C29.2775 32.6486 29.4141 32.4401 29.4412 32.205L29.6887 29.9813C29.7862 29.8888 29.88 29.795 29.97 29.7L32.1994 29.4375C32.4347 29.4101 32.6432 29.2732 32.7619 29.0681C33.2087 28.2964 33.5514 27.4689 33.7809 26.6072C33.8422 26.3769 33.7903 26.1312 33.6413 25.9453L32.25 24.2025ZM30.7406 23.5931C30.7566 23.8641 30.7566 24.1359 30.7406 24.4069C30.7295 24.5924 30.7876 24.7755 30.9037 24.9206L32.2341 26.5828C32.0814 27.0679 31.886 27.5385 31.65 27.9891L29.5312 28.2291C29.3467 28.2495 29.1764 28.3377 29.0531 28.4766C28.8727 28.6795 28.6805 28.8717 28.4775 29.0522C28.3387 29.1754 28.2505 29.3458 28.23 29.5303L27.9947 31.6472C27.5442 31.8833 27.0736 32.0787 26.5884 32.2313L24.9253 30.9009C24.7922 30.7946 24.6269 30.7367 24.4566 30.7369H24.4116C24.1405 30.7528 23.8688 30.7528 23.5978 30.7369C23.4123 30.7257 23.2292 30.7838 23.0841 30.9L21.4172 32.2313C20.9321 32.0786 20.4615 31.8831 20.0109 31.6472L19.7709 29.5312C19.7505 29.3467 19.6623 29.1764 19.5234 29.0531C19.3205 28.8727 19.1283 28.6805 18.9478 28.4775C18.8246 28.3387 18.6542 28.2505 18.4697 28.23L16.3528 27.9937C16.1167 27.5433 15.9213 27.0727 15.7687 26.5875L17.0991 24.9244C17.2152 24.7793 17.2734 24.5962 17.2622 24.4106C17.2463 24.1396 17.2463 23.8679 17.2622 23.5969C17.2734 23.4113 17.2152 23.2282 17.0991 23.0831L15.7687 21.4172C15.9214 20.9321 16.1169 20.4615 16.3528 20.0109L18.4688 19.7709C18.6533 19.7505 18.8236 19.6623 18.9469 19.5234C19.1273 19.3205 19.3195 19.1283 19.5225 18.9478C19.6619 18.8245 19.7504 18.6537 19.7709 18.4688L20.0063 16.3528C20.4567 16.1167 20.9273 15.9213 21.4125 15.7687L23.0756 17.0991C23.2207 17.2152 23.4038 17.2734 23.5894 17.2622C23.8604 17.2463 24.1321 17.2463 24.4031 17.2622C24.5887 17.2734 24.7718 17.2152 24.9169 17.0991L26.5828 15.7687C27.0679 15.9214 27.5385 16.1169 27.9891 16.3528L28.2291 18.4688C28.2495 18.6533 28.3377 18.8236 28.4766 18.9469C28.6795 19.1273 28.8717 19.3195 29.0522 19.5225C29.1754 19.6613 29.3458 19.7495 29.5303 19.77L31.6472 20.0053C31.8833 20.4558 32.0787 20.9264 32.2313 21.4116L30.9009 23.0747C30.7837 23.221 30.7255 23.406 30.7378 23.5931H30.7406Z" fill="#0D141C"/>
</g>
<defs>
<clipPath id="clip0_3001_9001">
<rect width="24" height="24" fill="white" transform="translate(12 12)"/>
</clipPath>
</defs>
</svg>
