<svg width="74" height="74" viewBox="0 0 74 74" fill="none" xmlns="http://www.w3.org/2000/svg">
<circle cx="37" cy="37" r="37" fill="#F0F2F5"/>
<path d="M42.9167 32.6667C44.8459 32.6638 46.7321 33.2372 48.3333 34.3133V28.3333C48.3333 27.1841 47.8768 26.0819 47.0641 25.2692C46.2515 24.4565 45.1493 24 44 24H28.8333C27.6841 24 26.5819 24.4565 25.7692 25.2692C24.9565 26.0819 24.5 27.1841 24.5 28.3333V43.5C24.5 44.6493 24.9565 45.7515 25.7692 46.5641C26.5819 47.3768 27.6841 47.8333 28.8333 47.8333H34.8133C33.8326 46.3655 33.2688 44.659 33.182 42.8958C33.0953 41.1327 33.4888 39.3791 34.3207 37.8221C35.1526 36.2651 36.3916 34.9631 37.9055 34.0552C39.4194 33.1472 41.1514 32.6673 42.9167 32.6667Z" fill="#383874"/>
<path d="M42.9173 34.8333C41.4175 34.8333 39.9513 35.2781 38.7042 36.1113C37.4572 36.9446 36.4852 38.129 35.9112 39.5146C35.3373 40.9003 35.1871 42.4251 35.4797 43.8961C35.7723 45.3671 36.4945 46.7183 37.5551 47.7789C38.6156 48.8394 39.9669 49.5617 41.4379 49.8543C42.9089 50.1469 44.4337 49.9967 45.8193 49.4227C47.205 48.8488 48.3894 47.8768 49.2226 46.6297C50.0559 45.3826 50.5007 43.9165 50.5007 42.4166C50.4984 40.4061 49.6987 38.4786 48.277 37.057C46.8554 35.6353 44.9278 34.8356 42.9173 34.8333ZM45.084 43.5H44.0007V44.5833C44.0007 44.8706 43.8865 45.1462 43.6834 45.3493C43.4802 45.5525 43.2046 45.6666 42.9173 45.6666C42.63 45.6666 42.3545 45.5525 42.1513 45.3493C41.9481 45.1462 41.834 44.8706 41.834 44.5833V43.5H40.7507C40.4633 43.5 40.1878 43.3858 39.9846 43.1827C39.7815 42.9795 39.6673 42.704 39.6673 42.4166C39.6673 42.1293 39.7815 41.8538 39.9846 41.6506C40.1878 41.4474 40.4633 41.3333 40.7507 41.3333H41.834V40.25C41.834 39.9627 41.9481 39.6871 42.1513 39.4839C42.3545 39.2808 42.63 39.1666 42.9173 39.1666C43.2046 39.1666 43.4802 39.2808 43.6834 39.4839C43.8865 39.6871 44.0007 39.9627 44.0007 40.25V41.3333H45.084C45.3713 41.3333 45.6469 41.4474 45.85 41.6506C46.0532 41.8538 46.1673 42.1293 46.1673 42.4166C46.1673 42.704 46.0532 42.9795 45.85 43.1827C45.6469 43.3858 45.3713 43.5 45.084 43.5Z" fill="#383874"/>
</svg>
