<svg width="40" height="35" viewBox="0 0 40 35" fill="none" xmlns="http://www.w3.org/2000/svg">
<path d="M2.99992 29.469L4.7499 32.3588C5.11354 32.9673 5.63621 33.4454 6.24986 33.7931C8.00759 31.6599 9.23087 30.0229 9.92032 28.8822C10.6199 27.7247 11.4797 25.9138 12.4997 23.45C9.7506 23.104 7.66736 22.931 6.25002 22.931C4.88956 22.931 2.80632 23.104 0 23.45C0 24.1236 0.181818 24.7971 0.545454 25.4056L2.99992 29.469Z" fill="#0066DA"/>
<path d="M33.7384 33.7931C34.3534 33.4454 34.877 32.9673 35.2411 32.359L35.9697 31.1639L39.4534 25.4056C39.811 24.8103 39.9993 24.1362 39.9997 23.45C37.172 23.104 35.0888 22.931 33.7499 22.931C32.3111 22.931 30.2277 23.104 27.5 23.45C28.5098 25.9273 29.3599 27.7381 30.0501 28.8822C30.7462 30.0366 31.9756 31.6734 33.7384 33.7931Z" fill="#EA4335"/>
<path d="M19.9989 10.8621C22.0325 8.5144 23.4341 6.70398 24.2033 5.43111C24.8229 4.40611 25.5047 2.76948 26.2487 0.52139C25.6351 0.173797 24.9306 0 24.2033 0H15.7944C15.0672 0 14.1138 0.174157 13.5 0.49997C14.4464 3.07832 15.4987 4.93476 16.1584 6.02628C16.8875 7.23264 18.1677 8.84451 19.9989 10.8621Z" fill="#00832D"/>
<path d="M27.4263 22.931H12.5729L6.25 34.4207C6.87068 34.8069 7.58342 35 8.31921 35H31.68C32.4158 35 33.1287 34.7827 33.7494 34.4205L27.4263 22.931Z" fill="#2684FC"/>
<path d="M19.9996 10.5357L13.6997 0C13.081 0.354155 12.5542 0.841005 12.1876 1.46085L0.549827 20.9389C0.190014 21.5453 0.000475372 22.232 0 22.931H12.5999L19.9996 10.5357Z" fill="#00AC47"/>
<path d="M33.6455 11.1999L27.8198 1.46084C27.453 0.841 26.9254 0.354153 26.3061 0L19.999 10.5358L27.407 22.931H39.9986C39.9986 22.2448 39.8151 21.5588 39.4481 20.9389L33.6455 11.1999Z" fill="#FFBA00"/>
</svg>
