<svg width="166" height="24" viewBox="0 0 166 24" fill="none" xmlns="http://www.w3.org/2000/svg">
<path d="M0.53125 22.1406V17.1406C1.4375 17.901 2.42188 18.474 3.48438 18.8594C4.54688 19.2344 5.61979 19.4219 6.70312 19.4219C7.33854 19.4219 7.89062 19.3646 8.35938 19.25C8.83854 19.1354 9.23438 18.9792 9.54688 18.7812C9.86979 18.5729 10.1094 18.3333 10.2656 18.0625C10.4219 17.7812 10.5 17.4792 10.5 17.1562C10.5 16.7188 10.375 16.3281 10.125 15.9844C9.875 15.6406 9.53125 15.3229 9.09375 15.0312C8.66667 14.7396 8.15625 14.4583 7.5625 14.1875C6.96875 13.9167 6.32812 13.6406 5.64062 13.3594C3.89062 12.6302 2.58333 11.7396 1.71875 10.6875C0.864583 9.63542 0.4375 8.36458 0.4375 6.875C0.4375 5.70833 0.671875 4.70833 1.14062 3.875C1.60938 3.03125 2.24479 2.33854 3.04688 1.79688C3.85938 1.25521 4.79688 0.859375 5.85938 0.609375C6.92188 0.348958 8.04688 0.21875 9.23438 0.21875C10.401 0.21875 11.4323 0.291667 12.3281 0.4375C13.2344 0.572917 14.0677 0.786458 14.8281 1.07812V5.75C14.4531 5.48958 14.0417 5.26042 13.5938 5.0625C13.1562 4.86458 12.7031 4.70312 12.2344 4.57812C11.7656 4.44271 11.2969 4.34375 10.8281 4.28125C10.3698 4.21875 9.93229 4.1875 9.51562 4.1875C8.94271 4.1875 8.42188 4.24479 7.95312 4.35938C7.48438 4.46354 7.08854 4.61458 6.76562 4.8125C6.44271 5.01042 6.19271 5.25 6.01562 5.53125C5.83854 5.80208 5.75 6.10938 5.75 6.45312C5.75 6.82812 5.84896 7.16667 6.04688 7.46875C6.24479 7.76042 6.52604 8.04167 6.89062 8.3125C7.25521 8.57292 7.69792 8.83333 8.21875 9.09375C8.73958 9.34375 9.32812 9.60417 9.98438 9.875C10.8802 10.25 11.6823 10.651 12.3906 11.0781C13.1094 11.4948 13.724 11.9688 14.2344 12.5C14.7448 13.0312 15.1354 13.6406 15.4062 14.3281C15.6771 15.0052 15.8125 15.7969 15.8125 16.7031C15.8125 17.9531 15.5729 19.0052 15.0938 19.8594C14.625 20.7031 13.9844 21.3906 13.1719 21.9219C12.3594 22.4427 11.4115 22.8177 10.3281 23.0469C9.25521 23.276 8.11979 23.3906 6.92188 23.3906C5.69271 23.3906 4.52083 23.2865 3.40625 23.0781C2.30208 22.8698 1.34375 22.5573 0.53125 22.1406ZM36.3906 0.59375L29.0938 15.0312V23H24.0469V15.125L16.9375 0.59375H22.7031L26.3125 8.95312C26.375 9.10938 26.5469 9.71875 26.8281 10.7812H26.8906C27.026 10.0312 27.1875 9.44271 27.375 9.01562L31.0469 0.59375H36.3906ZM59.0938 23H54L44.7656 8.92188C44.224 8.09896 43.849 7.47917 43.6406 7.0625H43.5781C43.6615 7.85417 43.7031 9.0625 43.7031 10.6875V23H38.9375V0.59375H44.375L53.2656 14.2344C53.6719 14.849 54.0469 15.4583 54.3906 16.0625H54.4531C54.3698 15.5417 54.3281 14.5156 54.3281 12.9844V0.59375H59.0938V23ZM77.6562 23H64.2188V0.59375H77.1406V4.70312H69.2656V9.6875H76.5938V13.7812H69.2656V18.9062H77.6562V23ZM97.3125 22.2031C95.6771 22.9948 93.5417 23.3906 90.9062 23.3906C87.4688 23.3906 84.7656 22.3802 82.7969 20.3594C80.8281 18.3385 79.8438 15.6458 79.8438 12.2812C79.8438 8.69792 80.9479 5.79167 83.1562 3.5625C85.375 1.33333 88.25 0.21875 91.7812 0.21875C93.9688 0.21875 95.8125 0.494792 97.3125 1.04688V5.90625C95.8125 5.01042 94.1042 4.5625 92.1875 4.5625C90.0833 4.5625 88.3854 5.22396 87.0938 6.54688C85.8021 7.86979 85.1562 9.66146 85.1562 11.9219C85.1562 14.0885 85.7656 15.8177 86.9844 17.1094C88.2031 18.3906 89.8438 19.0312 91.9062 19.0312C93.875 19.0312 95.6771 18.5521 97.3125 17.5938V22.2031ZM116.953 4.70312H110.562V23H105.5V4.70312H99.1406V0.59375H116.953V4.70312ZM148.75 23H142.375L135.844 13.2656C135.719 13.0781 135.521 12.6667 135.25 12.0312H135.172V23H130.125V0.59375H135.172V11.1875H135.25C135.375 10.8958 135.583 10.4792 135.875 9.9375L142.062 0.59375H148.078L140.266 11.2812L148.75 23ZM149.875 22.1406V17.1406C150.781 17.901 151.766 18.474 152.828 18.8594C153.891 19.2344 154.964 19.4219 156.047 19.4219C156.682 19.4219 157.234 19.3646 157.703 19.25C158.182 19.1354 158.578 18.9792 158.891 18.7812C159.214 18.5729 159.453 18.3333 159.609 18.0625C159.766 17.7812 159.844 17.4792 159.844 17.1562C159.844 16.7188 159.719 16.3281 159.469 15.9844C159.219 15.6406 158.875 15.3229 158.438 15.0312C158.01 14.7396 157.5 14.4583 156.906 14.1875C156.312 13.9167 155.672 13.6406 154.984 13.3594C153.234 12.6302 151.927 11.7396 151.062 10.6875C150.208 9.63542 149.781 8.36458 149.781 6.875C149.781 5.70833 150.016 4.70833 150.484 3.875C150.953 3.03125 151.589 2.33854 152.391 1.79688C153.203 1.25521 154.141 0.859375 155.203 0.609375C156.266 0.348958 157.391 0.21875 158.578 0.21875C159.745 0.21875 160.776 0.291667 161.672 0.4375C162.578 0.572917 163.411 0.786458 164.172 1.07812V5.75C163.797 5.48958 163.385 5.26042 162.938 5.0625C162.5 4.86458 162.047 4.70312 161.578 4.57812C161.109 4.44271 160.641 4.34375 160.172 4.28125C159.714 4.21875 159.276 4.1875 158.859 4.1875C158.286 4.1875 157.766 4.24479 157.297 4.35938C156.828 4.46354 156.432 4.61458 156.109 4.8125C155.786 5.01042 155.536 5.25 155.359 5.53125C155.182 5.80208 155.094 6.10938 155.094 6.45312C155.094 6.82812 155.193 7.16667 155.391 7.46875C155.589 7.76042 155.87 8.04167 156.234 8.3125C156.599 8.57292 157.042 8.83333 157.562 9.09375C158.083 9.34375 158.672 9.60417 159.328 9.875C160.224 10.25 161.026 10.651 161.734 11.0781C162.453 11.4948 163.068 11.9688 163.578 12.5C164.089 13.0312 164.479 13.6406 164.75 14.3281C165.021 15.0052 165.156 15.7969 165.156 16.7031C165.156 17.9531 164.917 19.0052 164.438 19.8594C163.969 20.7031 163.328 21.3906 162.516 21.9219C161.703 22.4427 160.755 22.8177 159.672 23.0469C158.599 23.276 157.464 23.3906 156.266 23.3906C155.036 23.3906 153.865 23.2865 152.75 23.0781C151.646 22.8698 150.688 22.5573 149.875 22.1406Z" fill="#1890FF"/>
<path d="M125.016 23H119.969V0.59375H125.016V23Z" fill="#F5222D"/>
</svg>
