<svg width="18" height="19" viewBox="0 0 18 19" fill="none" xmlns="http://www.w3.org/2000/svg">
<path id="Vector" d="M8.97449 0.902832C4.21425 0.902832 0.354492 4.76259 0.354492 9.52283C0.354492 14.2831 4.21425 18.1428 8.97449 18.1428C13.7347 18.1428 17.5945 14.2831 17.5945 9.52283C17.5945 4.76259 13.7347 0.902832 8.97449 0.902832ZM12.157 12.7977L10.8871 12.7919L8.97449 10.5118L7.06385 12.79L5.79202 12.7957C5.70736 12.7957 5.63809 12.7284 5.63809 12.6418C5.63809 12.6053 5.65156 12.5706 5.67465 12.5418L8.17791 9.55939L5.67465 6.57895C5.6514 6.55075 5.6385 6.51544 5.63809 6.47889C5.63809 6.39423 5.70736 6.32497 5.79202 6.32497L7.06385 6.33074L8.97449 8.61081L10.8851 6.33266L12.155 6.32689C12.2397 6.32689 12.309 6.39423 12.309 6.48082C12.309 6.51738 12.2955 6.55201 12.2724 6.58087L9.773 9.56131L12.2743 12.5437C12.2974 12.5725 12.3109 12.6072 12.3109 12.6437C12.3109 12.7284 12.2416 12.7977 12.157 12.7977Z" fill="#FF4D4F"/>
</svg>
