<svg width="66" height="108" viewBox="0 0 66 108" fill="none" xmlns="http://www.w3.org/2000/svg">
<path opacity="0.1" d="M65.9473 107.668H0.0292969V99.5381C0.0292969 96.2178 0.493164 93.1172 1.4209 90.2363C2.34863 87.3066 3.59375 84.5723 5.15625 82.0332C6.71875 79.4453 8.5498 77.0283 10.6494 74.7822C12.749 72.4873 14.9951 70.29 17.3877 68.1904C19.7803 66.042 22.2217 63.9912 24.7119 62.0381C27.2021 60.0361 29.6436 58.0342 32.0361 56.0322C34.2822 54.1279 36.333 52.2725 38.1885 50.4658C40.0439 48.6104 41.6309 46.7061 42.9492 44.7529C44.2676 42.7998 45.293 40.749 46.0254 38.6006C46.7578 36.4033 47.124 34.0352 47.124 31.4961C47.124 28.7129 46.6846 26.2959 45.8057 24.2451C44.9756 22.1455 43.7793 20.4121 42.2168 19.0449C40.7031 17.6289 38.8965 16.5791 36.7969 15.8955C34.6973 15.1631 32.4023 14.7969 29.9121 14.7969C25.6152 14.7969 21.2451 15.7979 16.8018 17.7998C12.3584 19.8018 8.08594 22.8047 3.98438 26.8086V10.4756C6.13281 8.86426 8.30566 7.47266 10.5029 6.30078C12.7002 5.08008 14.9707 4.0791 17.3145 3.29785C19.6582 2.46777 22.124 1.85742 24.7119 1.4668C27.2998 1.07617 30.0586 0.880859 32.9883 0.880859C37.7246 0.880859 42.0215 1.51563 45.8789 2.78516C49.7363 4.00586 53.0322 5.83691 55.7666 8.27832C58.501 10.6709 60.6006 13.6738 62.0654 17.2871C63.5791 20.9004 64.3359 25.0508 64.3359 29.7383C64.3359 33.9863 63.7988 37.8193 62.7246 41.2373C61.6992 44.6064 60.21 47.7559 58.2568 50.6855C56.3525 53.6152 54.0332 56.3984 51.2988 59.0352C48.5645 61.6719 45.5127 64.3818 42.1436 67.165C39.3115 69.46 36.4795 71.7061 33.6475 73.9033C30.8643 76.0518 28.3496 78.1758 26.1035 80.2754C23.8574 82.3262 22.0264 84.4014 20.6104 86.501C19.2432 88.5518 18.5596 90.627 18.5596 92.7266V93.0928H65.9473V107.668Z" fill="#9B9DA0"/>
</svg>
