<svg width="65" height="110" viewBox="0 0 65 110" fill="none" xmlns="http://www.w3.org/2000/svg">
<path opacity="0.1" d="M0.516602 103.786V87.8193C7.35254 93.2393 15.0674 95.9492 23.6611 95.9492C30.6436 95.9492 36.21 94.3623 40.3604 91.1885C44.5596 88.0146 46.6592 83.7178 46.6592 78.2979C46.6592 66.3838 37.5527 60.4268 19.3398 60.4268H11.21V46.8037H18.9736C35.1357 46.8037 43.2168 41.1885 43.2168 29.958C43.2168 19.6064 36.918 14.4307 24.3203 14.4307C17.2891 14.4307 10.6729 16.9453 4.47168 21.9746V6.88672C11.6006 2.88281 20.0234 0.880859 29.7402 0.880859C39.0664 0.880859 46.5371 3.22461 52.1523 7.91211C57.7676 12.5996 60.5752 18.6055 60.5752 25.9297C60.5752 39.748 53.5439 48.6348 39.4814 52.5898V52.8828C47.0498 53.6152 53.0312 56.2764 57.4258 60.8662C61.8203 65.4072 64.0176 71.0957 64.0176 77.9316C64.0176 87.3555 60.4775 94.9727 53.3975 100.783C46.3174 106.545 36.9912 109.426 25.4189 109.426C15.0186 109.426 6.71777 107.546 0.516602 103.786Z" fill="#9B9DA0"/>
</svg>
