<svg width="63" height="108" viewBox="0 0 63 108" fill="none" xmlns="http://www.w3.org/2000/svg">
<path opacity="0.1" d="M0.204102 103.114V86.7812C7.08887 91.4199 14.0713 93.7393 21.1514 93.7393C28.2803 93.7393 34.0176 91.9326 38.3633 88.3193C42.709 84.6572 44.8818 79.7988 44.8818 73.7441C44.8818 67.7871 42.6602 63.1484 38.2168 59.8281C33.8223 56.5078 27.499 54.8477 19.2471 54.8477C16.415 54.8477 10.6777 55.1406 2.03516 55.7266L5.77051 0.501953H57.4795V15.0039H19.9062L18.1484 41.2979C21.5176 41.1025 24.5693 41.0049 27.3037 41.0049C38.4365 41.0049 47.0303 43.8613 53.085 49.5742C59.1885 55.2871 62.2402 63.0996 62.2402 73.0117C62.2402 83.4121 58.749 91.7617 51.7666 98.0605C44.833 104.311 35.2871 107.436 23.1289 107.436C12.875 107.436 5.2334 105.995 0.204102 103.114Z" fill="#9B9DA0"/>
</svg>
