<svg width="72" height="110" viewBox="0 0 72 110" fill="none" xmlns="http://www.w3.org/2000/svg">
<path opacity="0.1" d="M71.5107 73.7666C71.5107 79.04 70.6318 83.8496 68.874 88.1953C67.165 92.541 64.7725 96.3008 61.6963 99.4746C58.6201 102.6 54.958 105.041 50.71 106.799C46.5107 108.508 41.9453 109.362 37.0137 109.362C31.7402 109.362 26.8818 108.337 22.4385 106.286C18.0439 104.235 14.2354 101.184 11.0127 97.1309C7.83887 93.0781 5.37305 88.0488 3.61523 82.043C1.85742 75.9883 0.978516 68.9814 0.978516 61.0225C0.978516 51.3057 2.12598 42.6875 4.4209 35.168C6.76465 27.6484 9.96289 21.3496 14.0156 16.2715C18.0684 11.1934 22.8291 7.33594 28.2979 4.69922C33.7666 2.0625 39.6748 0.744141 46.0225 0.744141C49.9775 0.744141 53.5664 1.0127 56.7891 1.5498C60.0605 2.08691 62.6729 2.81934 64.626 3.74707V19.0547C62.1357 17.7852 59.4746 16.7109 56.6426 15.832C53.8105 14.9531 50.5635 14.5137 46.9014 14.5137C42.7998 14.5137 39.0156 15.3438 35.5488 17.0039C32.082 18.6641 29.0791 21.1055 26.54 24.3281C24.0498 27.502 22.0723 31.457 20.6074 36.1934C19.1914 40.8809 18.459 46.3008 18.4102 52.4531H18.8496C21.0957 48.9863 24.123 46.252 27.9316 44.25C31.7891 42.248 36.3057 41.2471 41.4814 41.2471C46.0713 41.2471 50.1973 42.0039 53.8594 43.5176C57.5703 44.9824 60.7197 47.1309 63.3076 49.9629C65.9443 52.7461 67.9707 56.1641 69.3867 60.2168C70.8027 64.2207 71.5107 68.7373 71.5107 73.7666ZM54.3721 75.1582C54.3721 72.1309 54.0059 69.3721 53.2734 66.8818C52.5898 64.3916 51.5156 62.2676 50.0508 60.5098C48.6348 58.7031 46.8281 57.3115 44.6309 56.335C42.4824 55.3584 39.9434 54.8701 37.0137 54.8701C34.084 54.8701 31.4961 55.4072 29.25 56.4814C27.0527 57.5068 25.1973 58.874 23.6836 60.583C22.1699 62.292 21.0225 64.2451 20.2412 66.4424C19.5088 68.6396 19.1426 70.8857 19.1426 73.1807C19.1426 75.6709 19.4844 78.2344 20.168 80.8711C20.9004 83.459 21.999 85.8271 23.4639 87.9756C24.9287 90.124 26.7842 91.9062 29.0303 93.3223C31.3252 94.6895 34.0352 95.373 37.1602 95.373C39.9434 95.373 42.4092 94.8604 44.5576 93.835C46.7061 92.8096 48.4883 91.3936 49.9043 89.5869C51.3691 87.7803 52.4678 85.6562 53.2002 83.2148C53.9814 80.7246 54.3721 78.0391 54.3721 75.1582Z" fill="#9B9DA0"/>
</svg>
