<svg width="26" height="26" viewBox="0 0 26 26" fill="none" xmlns="http://www.w3.org/2000/svg">
<g id="Comment" clip-path="url(#clip0_184090_30989)">
<g id="Vector">
<path d="M14.7705 10.3593C14.1002 10.3593 13.5808 10.8787 13.5808 11.52C13.5808 12.1613 14.1002 12.6807 14.7705 12.6807C15.3828 12.6807 15.9022 12.1613 15.9022 11.52C15.9022 10.8787 15.3828 10.3593 14.7705 10.3593ZM6.64552 10.3593C5.97521 10.3593 5.45579 10.8787 5.45579 11.52C5.45579 12.1613 5.97521 12.6807 6.64552 12.6807C7.2578 12.6807 7.77722 12.1613 7.77722 11.52C7.77722 10.8787 7.2578 10.3593 6.64552 10.3593Z" fill="black" fill-opacity="0.25"/>
<path d="M24.0844 8.15169C22.7419 6.30366 20.806 4.97211 18.6001 4.37937V4.38227C18.1039 3.83093 17.5438 3.32312 16.917 2.87044C12.1668 -0.582686 5.4985 0.470662 2.03086 5.22089C-0.763557 9.08026 -0.644584 14.2716 2.20497 17.9597L2.22818 21.8075C2.22818 21.9003 2.24269 21.9932 2.27171 22.0803C2.30821 22.1965 2.36728 22.3045 2.44553 22.3979C2.52379 22.4913 2.6197 22.5684 2.72777 22.6248C2.83585 22.6811 2.95397 22.7156 3.07538 22.7262C3.19679 22.7368 3.3191 22.7234 3.43533 22.6867L7.10899 21.5289C8.08109 21.8742 9.0851 22.0716 10.0833 22.1267L10.0688 22.1383C12.6543 24.0216 16.0436 24.5874 19.1514 23.5602L22.8396 24.7615C22.9324 24.7905 23.0282 24.8079 23.1268 24.8079C23.6405 24.8079 24.0554 24.393 24.0554 23.8794V19.991C26.6119 16.5204 26.6786 11.7238 24.0844 8.15169ZM7.51524 19.4687L7.16702 19.3236L4.29426 20.2231L4.26524 17.2053L4.03309 16.9441C1.57818 13.9495 1.41568 9.6345 3.7139 6.46865C6.51122 2.63249 11.8737 1.78517 15.6983 4.55347C19.5344 7.34209 20.3847 12.6959 17.6135 16.5088C15.2891 19.6979 11.128 20.876 7.51524 19.4687ZM22.1693 18.9753L21.9371 19.2655L21.9661 22.2834L19.1224 21.3258L18.7742 21.4709C17.1492 22.0745 15.4168 22.1238 13.8121 21.674L13.8063 21.6711C16.0118 20.9948 17.9383 19.6212 19.2965 17.7566C21.5135 14.701 21.8733 10.862 20.5849 7.58874L20.6023 7.60035C21.2697 8.07914 21.882 8.67691 22.4014 9.39946C24.5081 12.2896 24.3891 16.2245 22.1693 18.9753Z" fill="black" fill-opacity="0.25"/>
<path d="M10.708 10.3593C10.0377 10.3593 9.51829 10.8787 9.51829 11.52C9.51829 12.1613 10.0377 12.6807 10.708 12.6807C11.3203 12.6807 11.8397 12.1613 11.8397 11.52C11.8397 10.8787 11.3203 10.3593 10.708 10.3593Z" fill="black" fill-opacity="0.25"/>
</g>
</g>
<defs>
<clipPath id="clip0_184090_30989">
<rect width="26" height="26" fill="white"/>
</clipPath>
</defs>
</svg>
