<svg width="46" height="46" viewBox="0 0 46 46" fill="none" xmlns="http://www.w3.org/2000/svg">
<g clip-path="url(#clip0_184273_11709)">
<path d="M39.9878 11.9097L29.3404 1.2622C29.0435 0.965341 28.6428 0.797119 28.2222 0.797119H7.20436C6.32862 0.797119 5.62109 1.50464 5.62109 2.38038V43.5453C5.62109 44.421 6.32862 45.1285 7.20436 45.1285H38.8697C39.7454 45.1285 40.4529 44.421 40.4529 43.5453V13.0328C40.4529 12.6122 40.2847 12.2065 39.9878 11.9097ZM36.8015 13.7601H27.4899V4.44852L36.8015 13.7601ZM36.8906 41.5662H9.18344V4.35947H24.1255V15.0465C24.1255 15.5976 24.3444 16.1262 24.7342 16.5159C25.1239 16.9056 25.6524 17.1245 26.2035 17.1245H36.8906V41.5662ZM24.6203 20.9838C24.6203 20.7661 24.4422 20.5879 24.2245 20.5879H21.8496C21.6319 20.5879 21.4537 20.7661 21.4537 20.9838V26.3273H16.1102C15.8925 26.3273 15.7144 26.5054 15.7144 26.7231V29.098C15.7144 29.3157 15.8925 29.4938 16.1102 29.4938H21.4537V34.8373C21.4537 35.055 21.6319 35.2331 21.8496 35.2331H24.2245C24.4422 35.2331 24.6203 35.055 24.6203 34.8373V29.4938H29.9638C30.1815 29.4938 30.3596 29.3157 30.3596 29.098V26.7231C30.3596 26.5054 30.1815 26.3273 29.9638 26.3273H24.6203V20.9838Z" fill="black" fill-opacity="0.25"/>
</g>
<defs>
<clipPath id="clip0_184273_11709">
<rect width="44.3314" height="44.3314" fill="white" transform="translate(0.871094 0.797119)"/>
</clipPath>
</defs>
</svg>
