<svg width="802" height="840" viewBox="0 0 802 840" fill="none" xmlns="http://www.w3.org/2000/svg">
<rect width="802" height="840" rx="30" fill="#E6F7FF"/>
<path d="M734 596.354H68V596.687H734V596.354Z" fill="#EBEBEB"/>
<path d="M667.268 617.794H623.149V618.127H667.268V617.794Z" fill="#EBEBEB"/>
<path d="M509.185 621.409H497.606V621.742H509.185V621.409Z" fill="#EBEBEB"/>
<path d="M621.816 605.425H596.252V605.758H621.816V605.425Z" fill="#EBEBEB"/>
<path d="M195.408 607.663H137.875V607.996H195.408V607.663Z" fill="#EBEBEB"/>
<path d="M215.704 607.663H207.269V607.996H215.704V607.663Z" fill="#EBEBEB"/>
<path d="M367.896 613.288H243.119V613.621H367.896V613.288Z" fill="#EBEBEB"/>
<path d="M383.703 536.95H126.495C122.303 536.95 118.892 533.538 118.892 529.347V167.799C118.892 163.607 122.303 160.196 126.495 160.196H383.703C387.893 160.196 391.304 163.607 391.304 167.799V529.347C391.304 533.538 387.893 536.95 383.703 536.95ZM126.495 160.53C122.485 160.53 119.225 163.791 119.225 167.8V529.348C119.225 533.357 122.485 536.618 126.495 536.618H383.703C387.711 536.618 390.971 533.357 390.971 529.348V167.799C390.971 163.791 387.711 160.529 383.703 160.529L126.495 160.53Z" fill="#EBEBEB"/>
<path d="M671.809 536.95H414.603C410.411 536.95 407.001 533.538 407.001 529.347V167.799C407.001 163.607 410.412 160.196 414.603 160.196H671.809C676.002 160.196 679.412 163.607 679.412 167.799V529.347C679.414 533.538 676.002 536.95 671.809 536.95ZM414.603 160.53C410.595 160.53 407.334 163.791 407.334 167.8V529.348C407.334 533.357 410.595 536.618 414.603 536.618H671.809C675.819 536.618 679.079 533.357 679.079 529.348V167.799C679.079 163.791 675.819 160.529 671.809 160.529L414.603 160.53Z" fill="#EBEBEB"/>
<path d="M364.612 331.73H156.106V595.759H364.612V331.73Z" fill="#F0F0F0"/>
<path d="M357.241 341.353H163.475V397.813H357.241V341.353Z" fill="#E0E0E0"/>
<path d="M174.482 350.493H163.475V397.813H174.482V350.493Z" fill="#EBEBEB"/>
<path d="M227.706 350.493H216.698V397.813H227.706V350.493Z" fill="#EBEBEB"/>
<path d="M288.125 349.327L277.277 351.196L285.312 397.829L296.16 395.96L288.125 349.327Z" fill="#EBEBEB"/>
<path d="M188.122 356.729H177.114V397.811H188.122V356.729Z" fill="#EBEBEB"/>
<path d="M213.422 356.729H202.414V397.811H213.422V356.729Z" fill="#EBEBEB"/>
<path d="M277.282 356.729H266.274V397.811H277.282V356.729Z" fill="#EBEBEB"/>
<path d="M242.163 355.324L231.417 357.711L240.328 397.817L251.074 395.429L242.163 355.324Z" fill="#EBEBEB"/>
<path d="M197.639 348.144H192.135V397.813H197.639V348.144Z" fill="#EBEBEB"/>
<path d="M263.109 348.144H257.605V397.813H263.109V348.144Z" fill="#EBEBEB"/>
<path d="M163.475 463.211H357.241V406.751H163.475V463.211Z" fill="#E0E0E0"/>
<path d="M346.233 463.211H357.24V415.892H346.233V463.211Z" fill="#EBEBEB"/>
<path d="M293.009 463.211H304.017V415.892H293.009V463.211Z" fill="#EBEBEB"/>
<path d="M224.532 461.34L235.38 463.209L243.415 416.575L232.567 414.706L224.532 461.34Z" fill="#EBEBEB"/>
<path d="M332.594 463.211H343.602V422.129H332.594V463.211Z" fill="#EBEBEB"/>
<path d="M307.295 463.211H318.303V422.129H307.295V463.211Z" fill="#EBEBEB"/>
<path d="M243.435 463.211H254.442V422.129H243.435V463.211Z" fill="#EBEBEB"/>
<path d="M269.634 460.824L280.38 463.211L289.291 423.106L278.545 420.718L269.634 460.824Z" fill="#EBEBEB"/>
<path d="M323.077 463.211H328.581V413.542H323.077V463.211Z" fill="#EBEBEB"/>
<path d="M257.607 463.211H263.11V413.542H257.607V463.211Z" fill="#EBEBEB"/>
<path d="M174.482 415.892H163.475V463.211H174.482V415.892Z" fill="#EBEBEB"/>
<path d="M188.122 422.127H177.114V463.21H188.122V422.127Z" fill="#EBEBEB"/>
<path d="M213.422 422.127H202.414V463.21H213.422V422.127Z" fill="#EBEBEB"/>
<path d="M197.639 413.542H192.135V463.211H197.639V413.542Z" fill="#EBEBEB"/>
<path d="M357.241 472.15H163.475V528.61H357.241V472.15Z" fill="#E0E0E0"/>
<path d="M285.698 481.291H274.69V528.61H285.698V481.291Z" fill="#EBEBEB"/>
<path d="M346.114 480.131L335.266 482L343.3 528.633L354.148 526.764L346.114 480.131Z" fill="#EBEBEB"/>
<path d="M246.114 487.527H235.106V528.61H246.114V487.527Z" fill="#EBEBEB"/>
<path d="M271.414 487.527H260.406V528.61H271.414V487.527Z" fill="#EBEBEB"/>
<path d="M335.272 487.527H324.265V528.61H335.272V487.527Z" fill="#EBEBEB"/>
<path d="M300.154 486.123L289.408 488.511L298.319 528.616L309.065 526.229L300.154 486.123Z" fill="#EBEBEB"/>
<path d="M255.631 478.942H250.127V528.611H255.631V478.942Z" fill="#EBEBEB"/>
<path d="M321.101 478.942H315.598V528.611H321.101V478.942Z" fill="#EBEBEB"/>
<path d="M219.475 480.127L208.627 481.996L216.662 528.629L227.51 526.76L219.475 480.127Z" fill="#EBEBEB"/>
<path d="M208.639 487.527H197.632V528.61H208.639V487.527Z" fill="#EBEBEB"/>
<path d="M173.517 486.123L162.771 488.51L171.682 528.615L182.428 526.228L173.517 486.123Z" fill="#EBEBEB"/>
<path d="M194.468 478.942H188.964V528.611H194.468V478.942Z" fill="#EBEBEB"/>
<path d="M474.638 438.159H592.139C604.883 438.159 615.216 448.491 615.216 461.236V552.99H451.56V461.236C451.56 448.491 461.892 438.159 474.638 438.159Z" fill="#E6E6E6"/>
<path d="M416.819 506.166H437.846C445.42 506.166 451.559 512.305 451.559 519.879V595.759H403.106V519.879C403.106 512.305 409.246 506.166 416.819 506.166Z" fill="#E0E0E0"/>
<path d="M416.82 506.166H417.263C424.837 506.166 430.976 512.305 430.976 519.879V595.759H403.105V519.879C403.107 512.305 409.246 506.166 416.82 506.166Z" fill="#EBEBEB"/>
<path d="M598.101 560.903H436.845V595.759H598.101V560.903Z" fill="#E6E6E6"/>
<path d="M436.617 529.026H592.132C599.832 529.026 606.074 535.267 606.074 542.968V551.652C606.074 559.352 599.832 565.594 592.132 565.594H436.617C428.917 565.594 422.675 559.352 422.675 551.652V542.968C422.675 535.267 428.917 529.026 436.617 529.026Z" fill="#F5F5F5"/>
<path d="M572.588 529.026H591.877C599.577 529.026 605.819 535.267 605.819 542.968V551.652C605.819 559.352 599.577 565.594 591.877 565.594H572.588C564.888 565.594 558.646 559.352 558.646 551.652V542.968C558.647 535.267 564.889 529.026 572.588 529.026Z" fill="#E0E0E0"/>
<path d="M593.957 506.166H614.984C622.558 506.166 628.697 512.305 628.697 519.879V595.759H580.244V519.879C580.244 512.305 586.383 506.166 593.957 506.166Z" fill="#E0E0E0"/>
<path d="M593.957 506.166H594.401C601.974 506.166 608.113 512.305 608.113 519.879V595.759H580.243V519.879C580.244 512.305 586.383 506.166 593.957 506.166Z" fill="#F0F0F0"/>
<path d="M268.142 299.65C285.245 296.874 296.86 280.759 294.085 263.655C291.309 246.551 275.193 234.936 258.089 237.712C240.986 240.488 229.37 256.603 232.146 273.707C234.922 290.811 251.038 302.426 268.142 299.65Z" fill="#E0E0E0"/>
<path d="M267.389 295.013C281.931 292.653 291.807 278.95 289.447 264.408C287.087 249.865 273.384 239.989 258.842 242.349C244.299 244.709 234.423 258.412 236.783 272.955C239.143 287.497 252.846 297.373 267.389 295.013Z" fill="#F0F0F0"/>
<path d="M261.852 286.982V268.334L249.494 275.327" fill="#F0F0F0"/>
<path d="M261.852 286.982V268.334L249.494 275.327" stroke="#E0E0E0" stroke-width="2" stroke-miterlimit="10" stroke-linecap="round" stroke-linejoin="round"/>
<path d="M638.907 229.103H438.105V407.285H638.907V229.103Z" fill="#E6E6E6"/>
<path d="M633.622 233.986H443.134V402.495H633.622V233.986Z" fill="#F0F0F0"/>
<path d="M487.84 233.986L443.134 402.128V323.12L466.737 233.986H487.84Z" fill="white"/>
<path d="M503.674 233.986L458.575 402.496H451.378L496.475 233.986H503.674Z" fill="white"/>
<path d="M633.622 340.317V367.243L624.496 402.496H617.299L633.622 340.317Z" fill="white"/>
<path d="M509.573 230.957H506.364V406.259H509.573V230.957Z" fill="#E6E6E6"/>
<path d="M571.758 230.957H568.549V406.259H571.758V230.957Z" fill="#E6E6E6"/>
<path d="M401 656.511C543.634 656.511 659.261 649.759 659.261 641.429C659.261 633.099 543.634 626.347 401 626.347C258.367 626.347 142.74 633.099 142.74 641.429C142.74 649.759 258.367 656.511 401 656.511Z" fill="#F5F5F5"/>
<path d="M603.327 608.118C603.327 608.118 609.654 594.313 602.425 580.704C595.196 567.095 593.1 563.889 597.708 561.101C602.317 558.314 604.431 571.988 604.431 571.988C604.431 571.988 608.315 562.58 605.108 552.735C601.9 542.889 599.889 526.853 604.269 525.133C608.65 523.414 605.105 545.139 608.905 552.543C608.905 552.543 612.098 544.3 612.623 536.391C613.148 528.483 612.327 515.856 615.786 512.617C619.246 509.377 621.462 511.619 618.061 529.071C614.662 546.523 614.687 560.708 614.687 560.708C614.687 560.708 622.196 537.817 627.235 537.148C632.274 536.481 632.267 543.893 627.954 550.324C623.641 556.754 615.323 568.274 613.959 574.202C613.959 574.202 622.2 556.974 629.614 562.254C637.028 567.534 623.162 577.939 616.981 581.699C610.801 585.46 606.509 609.029 606.509 609.029L603.327 608.118Z" fill="#407BFF"/>
<path opacity="0.2" d="M603.327 608.118C603.327 608.118 609.654 594.313 602.425 580.704C595.196 567.095 593.1 563.889 597.708 561.101C602.317 558.314 604.431 571.988 604.431 571.988C604.431 571.988 608.315 562.58 605.108 552.735C601.9 542.889 599.889 526.853 604.269 525.133C608.65 523.414 605.105 545.139 608.905 552.543C608.905 552.543 612.098 544.3 612.623 536.391C613.148 528.483 612.327 515.856 615.786 512.617C619.246 509.377 621.462 511.619 618.061 529.071C614.662 546.523 614.687 560.708 614.687 560.708C614.687 560.708 622.196 537.817 627.235 537.148C632.274 536.481 632.267 543.893 627.954 550.324C623.641 556.754 615.323 568.274 613.959 574.202C613.959 574.202 622.2 556.974 629.614 562.254C637.028 567.534 623.162 577.939 616.981 581.699C610.801 585.46 606.509 609.029 606.509 609.029L603.327 608.118Z" fill="black"/>
<path d="M608.322 613.779C608.322 613.779 602.161 599.881 609.552 586.382C616.944 572.882 619.077 569.708 614.503 566.85C609.929 563.993 607.65 577.636 607.65 577.636C607.65 577.636 603.879 568.17 607.204 558.374C610.53 548.577 612.733 532.571 608.373 530.787C604.014 529.002 607.297 550.777 603.408 558.126C603.408 558.126 600.315 549.835 599.885 541.919C599.454 534.005 600.425 521.391 597.006 518.099C593.587 514.809 591.344 517.016 594.534 534.517C597.724 552.019 597.528 566.203 597.528 566.203C597.528 566.203 590.296 543.201 585.265 542.457C580.234 541.714 580.151 549.128 584.387 555.622C588.623 562.116 596.802 573.758 598.096 579.706C598.096 579.706 590.062 562.356 582.586 567.526C575.109 572.695 588.85 583.306 594.984 587.158C601.119 591.01 605.127 614.641 605.127 614.641L608.322 613.779Z" fill="#407BFF"/>
<path d="M579.905 603.873H630.802L626.682 640.295H584.023L579.905 603.873Z" fill="#263238"/>
<path d="M391.144 634.441V639.226C391.144 639.823 390.66 640.294 390.063 640.294H254.971C249.976 640.294 246.571 635.249 248.435 630.627L291.246 524.601L360.426 525.072L358.064 538.829L342.804 627.868C342.307 630.738 344.519 633.373 347.439 633.373H390.063C390.66 633.373 391.144 633.845 391.144 634.441Z" fill="#263238"/>
<path opacity="0.5" d="M391.144 634.441V639.226C391.144 639.823 390.66 640.294 390.063 640.294H254.971C249.976 640.294 246.571 635.249 248.435 630.627L274.979 564.9L291.246 524.601L360.426 525.072L358.064 538.829L351.428 577.552L342.804 627.868C342.307 630.738 344.519 633.373 347.439 633.373H390.063C390.66 633.373 391.144 633.845 391.144 634.441Z" fill="white"/>
<path opacity="0.2" d="M347.439 633.373H259.543C257.344 633.373 255.852 631.137 256.695 629.105L294.227 538.829H358.063L342.802 627.868C342.307 630.738 344.519 633.373 347.439 633.373Z" fill="black"/>
<path opacity="0.1" d="M360.425 525.074L358.065 538.829L351.429 577.552L274.979 564.902L291.245 524.601L360.425 525.074Z" fill="black"/>
<path d="M494.951 327.426H488.163H181.458H174.67C170.144 327.426 166.475 331.096 166.475 335.622V552.447C166.475 556.973 170.144 560.643 174.67 560.643H181.458H488.162H494.95C499.476 560.643 503.146 556.973 503.146 552.447V335.623C503.147 331.096 499.477 327.426 494.951 327.426Z" fill="#263238"/>
<path opacity="0.6" d="M494.951 327.426H488.163H181.458H174.67C170.144 327.426 166.475 331.096 166.475 335.622V552.447C166.475 556.973 170.144 560.643 174.67 560.643H181.458H488.162H494.95C499.476 560.643 503.146 556.973 503.146 552.447V335.623C503.147 331.096 499.477 327.426 494.951 327.426Z" fill="white"/>
<path opacity="0.2" d="M181.455 560.638H174.666C170.145 560.638 166.479 556.972 166.479 552.451V335.626C166.479 331.092 170.145 327.425 174.666 327.425H181.455C176.934 327.425 173.269 331.09 173.269 335.626V552.451C173.267 556.972 176.934 560.638 181.455 560.638Z" fill="black"/>
<path d="M495.765 334.468H180.658V543.55H495.765V334.468Z" fill="#407BFF"/>
<path opacity="0.4" d="M333.866 414.062C348.975 414.062 361.224 401.813 361.224 386.704C361.224 371.595 348.975 359.346 333.866 359.346C318.756 359.346 306.508 371.595 306.508 386.704C306.508 401.813 318.756 414.062 333.866 414.062Z" fill="white"/>
<path d="M327.34 382.547V379.985C327.34 377.5 329.36 375.479 331.846 375.479H335.887C338.373 375.479 340.393 377.5 340.393 379.985V382.547H343.312V379.985C343.312 375.891 339.982 372.561 335.888 372.561H331.847C327.754 372.561 324.424 375.891 324.424 379.985V382.547H327.34Z" fill="white"/>
<path d="M320.75 385.911V399.358C320.75 400.179 321.416 400.845 322.237 400.845H345.495C346.315 400.845 346.981 400.179 346.981 399.358V385.911C346.981 385.091 346.315 384.425 345.495 384.425H322.237C321.416 384.425 320.75 385.091 320.75 385.911ZM334.708 393.527V396.171H333.024V393.527C332.544 393.236 332.208 392.731 332.208 392.129C332.208 391.213 332.951 390.47 333.868 390.47C334.784 390.47 335.527 391.213 335.527 392.129C335.526 392.731 335.189 393.235 334.708 393.527Z" fill="white"/>
<path d="M267.125 468.13H241.284C239.747 468.13 238.5 466.884 238.5 465.347V439.504C238.5 437.967 239.747 436.721 241.284 436.721H267.125C268.662 436.721 269.909 437.967 269.909 439.504V465.347C269.909 466.884 268.663 468.13 267.125 468.13Z" fill="white"/>
<path d="M306.956 468.087H281.115C279.578 468.087 278.331 466.84 278.331 465.303V439.461C278.331 437.923 279.578 436.677 281.115 436.677H306.956C308.493 436.677 309.74 437.923 309.74 439.461V465.303C309.74 466.84 308.494 468.087 306.956 468.087Z" fill="white"/>
<path d="M346.786 468.043H320.945C319.408 468.043 318.161 466.796 318.161 465.259V439.417C318.161 437.879 319.408 436.633 320.945 436.633H346.786C348.323 436.633 349.57 437.879 349.57 439.417V465.259C349.57 466.796 348.324 468.043 346.786 468.043Z" fill="white"/>
<path d="M386.617 467.997H360.776C359.239 467.997 357.992 466.751 357.992 465.213V439.373C357.992 437.835 359.239 436.589 360.776 436.589H386.617C388.154 436.589 389.401 437.835 389.401 439.373V465.213C389.401 466.752 388.155 467.997 386.617 467.997Z" fill="white"/>
<path d="M426.448 467.953H400.607C399.07 467.953 397.823 466.707 397.823 465.169V439.327C397.823 437.79 399.07 436.543 400.607 436.543H426.448C427.985 436.543 429.232 437.79 429.232 439.327V465.169C429.232 466.707 427.985 467.953 426.448 467.953Z" fill="white"/>
<path d="M406.607 452.859C406.607 447.337 409.563 444.185 413.536 444.185C417.486 444.185 420.442 447.335 420.442 452.859C420.442 458.383 417.486 461.533 413.536 461.533C409.563 461.533 406.607 458.383 406.607 452.859ZM418.019 452.859C418.019 448.522 416.178 446.342 413.536 446.342C410.872 446.342 409.03 448.522 409.03 452.859C409.03 457.196 410.871 459.377 413.536 459.377C416.178 459.375 418.019 457.196 418.019 452.859Z" fill="#263238"/>
<path d="M260.513 452.642C260.513 458.432 257.243 461.533 252.494 461.533C250.896 461.533 249.369 461.219 248.278 460.539L249.199 458.651C250.095 459.231 251.234 459.45 252.47 459.45C255.911 459.45 258.091 457.295 258.091 453.054V452.449C257.098 453.926 255.306 454.677 253.197 454.677C249.83 454.677 247.407 452.666 247.407 449.542C247.407 446.271 250.023 444.186 253.392 444.186C257.946 444.185 260.513 447.238 260.513 452.642ZM257.533 449.42C257.533 447.674 256.128 446.149 253.488 446.149C251.283 446.149 249.757 447.433 249.757 449.444C249.757 451.43 251.235 452.714 253.609 452.714C255.935 452.714 257.533 451.285 257.533 449.42Z" fill="#263238"/>
<path d="M287.115 452.86C287.115 447.338 290.071 444.186 294.044 444.186C297.994 444.186 300.949 447.337 300.949 452.86C300.949 458.386 297.994 461.534 294.044 461.534C290.071 461.534 287.115 458.384 287.115 452.86ZM298.526 452.86C298.526 448.523 296.686 446.343 294.044 446.343C291.379 446.343 289.538 448.523 289.538 452.86C289.538 457.197 291.379 459.378 294.044 459.378C296.686 459.378 298.526 457.197 298.526 452.86Z" fill="#263238"/>
<path d="M339.993 459.231V461.339H327.806V459.691L334.712 453.03C336.504 451.285 336.844 450.219 336.844 449.153C336.844 447.409 335.609 446.343 333.234 446.343C331.417 446.343 329.939 446.924 328.897 448.185L327.251 446.756C328.559 445.132 330.811 444.186 333.453 444.186C336.989 444.186 339.267 446.003 339.267 448.911C339.267 450.559 338.782 452.037 336.48 454.242L331.295 459.233H339.993V459.231Z" fill="#263238"/>
<path d="M375.633 444.381V461.339H373.234V446.488H369.406V444.381H375.633Z" fill="#263238"/>
<g opacity="0.6">
<path d="M304.065 429.043V429.64H299.447V423.11H303.925V423.707H300.139V426.029H303.515V426.616H300.139V429.042H304.065V429.043Z" fill="white"/>
<path d="M310.061 426.796V429.641H309.399V426.861C309.399 425.826 308.858 425.293 307.926 425.293C306.871 425.293 306.209 425.946 306.209 427.066V429.641H305.547V424.734H306.181V425.638C306.535 425.042 307.199 424.697 308.047 424.697C309.241 424.695 310.061 425.387 310.061 426.796Z" fill="white"/>
<path d="M314.441 429.343C314.18 429.576 313.789 429.688 313.406 429.688C312.483 429.688 311.969 429.164 311.969 428.261V425.293H311.093V424.734H311.969V423.66H312.631V424.734H314.124V425.293H312.631V428.223C312.631 428.801 312.93 429.118 313.48 429.118C313.75 429.118 314.021 429.034 314.207 428.867L314.441 429.343Z" fill="white"/>
<path d="M319.739 427.393H315.633C315.708 428.418 316.492 429.099 317.565 429.099C318.161 429.099 318.694 428.884 319.067 428.456L319.44 428.884C319.002 429.408 318.321 429.688 317.547 429.688C316.017 429.688 314.973 428.643 314.973 427.187C314.973 425.732 315.989 424.697 317.37 424.697C318.752 424.697 319.749 425.714 319.749 427.187C319.748 427.243 319.739 427.317 319.739 427.393ZM315.633 426.897H319.113C319.029 425.937 318.329 425.264 317.368 425.264C316.417 425.264 315.717 425.937 315.633 426.897Z" fill="white"/>
<path d="M323.57 424.695V425.339C323.514 425.339 323.458 425.329 323.411 425.329C322.386 425.329 321.76 425.982 321.76 427.138V429.638H321.098V424.731H321.732V425.692C322.041 425.04 322.665 424.695 323.57 424.695Z" fill="white"/>
<path d="M331.402 424.734L328.949 430.228C328.537 431.19 328.015 431.497 327.316 431.497C326.859 431.497 326.42 431.347 326.122 431.049L326.43 430.555C326.672 430.797 326.971 430.928 327.325 430.928C327.763 430.928 328.061 430.723 328.341 430.107L328.556 429.632L326.363 424.734H327.053L328.901 428.903L330.748 424.734H331.402Z" fill="white"/>
<path d="M331.699 427.186C331.699 425.73 332.762 424.695 334.199 424.695C335.637 424.695 336.69 425.73 336.69 427.186C336.69 428.642 335.635 429.686 334.199 429.686C332.763 429.686 331.699 428.642 331.699 427.186ZM336.018 427.186C336.018 426.039 335.242 425.275 334.198 425.275C333.152 425.275 332.371 426.039 332.371 427.186C332.371 428.333 333.154 429.099 334.198 429.099C335.244 429.099 336.018 428.334 336.018 427.186Z" fill="white"/>
<path d="M342.462 424.734V429.641H341.828V428.745C341.483 429.343 340.849 429.688 340.064 429.688C338.815 429.688 337.993 428.988 337.993 427.579V424.734H338.657V427.514C338.657 428.558 339.197 429.091 340.13 429.091C341.157 429.091 341.8 428.429 341.8 427.309V424.734H342.462Z" fill="white"/>
<path d="M346.787 424.695V425.339C346.731 425.339 346.675 425.329 346.628 425.329C345.601 425.329 344.976 425.982 344.976 427.138V429.638H344.314V424.731H344.949V425.692C345.256 425.04 345.882 424.695 346.787 424.695Z" fill="white"/>
<path d="M350.057 426.375C350.057 424.472 351.513 423.054 353.489 423.054C355.449 423.054 356.914 424.464 356.914 426.375C356.914 428.288 355.449 429.696 353.489 429.696C351.513 429.696 350.057 428.278 350.057 426.375ZM356.224 426.375C356.224 424.817 355.057 423.67 353.491 423.67C351.913 423.67 350.739 424.817 350.739 426.375C350.739 427.933 351.913 429.08 353.491 429.08C355.057 429.08 356.224 427.933 356.224 426.375Z" fill="white"/>
<path d="M359.634 423.707H357.339V423.11H362.619V423.707H360.324V429.64H359.634V423.707Z" fill="white"/>
<path d="M368.829 425.349C368.829 426.74 367.821 427.579 366.16 427.579H364.407V429.641H363.716V423.112H366.16C367.821 423.11 368.829 423.949 368.829 425.349ZM368.138 425.349C368.138 424.305 367.448 423.708 366.141 423.708H364.406V426.973H366.141C367.448 426.972 368.138 426.375 368.138 425.349Z" fill="white"/>
</g>
<g opacity="0.6">
<path d="M307.954 485.128L308.225 484.598C308.691 485.055 309.522 485.391 310.38 485.391C311.601 485.391 312.133 484.878 312.133 484.234C312.133 482.443 308.111 483.543 308.111 481.128C308.111 480.166 308.857 479.337 310.518 479.337C311.255 479.337 312.019 479.551 312.543 479.915L312.31 480.465C311.75 480.101 311.096 479.924 310.518 479.924C309.325 479.924 308.792 480.455 308.792 481.109C308.792 482.901 312.813 481.818 312.813 484.197C312.813 485.159 312.049 485.979 310.378 485.979C309.399 485.977 308.439 485.632 307.954 485.128Z" fill="white"/>
<path d="M318.446 483.674H314.342C314.417 484.699 315.201 485.38 316.274 485.38C316.87 485.38 317.403 485.165 317.776 484.737L318.149 485.165C317.711 485.688 317.03 485.967 316.256 485.967C314.726 485.967 313.682 484.923 313.682 483.467C313.682 482.011 314.698 480.976 316.079 480.976C317.461 480.976 318.458 481.994 318.458 483.467C318.456 483.523 318.446 483.598 318.446 483.674ZM314.341 483.178H317.82C317.736 482.218 317.037 481.545 316.075 481.545C315.126 481.545 314.425 482.218 314.341 483.178Z" fill="white"/>
<path d="M324.321 483.076V485.921H323.659V483.141C323.659 482.106 323.118 481.573 322.186 481.573C321.131 481.573 320.469 482.226 320.469 483.346V485.921H319.807V481.014H320.441V481.918C320.795 481.321 321.458 480.976 322.307 480.976C323.499 480.976 324.321 481.668 324.321 483.076Z" fill="white"/>
<path d="M330.614 478.998V485.921H329.98V484.95C329.579 485.612 328.897 485.967 328.086 485.967C326.686 485.967 325.642 484.95 325.642 483.467C325.642 481.983 326.686 480.976 328.086 480.976C328.869 480.976 329.542 481.312 329.952 481.947V478.998H330.614ZM329.96 483.467C329.96 482.32 329.177 481.554 328.14 481.554C327.095 481.554 326.312 482.319 326.312 483.467C326.312 484.614 327.095 485.38 328.14 485.38C329.177 485.38 329.96 484.615 329.96 483.467Z" fill="white"/>
<path d="M338.604 482.88V485.921H337.97V485.156C337.671 485.66 337.093 485.967 336.281 485.967C335.171 485.967 334.489 485.388 334.489 484.541C334.489 483.785 334.974 483.15 336.383 483.15H337.94V482.85C337.94 482.011 337.465 481.554 336.551 481.554C335.917 481.554 335.32 481.778 334.918 482.132L334.62 481.638C335.114 481.219 335.841 480.976 336.616 480.976C337.886 480.976 338.604 481.612 338.604 482.88ZM337.942 484.447V483.646H336.402C335.451 483.646 335.143 484.019 335.143 484.522C335.143 485.092 335.6 485.445 336.385 485.445C337.131 485.445 337.681 485.091 337.942 484.447Z" fill="white"/>
<path d="M344.963 481.015V485.324C344.963 487.013 344.134 487.778 342.51 487.778C341.615 487.778 340.737 487.507 340.224 487.022L340.56 486.519C341.026 486.938 341.736 487.19 342.491 487.19C343.733 487.19 344.301 486.621 344.301 485.409V484.783C343.891 485.409 343.192 485.736 342.389 485.736C340.989 485.736 339.926 484.757 339.926 483.347C339.926 481.938 340.989 480.978 342.389 480.978C343.209 480.978 343.918 481.313 344.329 481.957V481.015H344.963ZM344.32 483.347C344.32 482.283 343.537 481.556 342.454 481.556C341.371 481.556 340.597 482.283 340.597 483.347C340.597 484.41 341.371 485.148 342.454 485.148C343.537 485.148 344.32 484.409 344.32 483.347Z" fill="white"/>
<path d="M350.52 482.88V485.921H349.886V485.156C349.587 485.66 349.009 485.967 348.197 485.967C347.087 485.967 346.405 485.388 346.405 484.541C346.405 483.785 346.89 483.15 348.299 483.15H349.856V482.85C349.856 482.011 349.381 481.554 348.466 481.554C347.832 481.554 347.234 481.778 346.833 482.132L346.534 481.638C347.029 481.219 347.756 480.976 348.531 480.976C349.802 480.976 350.52 481.612 350.52 482.88ZM349.858 484.447V483.646H348.318C347.367 483.646 347.059 484.019 347.059 484.522C347.059 485.092 347.516 485.445 348.301 485.445C349.047 485.445 349.597 485.091 349.858 484.447Z" fill="white"/>
<path d="M352.169 479.466C352.169 479.214 352.383 478.998 352.654 478.998C352.924 478.998 353.139 479.203 353.139 479.456C353.139 479.727 352.934 479.941 352.654 479.941C352.383 479.941 352.169 479.727 352.169 479.466ZM352.318 481.015H352.98V485.922H352.318V481.015Z" fill="white"/>
<path d="M359.341 483.076V485.921H358.679V483.141C358.679 482.106 358.138 481.573 357.206 481.573C356.152 481.573 355.489 482.226 355.489 483.346V485.921H354.827V481.014H355.461V481.918C355.815 481.321 356.479 480.976 357.327 480.976C358.519 480.976 359.341 481.668 359.341 483.076Z" fill="white"/>
</g>
<path opacity="0.4" d="M370.982 519.221H296.748C290.637 519.221 285.682 514.267 285.682 508.154C285.682 502.043 290.635 497.088 296.748 497.088H370.982C377.093 497.088 382.048 502.042 382.048 508.154C382.048 514.267 377.094 519.221 370.982 519.221Z" fill="white"/>
<path d="M304.913 507.588C304.913 505.385 306.595 503.776 308.864 503.776C310.015 503.776 311.015 504.17 311.697 504.938L311.004 505.608C310.429 505.002 309.727 504.725 308.906 504.725C307.223 504.725 305.977 505.938 305.977 507.588C305.977 509.239 307.223 510.453 308.906 510.453C309.727 510.453 310.429 510.166 311.004 509.558L311.697 510.23C311.015 510.996 310.015 511.4 308.853 511.4C306.595 511.4 304.913 509.793 304.913 507.588Z" fill="white"/>
<path d="M312.457 507.588C312.457 505.405 314.139 503.776 316.429 503.776C318.697 503.776 320.38 505.396 320.38 507.588C320.38 509.782 318.697 511.4 316.429 511.4C314.139 511.4 312.457 509.773 312.457 507.588ZM319.316 507.588C319.316 505.938 318.079 504.725 316.429 504.725C314.757 504.725 313.521 505.938 313.521 507.588C313.521 509.239 314.756 510.453 316.429 510.453C318.081 510.453 319.316 509.239 319.316 507.588Z" fill="white"/>
<path d="M328.427 503.861V511.317H327.553L323.08 505.757V511.317H322.015V503.861H322.888L327.361 509.421V503.861H328.427Z" fill="white"/>
<path d="M332.149 504.787H329.593V503.861H335.759V504.787H333.202V511.315H332.149V504.787Z" fill="white"/>
<path d="M336.922 503.861H337.987V511.317H336.922V503.861Z" fill="white"/>
<path d="M346.638 503.861V511.317H345.764L341.291 505.757V511.317H340.226V503.861H341.099L345.572 509.421V503.861H346.638Z" fill="white"/>
<path d="M348.814 508.1V503.861H349.88V508.057C349.88 509.708 350.635 510.453 351.978 510.453C353.321 510.453 354.088 509.708 354.088 508.057V503.861H355.12V508.1C355.12 510.262 353.939 511.402 351.967 511.402C350.008 511.4 348.814 510.262 348.814 508.1Z" fill="white"/>
<path d="M362.718 510.389V511.315H357.308V503.86H362.569V504.786H358.373V507.075H362.111V507.981H358.373V510.389H362.718Z" fill="white"/>
<path opacity="0.1" d="M462.92 335.45C419.352 379.1 307.449 476.244 180.653 469.062V335.45H462.92Z" fill="white"/>
<path opacity="0.1" d="M495.763 415.676V544.535H306.052C313.328 518.508 327.87 482.869 356.083 457.399C406.834 411.576 465.731 411.712 495.763 415.676Z" fill="white"/>
<path d="M535.841 314.892L540.259 334.423L544.679 314.892H535.841Z" fill="#407BFF"/>
<path opacity="0.7" d="M535.841 314.892L540.259 334.423L544.679 314.892H535.841Z" fill="white"/>
<path d="M589.744 319.218H490.774C484.454 319.218 479.33 314.094 479.33 307.774V271.045C479.33 264.725 484.454 259.601 490.774 259.601H589.744C596.065 259.601 601.189 264.725 601.189 271.045V307.774C601.189 314.094 596.065 319.218 589.744 319.218Z" fill="#407BFF"/>
<path opacity="0.7" d="M589.744 319.218H490.774C484.454 319.218 479.33 314.094 479.33 307.774V271.045C479.33 264.725 484.454 259.601 490.774 259.601H589.744C596.065 259.601 601.189 264.725 601.189 271.045V307.774C601.189 314.094 596.065 319.218 589.744 319.218Z" fill="white"/>
<g opacity="0.5">
<path d="M503.676 281.481V284.059H502.621V281.46L499.66 276.604H500.799L503.184 280.534L505.58 276.604H506.635L503.676 281.481Z" fill="#263238"/>
<path d="M506.405 281.238C506.405 279.554 507.65 278.362 509.345 278.362C511.037 278.362 512.274 279.555 512.274 281.238C512.274 282.92 511.039 284.124 509.345 284.124C507.652 284.123 506.405 282.92 506.405 281.238ZM511.24 281.238C511.24 280.033 510.431 279.257 509.345 279.257C508.259 279.257 507.438 280.035 507.438 281.238C507.438 282.44 508.259 283.229 509.345 283.229C510.431 283.229 511.24 282.44 511.24 281.238Z" fill="#263238"/>
<path d="M518.955 278.415V284.06H517.985V283.208C517.571 283.794 516.868 284.124 516.068 284.124C514.608 284.124 513.64 283.325 513.64 281.664V278.415H514.663V281.547C514.663 282.655 515.217 283.208 516.187 283.208C517.251 283.208 517.933 282.547 517.933 281.333V278.415H518.955Z" fill="#263238"/>
<path d="M523.943 278.362V279.353C523.858 279.342 523.783 279.342 523.709 279.342C522.611 279.342 521.931 280.012 521.931 281.248V284.06H520.908V278.415H521.888V279.363C522.249 278.701 522.952 278.362 523.943 278.362Z" fill="#263238"/>
<path d="M527.685 280.332C527.685 278.149 529.367 276.52 531.657 276.52C533.925 276.52 535.608 278.138 535.608 280.332C535.608 282.526 533.925 284.144 531.657 284.144C529.367 284.144 527.685 282.515 527.685 280.332ZM534.544 280.332C534.544 278.681 533.307 277.467 531.657 277.467C529.985 277.467 528.749 278.681 528.749 280.332C528.749 281.982 529.984 283.197 531.657 283.197C533.309 283.197 534.544 281.982 534.544 280.332Z" fill="#263238"/>
<path d="M538.617 277.531H536.061V276.604H542.228V277.531H539.672V284.059H538.617V277.531Z" fill="#263238"/>
<path d="M549.409 279.202C549.409 280.821 548.238 281.801 546.298 281.801H544.456V284.059H543.391V276.604H546.298C548.238 276.604 549.409 277.584 549.409 279.202ZM548.344 279.202C548.344 278.137 547.63 277.531 546.268 277.531H544.456V280.875H546.266C547.63 280.875 548.344 280.268 548.344 279.202Z" fill="#263238"/>
<path d="M553.345 280.332C553.345 278.127 555.027 276.52 557.295 276.52C558.446 276.52 559.447 276.913 560.129 277.68L559.436 278.351C558.861 277.745 558.159 277.468 557.338 277.468C555.654 277.468 554.409 278.683 554.409 280.333C554.409 281.984 555.654 283.198 557.338 283.198C558.159 283.198 558.861 282.911 559.436 282.303L560.129 282.975C559.447 283.742 558.446 284.145 557.285 284.145C555.027 284.144 553.345 282.536 553.345 280.332Z" fill="#263238"/>
<path d="M560.75 281.238C560.75 279.554 561.997 278.362 563.689 278.362C565.383 278.362 566.618 279.555 566.618 281.238C566.618 282.92 565.383 284.124 563.689 284.124C561.997 284.123 560.75 282.92 560.75 281.238ZM565.586 281.238C565.586 280.033 564.777 279.257 563.69 279.257C562.605 279.257 561.784 280.035 561.784 281.238C561.784 282.44 562.605 283.229 563.69 283.229C564.777 283.229 565.586 282.44 565.586 281.238Z" fill="#263238"/>
<path d="M573.365 276.157V284.06H572.384V283.166C571.926 283.806 571.203 284.124 570.372 284.124C568.721 284.124 567.517 282.963 567.517 281.238C567.517 279.513 568.72 278.362 570.372 278.362C571.171 278.362 571.873 278.66 572.343 279.268V276.159H573.365V276.157ZM572.352 281.238C572.352 280.033 571.532 279.257 570.457 279.257C569.371 279.257 568.551 280.035 568.551 281.238C568.551 282.44 569.371 283.229 570.457 283.229C571.532 283.229 572.352 282.44 572.352 281.238Z" fill="#263238"/>
<path d="M580.386 281.579H575.806C575.934 282.568 576.732 283.229 577.851 283.229C578.511 283.229 579.066 283.005 579.48 282.547L580.045 283.208C579.533 283.804 578.757 284.124 577.819 284.124C575.998 284.124 574.783 282.921 574.783 281.238C574.783 279.566 575.986 278.362 577.616 278.362C579.247 278.362 580.407 279.534 580.407 281.27C580.407 281.355 580.396 281.481 580.386 281.579ZM575.806 280.843H579.427C579.32 279.895 578.606 279.225 577.616 279.225C576.637 279.225 575.913 279.884 575.806 280.843Z" fill="#263238"/>
</g>
<g opacity="0.5">
<path d="M524.867 295.726C524.867 299.918 522.498 302.163 519.062 302.163C517.904 302.163 516.799 301.935 516.009 301.444L516.675 300.076C517.323 300.497 518.148 300.655 519.043 300.655C521.534 300.655 523.112 299.094 523.112 296.025V295.586C522.393 296.657 521.096 297.2 519.569 297.2C517.13 297.2 515.377 295.744 515.377 293.481C515.377 291.113 517.272 289.605 519.71 289.605C523.008 289.604 524.867 291.814 524.867 295.726ZM522.71 293.392C522.71 292.129 521.692 291.025 519.781 291.025C518.185 291.025 517.08 291.955 517.08 293.409C517.08 294.848 518.149 295.778 519.869 295.778C521.551 295.778 522.71 294.743 522.71 293.392Z" fill="#263238"/>
<path d="M526.554 295.883C526.554 291.884 528.695 289.604 531.572 289.604C534.43 289.604 536.571 291.884 536.571 295.883C536.571 299.882 534.43 302.162 531.572 302.162C528.695 302.163 526.554 299.883 526.554 295.883ZM534.817 295.883C534.817 292.743 533.483 291.165 531.572 291.165C529.642 291.165 528.308 292.745 528.308 295.883C528.308 299.022 529.642 300.601 531.572 300.601C533.483 300.602 534.817 299.022 534.817 295.883Z" fill="#263238"/>
<path d="M546.837 300.497V302.023H538.015V300.83L543.014 296.007C544.313 294.744 544.558 293.972 544.558 293.2C544.558 291.938 543.664 291.165 541.944 291.165C540.628 291.165 539.559 291.586 538.805 292.498L537.613 291.463C538.56 290.289 540.192 289.604 542.103 289.604C544.663 289.604 546.312 290.92 546.312 293.024C546.312 294.218 545.962 295.288 544.295 296.883L540.542 300.497H546.837Z" fill="#263238"/>
<path d="M552.085 289.744V302.022H550.348V291.27H547.576V289.744H552.085Z" fill="#263238"/>
<path d="M554.771 295.883C554.771 291.884 556.912 289.604 559.788 289.604C562.646 289.604 564.787 291.884 564.787 295.883C564.787 299.882 562.646 302.162 559.788 302.162C556.911 302.163 554.771 299.883 554.771 295.883ZM563.033 295.883C563.033 292.743 561.699 291.165 559.788 291.165C557.858 291.165 556.524 292.745 556.524 295.883C556.524 299.022 557.858 300.601 559.788 300.601C561.699 300.602 563.033 299.022 563.033 295.883Z" fill="#263238"/>
</g>
<path d="M529.307 372.175L530.68 373.08L532.191 374.046C533.213 374.685 534.263 375.294 535.32 375.891C537.439 377.079 539.59 378.222 541.793 379.228C546.201 381.243 550.73 382.872 555.337 383.908L555.553 383.96C555.63 383.979 555.722 383.999 555.638 383.985C555.57 383.983 555.489 383.985 555.308 383.989C554.996 384.009 554.389 384.095 553.66 384.536C552.938 384.97 552.463 385.656 552.304 386.041C552.126 386.448 552.138 386.641 552.144 386.664C552.18 386.749 552.23 386.395 552.212 386.005C552.2 385.6 552.146 385.107 552.063 384.589C551.699 382.479 551.048 380.056 550.283 377.69C548.762 372.92 546.953 368.016 545.159 363.201L550.298 360.441C553.379 364.894 556.122 369.439 558.537 374.378C559.707 376.875 560.868 379.383 561.708 382.375C561.916 383.133 562.108 383.927 562.25 384.823C562.382 385.73 562.51 386.696 562.366 388.08C562.293 388.751 562.14 389.588 561.677 390.584C561.24 391.558 560.337 392.775 559.051 393.547C557.76 394.334 556.483 394.535 555.524 394.571C555.015 394.591 554.607 394.559 554.214 394.515L553.816 394.463L553.55 394.423C547.838 393.648 542.31 392.096 537.133 389.892C534.539 388.795 531.987 387.62 529.532 386.256C528.311 385.564 527.097 384.855 525.901 384.103C525.304 383.723 524.702 383.349 524.111 382.94C523.502 382.522 522.969 382.143 522.257 381.609L529.307 372.175Z" fill="#DC897C"/>
<path d="M527.821 370.655C535.496 371.534 540.644 375.859 540.644 375.859L535.282 392.349C535.282 392.349 509.43 368.548 527.821 370.655Z" fill="#407BFF"/>
<path opacity="0.6" d="M527.77 384.578C531.433 388.811 535.274 392.345 535.274 392.345L537.479 385.569L540.641 375.864C540.641 375.864 535.493 371.527 527.826 370.656C516.515 369.363 521.923 377.853 527.77 384.578Z" fill="white"/>
<path opacity="0.2" d="M527.77 384.578C531.433 388.811 535.274 392.345 535.274 392.345L537.479 385.569C532.779 381.945 527.81 382.235 527.81 382.235C527.72 383.036 527.714 383.83 527.77 384.578Z" fill="black"/>
<path d="M470.279 346.327C470.279 346.327 457.892 387.519 483.984 393.046C510.077 398.572 512.814 379.619 512.814 379.619C512.814 379.619 491.44 347.166 470.279 346.327Z" fill="#263238"/>
<path d="M464.15 359.65C464.15 359.65 465.425 357.276 467.721 357.136" stroke="#263238" stroke-width="0.482" stroke-miterlimit="10" stroke-linecap="round" stroke-linejoin="round"/>
<path d="M467.881 365.084C467.881 365.084 467.598 367.882 466.807 369.78C466.807 369.78 468.049 370.669 469.534 369.83L467.881 365.084Z" fill="#DE5753"/>
<path d="M465.368 363.288C465.647 364.017 466.266 364.46 466.754 364.275C467.241 364.089 467.41 363.347 467.132 362.618C466.855 361.888 466.234 361.445 465.748 361.631C465.259 361.814 465.09 362.556 465.368 363.288Z" fill="#263238"/>
<path d="M465.963 361.588L464.138 361.569C464.138 361.569 465.436 362.604 465.963 361.588Z" fill="#263238"/>
<path d="M491.875 370.191C491.822 370.311 491.769 370.431 491.689 370.524C491.569 370.751 491.436 370.964 491.302 371.19C490.517 372.522 489.544 373.841 488.239 374.853C484.203 378.037 480.766 378.996 477.743 378.077C477.596 378.037 477.45 377.983 477.303 377.93C477.29 377.943 477.29 377.943 477.29 377.943C472.801 376.119 469.351 370.751 466.514 363.651C465.195 360.401 464.343 357.444 464.21 354.887C464.21 354.86 464.17 354.78 464.17 354.753C464.17 354.647 464.143 354.514 464.143 354.407C464.036 350.797 465.288 347.84 468.352 345.389C469.418 344.537 470.696 343.738 472.215 343.005C485.601 336.505 498.549 357.63 491.875 370.191Z" fill="#E4897B"/>
<path opacity="0.2" d="M491.302 371.19C490.517 372.522 489.544 373.841 488.239 374.853C484.203 378.037 480.766 378.996 477.743 378.077C480.194 377.424 483.124 376.119 485.322 373.481C486.76 371.79 488.945 371.204 491.302 371.19Z" fill="black"/>
<path d="M464.158 354.799C464.158 354.799 467.877 364.582 478.73 364.406C478.73 364.406 487.2 372.389 492.916 369.857C500.708 366.403 502.314 352.232 494.368 342.33C484.063 329.489 461.574 338.681 464.158 354.799Z" fill="#263238"/>
<path d="M472.924 363.839C472.231 362.366 472.246 359.335 474.691 358.589C477.222 357.817 481.294 363.032 476.093 367.086C475.345 367.668 474.368 366.911 472.924 363.839Z" fill="#E4897B"/>
<path d="M475.843 337.008C475.843 337.008 465.77 338.988 462.506 344.958C458.695 351.93 458.559 357.341 468.644 360.874C468.644 360.874 481.437 348.833 486.95 347.495C492.462 346.158 496.747 345.924 496.747 345.924C493.086 335.446 479.905 332.593 475.843 337.008Z" fill="#263238"/>
<path d="M485.604 375.112C485.604 375.112 492.531 379.913 494.337 387.818L515.931 375.222C515.931 375.222 499.025 371.362 496.116 364.825C496.114 364.825 484.824 366.229 485.604 375.112Z" fill="#E4897B"/>
<path d="M507.054 426.998C507.054 426.998 479.138 399.509 476.071 390.879C476.071 390.879 487.827 372.56 511.341 371.794C534.855 371.026 550.844 415.752 550.844 415.752L507.054 426.998Z" fill="#407BFF"/>
<path opacity="0.6" d="M550.843 415.759L507.06 427.001C507.06 427.001 500.959 420.994 494.14 413.721C492.035 411.443 489.837 409.046 487.719 406.675C482.165 400.374 477.263 394.221 476.078 390.877C476.078 390.877 487.826 372.562 511.336 371.79C534.859 371.03 550.843 415.759 550.843 415.759Z" fill="white"/>
<path d="M480.894 359.708C480.894 359.708 484.982 373.295 499.341 377.805C513.7 382.315 510.096 396.964 524.015 395.237C531.422 394.318 537.761 379.237 515.047 365.95C501.805 358.205 506.943 332.774 478.844 335.158C478.844 335.158 484.67 352.59 480.894 359.708Z" fill="#263238"/>
<path d="M494.87 634.091L488.216 632.577C489.217 599.306 494.023 559.005 498.277 528.758C498.946 524.016 499.593 519.534 500.222 515.357C500.525 513.371 500.809 511.463 501.09 509.626C502.466 500.557 503.645 493.388 504.377 488.956C504.916 485.724 505.223 483.949 505.223 483.949L529.163 489.802L527.448 495.844L521.785 515.793L521.143 518.075L517.391 531.245L511.025 553.672C511.449 587.543 494.87 634.091 494.87 634.091Z" fill="#E4897B"/>
<path d="M551.878 628.519L545.055 628.177C539.863 592.372 537.672 547.599 536.735 516.461C536.595 511.638 536.477 507.126 536.384 503.042C536.379 502.83 536.384 502.636 536.376 502.438C536.203 494.328 536.118 487.879 536.08 483.794C536.067 480.597 536.055 478.844 536.055 478.844L560.653 480.46L559.597 490.709L558.052 505.772L557.747 508.723L556.687 518.986L553.847 546.511C560.136 579.793 551.878 628.519 551.878 628.519Z" fill="#E4897B"/>
<path d="M554.43 627.195C554.41 626.342 543.914 627.01 543.914 627.01C543.914 627.01 537.456 633.578 531.184 635.054C524.91 636.53 528.417 640.294 535.428 640.294C542.439 640.294 547.79 640.294 552.772 640.294C557.751 640.296 554.638 636.052 554.43 627.195Z" fill="#263238"/>
<path d="M537.464 629.445C537.26 629.279 537.051 628.948 537.21 628.326C537.286 628.025 537.475 627.785 537.77 627.616C538.327 627.297 539.236 627.271 540.124 627.359C539.27 626.904 538.522 626.349 538.491 625.798C538.471 625.438 538.703 625.143 539.181 624.915C539.63 624.703 540.088 624.69 540.54 624.878C541.964 625.469 542.845 627.92 542.881 628.024C542.907 628.096 542.901 628.172 542.871 628.237C542.86 628.257 542.848 628.277 542.833 628.295C542.808 628.326 542.777 628.35 542.74 628.367C542.189 628.63 539.856 629.698 538.39 629.698C538.006 629.697 537.682 629.625 537.464 629.445ZM538.046 628.096C537.882 628.189 537.785 628.309 537.745 628.463C537.641 628.875 537.772 628.983 537.814 629.019C538.308 629.426 540.232 628.847 541.778 628.192C540.602 627.929 538.803 627.661 538.046 628.096ZM539.418 625.417C539.274 625.484 539.036 625.621 539.044 625.767C539.07 626.24 540.573 627.057 542.127 627.647C541.764 626.853 541.102 625.713 540.326 625.39C540.184 625.33 540.043 625.301 539.902 625.301C539.742 625.3 539.581 625.34 539.418 625.417Z" fill="#263238"/>
<path d="M498.25 627.195C498.23 626.342 487.732 627.01 487.732 627.01C487.732 627.01 481.275 633.578 475.003 635.054C468.729 636.53 472.235 640.294 479.246 640.294C486.258 640.294 491.609 640.294 496.589 640.294C501.572 640.296 498.458 636.052 498.25 627.195Z" fill="#263238"/>
<path d="M481.286 629.445C481.082 629.279 480.873 628.948 481.031 628.326C481.107 628.025 481.296 627.785 481.592 627.616C482.149 627.297 483.057 627.271 483.946 627.359C483.092 626.904 482.345 626.349 482.313 625.798C482.291 625.438 482.523 625.143 483.003 624.915C483.452 624.703 483.91 624.69 484.361 624.878C485.785 625.469 486.667 627.92 486.704 628.024C486.73 628.096 486.724 628.172 486.694 628.237C486.683 628.257 486.671 628.277 486.656 628.295H486.655C486.63 628.326 486.599 628.35 486.562 628.367C486.009 628.63 483.678 629.698 482.212 629.698C481.828 629.697 481.503 629.625 481.286 629.445ZM481.868 628.096C481.704 628.189 481.607 628.309 481.567 628.463C481.463 628.875 481.593 628.983 481.636 629.019C482.132 629.426 484.055 628.847 485.601 628.192C484.424 627.929 482.624 627.661 481.868 628.096ZM483.24 625.417C483.096 625.484 482.858 625.621 482.866 625.767C482.892 626.24 484.395 627.057 485.949 627.647C485.585 626.853 484.923 625.713 484.148 625.39C484.004 625.33 483.865 625.301 483.723 625.301C483.562 625.3 483.402 625.34 483.24 625.417Z" fill="#263238"/>
<path d="M501.374 493.961L507.055 454.037V427C522.013 415.755 550.844 415.755 550.844 415.755C550.844 415.755 573.005 446.478 562.235 497.055L534.427 501.117L532.649 491.686L529.162 501.117L501.374 493.961Z" fill="#263238"/>
<path opacity="0.2" d="M501.374 493.961L507.055 454.037V427C522.013 415.755 550.844 415.755 550.844 415.755C550.844 415.755 573.005 446.478 562.235 497.055L534.427 501.117L532.649 491.686L529.162 501.117L501.374 493.961Z" fill="white"/>
<path opacity="0.2" d="M532.65 491.684L538.006 475.048C538.006 475.048 543.629 473.344 550.844 462.179C550.844 462.179 549.593 481.181 532.65 491.684Z" fill="black"/>
<path opacity="0.2" d="M520.798 434.667L533.282 433.475C533.282 433.475 536.303 439.438 535.281 448.298L527.273 453.103L521.48 448.988C521.48 448.988 521.31 438.415 520.798 434.667Z" fill="black"/>
<path opacity="0.2" d="M550.844 431.599C550.844 431.599 553.171 436.88 554.534 444.378L558.964 446.252L561.35 443.287C561.35 443.287 559.729 434.583 557.003 430.323L550.844 431.599Z" fill="black"/>
<path d="M500.864 491.684L530.382 500.349L528.529 504.312L500.48 495.686L500.864 491.684Z" fill="#263238"/>
<path d="M533.282 499.775L533.768 503.417L562.712 499.775L563.16 495.174L533.282 499.775Z" fill="#263238"/>
<path d="M539.357 421.287C547.894 419.927 553.673 419.893 553.673 419.893L551.892 416.946C547.035 416.803 542.343 417.146 537.933 417.78L539.357 421.287Z" fill="#263238"/>
<path d="M512.803 424.952C508.989 426.603 506.783 427.851 506.783 427.851L506.808 431.487C508.955 430.396 511.118 429.411 513.275 428.516L512.803 424.952Z" fill="#263238"/>
<path d="M514.642 427.965C522.875 424.69 530.927 422.741 537.563 421.586L536.233 418.039C527.127 419.529 519.364 422.217 514.094 424.406L514.642 427.965Z" fill="#263238"/>
<path d="M434.619 438.392L427.055 435.355L425.777 442.494C425.777 442.494 432.599 446.633 435.438 441.708L434.619 438.392Z" fill="#E4897B"/>
<path d="M423.301 435.794L420.877 441.319L425.777 442.494L427.055 435.355L423.301 435.794Z" fill="#E4897B"/>
<path d="M550.73 361.656L549.831 353.555L542.936 355.803C542.936 355.803 542.513 363.771 548.196 363.944L550.73 361.656Z" fill="#E4897B"/>
<path d="M547.67 350.454L541.656 350.929L542.938 355.803L549.832 353.555L547.67 350.454Z" fill="#E4897B"/>
<path opacity="0.2" d="M494.139 413.721C492.035 411.443 489.837 409.046 487.719 406.675C486.907 401.72 486.387 397.364 486.387 397.364C486.387 397.364 494.699 402.905 494.139 413.721Z" fill="black"/>
<path d="M487.162 395.06C486.378 398.371 485.446 401.392 484.478 404.512C483.487 407.598 482.366 410.641 481.203 413.676C480.053 416.714 478.772 419.711 477.38 422.673C476.698 424.159 475.975 425.632 475.218 427.092C474.856 427.826 474.445 428.547 474.055 429.272L473.464 430.359L473.16 430.914C472.982 431.219 472.802 431.542 472.607 431.82C471.036 434.101 469.229 435.411 467.532 436.457C465.819 437.488 464.141 438.239 462.483 438.876C459.165 440.133 455.903 440.927 452.655 441.568C446.138 442.769 439.768 443.39 433.22 443.417L432.681 437.608C435.646 436.963 438.715 436.293 441.684 435.516C444.671 434.789 447.626 433.97 450.481 433.023C453.337 432.101 456.127 431.062 458.609 429.846C459.847 429.244 460.998 428.579 461.927 427.889C462.853 427.213 463.535 426.471 463.691 426.099C463.72 426.051 463.714 426.021 463.736 425.986L463.964 425.485L464.43 424.458C464.738 423.771 465.062 423.097 465.348 422.395C465.935 421.003 466.537 419.618 467.093 418.204C468.217 415.387 469.277 412.53 470.298 409.65C471.318 406.772 472.249 403.854 473.156 400.93C474.087 398.039 474.937 395.012 475.73 392.22L487.162 395.06Z" fill="#DC897C"/>
<path d="M480.647 385.024C474.125 389.28 470.638 400.369 469.534 405.794L483.069 415.754L489.899 409.096C492.669 393.804 483.112 383.415 480.647 385.024Z" fill="#407BFF"/>
<path opacity="0.6" d="M480.647 385.024C474.125 389.28 470.638 400.369 469.534 405.794L483.069 415.754L489.899 409.096C492.669 393.804 483.112 383.415 480.647 385.024Z" fill="white"/>
<path d="M546.7 364.261L537.042 365.289C536.498 365.347 536.043 364.885 536.025 364.257L535.442 343.779C535.425 343.15 535.851 342.595 536.394 342.536L546.053 341.508C546.596 341.449 547.052 341.913 547.069 342.54L547.652 363.018C547.67 363.646 547.243 364.203 546.7 364.261Z" fill="#263238"/>
<path opacity="0.6" d="M546.7 364.261L537.042 365.289C536.498 365.347 536.043 364.885 536.025 364.257L535.442 343.779C535.425 343.15 535.851 342.595 536.394 342.536L546.053 341.508C546.596 341.449 547.052 341.913 547.069 342.54L547.652 363.018C547.67 363.646 547.243 364.203 546.7 364.261Z" fill="white"/>
<path d="M545.85 364.35L536.192 365.379C535.649 365.436 535.193 364.974 535.176 364.346L534.592 343.868C534.575 343.24 535.001 342.684 535.545 342.625L545.203 341.597C545.746 341.539 546.202 342.002 546.219 342.629L546.803 363.108C546.821 363.736 546.395 364.293 545.85 364.35Z" fill="#263238"/>
<path opacity="0.7" d="M545.85 364.35L536.192 365.379C535.649 365.436 535.193 364.974 535.176 364.346L534.592 343.868C534.575 343.24 535.001 342.684 535.545 342.625L545.203 341.597C545.746 341.539 546.202 342.002 546.219 342.629L546.803 363.108C546.821 363.736 546.395 364.293 545.85 364.35Z" fill="white"/>
<path d="M545.215 341.997L542.689 342.266L542.364 343.045L538.451 343.462L538.083 342.757L535.558 343.026C535.206 343.064 534.928 343.426 534.94 343.832L535.523 364.31C535.535 364.718 535.831 365.018 536.184 364.98L545.842 363.952C546.194 363.915 546.471 363.553 546.46 363.146L545.877 342.668C545.864 342.261 545.567 341.959 545.215 341.997Z" fill="#407BFF"/>
<path opacity="0.8" d="M543.923 349.397L536.818 350.154C536.472 350.191 536.181 349.897 536.171 349.496L536.115 347.521C536.103 347.121 536.374 346.767 536.721 346.729L543.826 345.973C544.172 345.935 544.462 346.23 544.473 346.631L544.529 348.606C544.541 349.006 544.269 349.36 543.923 349.397Z" fill="white"/>
</svg>
