<svg width="405" height="405" viewBox="0 0 405 405" fill="none" xmlns="http://www.w3.org/2000/svg">
<path d="M405 309.742H0V309.945H405V309.742Z" fill="#EBEBEB"/>
<path d="M364.42 322.78H337.591V322.983H364.42V322.78Z" fill="#EBEBEB"/>
<path d="M268.288 324.979H261.247V325.181H268.288V324.979Z" fill="#EBEBEB"/>
<path d="M336.78 315.258H321.234V315.461H336.78V315.258Z" fill="#EBEBEB"/>
<path d="M77.4785 316.619H42.4922V316.822H77.4785V316.619Z" fill="#EBEBEB"/>
<path d="M89.8202 316.619H84.6904V316.822H89.8202V316.619Z" fill="#EBEBEB"/>
<path d="M182.369 320.04H106.491V320.242H182.369V320.04Z" fill="#EBEBEB"/>
<path d="M191.981 273.618H35.5707C33.0217 273.618 30.9473 271.544 30.9473 268.995V49.1346C30.9473 46.5855 33.0217 44.5111 35.5707 44.5111H191.981C194.529 44.5111 196.604 46.5855 196.604 49.1346V268.995C196.604 271.544 194.529 273.618 191.981 273.618ZM35.5707 44.7144C33.1326 44.7144 31.1498 46.6973 31.1498 49.1354V268.995C31.1498 271.433 33.1326 273.416 35.5707 273.416H191.981C194.418 273.416 196.401 271.433 196.401 268.995V49.1346C196.401 46.6973 194.418 44.7136 191.981 44.7136L35.5707 44.7144Z" fill="#EBEBEB"/>
<path d="M367.181 273.618H210.772C208.223 273.618 206.149 271.544 206.149 268.995V49.1346C206.149 46.5855 208.224 44.5111 210.772 44.5111H367.181C369.731 44.5111 371.805 46.5855 371.805 49.1346V268.995C371.806 271.544 369.731 273.618 367.181 273.618ZM210.772 44.7144C208.335 44.7144 206.352 46.6973 206.352 49.1354V268.995C206.352 271.433 208.335 273.416 210.772 273.416H367.181C369.62 273.416 371.602 271.433 371.602 268.995V49.1346C371.602 46.6973 369.62 44.7136 367.181 44.7136L210.772 44.7144Z" fill="#EBEBEB"/>
<path d="M234.649 140.987H346.252V67.9033L234.649 67.9033V140.987Z" fill="#E6E6E6"/>
<path d="M231.245 140.987H344.661V67.9033L231.245 67.9033V140.987Z" fill="#F0F0F0"/>
<path d="M234.649 155.33H346.252V140.987H234.649V155.33Z" fill="#E6E6E6"/>
<path d="M225.572 155.33H338.988V140.987H225.572V155.33Z" fill="#F0F0F0"/>
<path d="M339.895 136.22V72.6709L236.013 72.6709V136.22L339.895 136.22Z" fill="#FAFAFA"/>
<path d="M316.469 136.221L303.201 72.6716H282.497L295.765 136.221H316.469Z" fill="white"/>
<path d="M337.687 131.475C337.875 131.475 338.028 131.323 338.028 131.135V75.7731C338.028 75.5852 337.875 75.4329 337.687 75.4329C337.499 75.4329 337.346 75.5852 337.346 75.7731V131.135C337.346 131.323 337.499 131.475 337.687 131.475Z" fill="#F0F0F0"/>
<path d="M291.317 136.221L278.049 72.6716H269.977L283.245 136.221H291.317Z" fill="white"/>
<path d="M236.618 136.22V72.6709H236.013V136.22H236.618Z" fill="#E6E6E6"/>
<path opacity="0.6" d="M230.117 79.8587H341.72L342.158 74.524H230.555L230.117 79.8587Z" fill="#EBEBEB"/>
<path opacity="0.6" d="M230.117 88.6083H341.72L342.158 83.2737H230.555L230.117 88.6083Z" fill="#EBEBEB"/>
<path opacity="0.6" d="M230.117 97.358H341.72L342.158 92.0233H230.555L230.117 97.358Z" fill="#EBEBEB"/>
<path opacity="0.6" d="M230.117 106.108H341.72L342.158 100.773H230.555L230.117 106.108Z" fill="#EBEBEB"/>
<path opacity="0.6" d="M230.117 114.857H341.72L342.158 109.523H230.555L230.117 114.857Z" fill="#EBEBEB"/>
<path opacity="0.6" d="M230.117 123.607H341.72L342.158 118.272H230.555L230.117 123.607Z" fill="#EBEBEB"/>
<path d="M330.227 256.593H306.827V261.206H330.227V256.593Z" fill="#E6E6E6"/>
<path d="M262.689 309.743H267.009V203.58H262.689V309.743Z" fill="#E6E6E6"/>
<path d="M247.726 261.207H306.826V256.593H247.726V261.207Z" fill="#F5F5F5"/>
<path d="M330.227 281.838H306.827V286.452H330.227V281.838Z" fill="#E6E6E6"/>
<path d="M247.726 286.451H306.826V281.837H247.726V286.451Z" fill="#F5F5F5"/>
<path d="M330.227 206.103H306.827V210.717H330.227V206.103Z" fill="#E6E6E6"/>
<path d="M247.726 210.716H306.826V206.102H247.726V210.716Z" fill="#F5F5F5"/>
<path d="M330.227 231.348H306.827V235.962H330.227V231.348Z" fill="#E6E6E6"/>
<path d="M247.726 235.961H306.826V231.347H247.726V235.961Z" fill="#F5F5F5"/>
<path d="M321.79 309.743H326.109V203.58H321.79V309.743Z" fill="#E6E6E6"/>
<path d="M302.507 309.743H306.827V203.58H302.507V309.743Z" fill="#F5F5F5"/>
<path d="M247.726 309.743H252.046V203.58H247.726V309.743Z" fill="#F5F5F5"/>
<path d="M52.952 309.743H97.1602L97.1602 223.971H52.952L52.952 309.743Z" fill="#E6E6E6"/>
<path d="M64.7581 309.743H52.9531V297.903H77.1349L64.7581 309.743Z" fill="#FAFAFA"/>
<path d="M173.488 309.743H217.696V223.971H173.488V309.743Z" fill="#E6E6E6"/>
<path d="M52.9525 305.668H183.791V223.97H52.9525V305.668Z" fill="#FAFAFA"/>
<path d="M171.986 309.743H183.791V297.903H159.608L171.986 309.743Z" fill="#FAFAFA"/>
<path d="M62.1101 274.859H174.633V254.413H62.1101V274.859Z" fill="#F0F0F0"/>
<path d="M62.1101 299.673H174.633V279.228H62.1101V299.673Z" fill="#F0F0F0"/>
<path d="M83.4976 256.6H153.245C155.292 256.6 156.952 254.94 156.952 252.893V252.643H79.791V252.893C79.791 254.94 81.4507 256.6 83.4976 256.6Z" fill="#FAFAFA"/>
<path d="M62.1101 250.044H174.633V229.599H62.1101V250.044Z" fill="#F0F0F0"/>
<path d="M83.4976 231.785H153.245C155.292 231.785 156.952 230.125 156.952 228.077V227.828H79.791V228.077C79.791 230.125 81.4507 231.785 83.4976 231.785Z" fill="#FAFAFA"/>
<path d="M83.4976 281.414H153.245C155.292 281.414 156.952 279.755 156.952 277.708V277.458H79.791V277.708C79.791 279.755 81.4507 281.414 83.4976 281.414Z" fill="#FAFAFA"/>
<path d="M59.995 140.987H171.598V67.9033L59.995 67.9033L59.995 140.987Z" fill="#E6E6E6"/>
<path d="M56.5906 140.987H170.007V67.9033L56.5906 67.9033L56.5906 140.987Z" fill="#F0F0F0"/>
<path d="M59.995 155.33H171.598V140.987H59.995V155.33Z" fill="#E6E6E6"/>
<path d="M50.9168 155.33H164.333V140.987H50.9168V155.33Z" fill="#F0F0F0"/>
<path d="M165.239 136.221V72.6713L61.3576 72.6713L61.3576 136.221L165.239 136.221Z" fill="#FAFAFA"/>
<path d="M141.815 136.221L128.546 72.6716H107.842L121.11 136.221H141.815Z" fill="white"/>
<path d="M163.031 131.475C163.219 131.475 163.372 131.323 163.372 131.135V75.7731C163.372 75.5852 163.219 75.4329 163.031 75.4329C162.844 75.4329 162.69 75.5852 162.69 75.7731V131.135C162.691 131.323 162.844 131.475 163.031 131.475Z" fill="#F0F0F0"/>
<path d="M116.663 136.221L103.394 72.6716H95.3223L108.591 136.221H116.663Z" fill="white"/>
<path d="M61.9629 136.221L61.9629 72.6713H61.3578L61.3578 136.221H61.9629Z" fill="#E6E6E6"/>
<path opacity="0.6" d="M55.4619 79.8587H167.065L167.504 74.524H55.9009L55.4619 79.8587Z" fill="#EBEBEB"/>
<path opacity="0.6" d="M55.4619 82.8687H167.065L167.504 77.5332H55.9009L55.4619 82.8687Z" fill="#EBEBEB"/>
<path opacity="0.6" d="M55.4619 85.8778H167.065L167.504 80.5432H55.9009L55.4619 85.8778Z" fill="#EBEBEB"/>
<path opacity="0.6" d="M55.4619 88.8878H167.065L167.504 83.5523H55.9009L55.4619 88.8878Z" fill="#EBEBEB"/>
<path opacity="0.6" d="M55.4619 91.8969H167.065L167.504 86.5623H55.9009L55.4619 91.8969Z" fill="#EBEBEB"/>
<path opacity="0.6" d="M55.4619 94.9061H167.065L167.504 89.5714H55.9009L55.4619 94.9061Z" fill="#EBEBEB"/>
<path d="M77.7709 221.35H81.6289V178.345H77.7709V221.35Z" fill="#F5F5F5"/>
<path d="M78.268 221.32H79.3574V178.315H78.268V221.32Z" fill="#FAFAFA"/>
<path d="M79.8134 221.32H80.2402V178.315H79.8134V221.32Z" fill="#FAFAFA"/>
<path d="M65.418 223.971H93.9818C93.9818 221.983 92.3707 220.372 90.383 220.372H69.0168C67.0291 220.372 65.418 221.983 65.418 223.971Z" fill="#F0F0F0"/>
<path d="M72.766 205.042C73.3767 205.042 73.8757 204.542 73.8757 203.932V175.736C73.8757 175.126 73.3759 174.626 72.766 174.626C72.1552 174.626 71.6562 175.126 71.6562 175.736V203.932C71.6563 204.543 72.1552 205.042 72.766 205.042Z" fill="#F0F0F0"/>
<path d="M62.4297 188.567H96.9697L92.9967 164.43H66.4027L62.4297 188.567Z" fill="#E0E0E0"/>
<path d="M202.5 346.324C289.237 346.324 359.55 342.218 359.55 337.153C359.55 332.087 289.237 327.981 202.5 327.981C115.764 327.981 45.4502 332.087 45.4502 337.153C45.4502 342.218 115.764 346.324 202.5 346.324Z" fill="#F5F5F5"/>
<path d="M84.3274 163.912L83.5195 163.97L84.5948 178.907L85.4027 178.849L84.3274 163.912Z" fill="#407BFF"/>
<path d="M85.9729 186.556L85.165 186.614L85.5701 192.233L86.378 192.175L85.9729 186.556Z" fill="#407BFF"/>
<path d="M273.546 255.28H100.078C96.1544 255.28 92.7136 252.07 92.4309 248.147L83.9072 129.781C83.6245 125.858 86.6037 122.648 90.5274 122.648H263.995C267.919 122.648 271.36 125.858 271.643 129.781L280.166 248.147C280.448 252.07 277.47 255.28 273.546 255.28Z" fill="#407BFF"/>
<path d="M274.211 255.28H100.743C96.8195 255.28 93.3786 252.07 93.0959 248.147L84.5723 129.781C84.2896 125.858 87.2688 122.648 91.1924 122.648H264.66C268.584 122.648 272.025 125.858 272.308 129.781L280.831 248.147C281.113 252.07 278.135 255.28 274.211 255.28Z" fill="#407BFF"/>
<path opacity="0.5" d="M274.211 255.28H100.743C96.8195 255.28 93.3786 252.07 93.0959 248.147L84.5723 129.781C84.2896 125.858 87.2688 122.648 91.1924 122.648H264.66C268.584 122.648 272.025 125.858 272.308 129.781L280.831 248.147C281.113 252.07 278.135 255.28 274.211 255.28Z" fill="white"/>
<path d="M264.917 126.215H91.449C91.253 126.215 91.0594 126.223 90.8682 126.239C86.4343 126.604 87.3399 133.349 91.8151 133.349H265.579C270.054 133.349 269.988 126.604 265.502 126.239C265.308 126.223 265.113 126.215 264.917 126.215Z" fill="#407BFF"/>
<path d="M95.9674 129.782C96.0322 130.685 95.3535 131.418 94.4495 131.418C93.5463 131.418 92.7615 130.685 92.6967 129.782C92.6319 128.879 93.3106 128.147 94.2146 128.147C95.1186 128.147 95.9026 128.878 95.9674 129.782Z" fill="#FAFAFA"/>
<path d="M101.531 129.782C101.596 130.685 100.917 131.418 100.013 131.418C99.1098 131.418 98.3249 130.685 98.2601 129.782C98.1953 128.879 98.8741 128.147 99.7781 128.147C100.681 128.147 101.466 128.878 101.531 129.782Z" fill="#FAFAFA"/>
<path d="M107.093 129.782C107.158 130.685 106.478 131.418 105.575 131.418C104.672 131.418 103.887 130.685 103.822 129.782C103.757 128.879 104.436 128.147 105.34 128.147C106.243 128.147 107.028 128.878 107.093 129.782Z" fill="#FAFAFA"/>
<path d="M269.612 243.467H103.641C102.213 243.467 100.971 242.309 100.868 240.881L93.8584 143.541C93.7555 142.113 94.8304 140.955 96.2584 140.955H262.23C263.658 140.955 264.9 142.112 265.002 143.541L272.012 240.881C272.115 242.309 271.04 243.467 269.612 243.467Z" fill="white"/>
<path d="M199.689 206.386L196.988 168.868L188.801 163.94H166.279L169.336 206.386H199.689Z" fill="white"/>
<path d="M199.689 206.779H169.336C169.13 206.779 168.959 206.621 168.945 206.415L165.888 163.968C165.88 163.86 165.918 163.752 165.992 163.673C166.067 163.593 166.17 163.548 166.28 163.548H188.801C188.872 163.548 188.943 163.567 189.004 163.605L197.19 168.532C197.3 168.597 197.37 168.713 197.379 168.84L200.08 206.358C200.088 206.467 200.05 206.574 199.976 206.654C199.902 206.734 199.798 206.779 199.689 206.779ZM169.701 205.994H199.267L196.61 169.1L188.692 164.333H166.701L169.701 205.994Z" fill="#407BFF"/>
<path d="M196.988 168.868L188.801 163.94L191.807 170.469L196.988 168.868Z" fill="#EBEBEB"/>
<path d="M191.807 170.861C191.657 170.861 191.516 170.774 191.45 170.632L188.444 164.104C188.372 163.948 188.41 163.763 188.539 163.648C188.667 163.533 188.856 163.515 189.003 163.604L197.19 168.532C197.323 168.611 197.396 168.762 197.377 168.916C197.358 169.07 197.251 169.198 197.103 169.243L191.922 170.844C191.884 170.855 191.845 170.861 191.807 170.861ZM189.691 164.934L192.02 169.991L196.034 168.751L189.691 164.934Z" fill="#407BFF"/>
<path d="M178.985 183.064C179.053 184.011 178.341 184.779 177.393 184.779C176.445 184.779 175.623 184.011 175.555 183.064C175.487 182.117 176.199 181.349 177.146 181.349C178.093 181.349 178.917 182.117 178.985 183.064Z" fill="#407BFF"/>
<path d="M190.112 183.064C190.18 184.011 189.468 184.779 188.52 184.779C187.573 184.779 186.75 184.011 186.681 183.064C186.613 182.117 187.325 181.349 188.273 181.349C189.221 181.35 190.044 182.117 190.112 183.064Z" fill="#407BFF"/>
<path d="M193.25 194.185C193.046 194.185 192.874 194.027 192.859 193.821C192.66 191.064 188.337 188.821 183.22 188.821C179.83 188.821 176.787 189.828 175.277 191.451C174.605 192.172 174.295 192.95 174.354 193.764C174.369 193.98 174.206 194.168 173.99 194.184C173.773 194.198 173.586 194.036 173.57 193.82C173.497 192.795 173.888 191.79 174.702 190.915C176.355 189.138 179.619 188.035 183.22 188.035C188.832 188.035 193.41 190.552 193.642 193.763C193.657 193.98 193.495 194.168 193.278 194.183C193.269 194.185 193.259 194.185 193.25 194.185Z" fill="#407BFF"/>
<path d="M172.665 179.591C172.57 179.591 172.474 179.556 172.398 179.486C172.239 179.339 172.23 179.09 172.377 178.931L174.097 177.078C174.245 176.919 174.494 176.91 174.652 177.057C174.811 177.205 174.82 177.453 174.673 177.612L172.954 179.465C172.876 179.549 172.771 179.591 172.665 179.591Z" fill="#407BFF"/>
<path d="M192.443 179.591C192.348 179.591 192.251 179.556 192.175 179.485L190.188 177.632C190.029 177.485 190.021 177.236 190.169 177.077C190.316 176.919 190.565 176.91 190.724 177.058L192.711 178.911C192.869 179.059 192.877 179.307 192.73 179.466C192.653 179.549 192.549 179.591 192.443 179.591Z" fill="#407BFF"/>
<path d="M163.828 214.774H165.659L168.3 218.284L168.047 214.774H169.895L170.352 221.119H168.503L165.877 217.635L166.128 221.119H164.284L163.828 214.774Z" fill="#407BFF"/>
<path d="M171.181 217.95C171.106 216.914 171.336 216.108 171.872 215.53C172.408 214.954 173.191 214.665 174.221 214.665C175.277 214.665 176.11 214.948 176.723 215.515C177.335 216.082 177.678 216.876 177.751 217.897C177.805 218.638 177.724 219.247 177.508 219.721C177.293 220.196 176.959 220.565 176.506 220.829C176.054 221.094 175.475 221.226 174.771 221.226C174.056 221.226 173.455 221.111 172.97 220.884C172.485 220.656 172.079 220.295 171.752 219.802C171.424 219.309 171.234 218.692 171.181 217.95ZM173.142 217.959C173.188 218.6 173.34 219.06 173.598 219.339C173.856 219.619 174.19 219.759 174.6 219.759C175.021 219.759 175.337 219.622 175.548 219.347C175.76 219.073 175.839 218.581 175.788 217.871C175.745 217.274 175.593 216.838 175.332 216.562C175.071 216.287 174.734 216.149 174.322 216.149C173.927 216.149 173.62 216.289 173.4 216.569C173.181 216.85 173.096 217.312 173.142 217.959Z" fill="#407BFF"/>
<path d="M181.563 214.774H184.476C185.051 214.774 185.52 214.852 185.885 215.007C186.249 215.163 186.558 215.386 186.81 215.678C187.062 215.969 187.254 216.308 187.385 216.695C187.517 217.082 187.598 217.491 187.63 217.924C187.678 218.602 187.639 219.128 187.511 219.502C187.384 219.875 187.192 220.189 186.936 220.441C186.68 220.693 186.398 220.861 186.09 220.945C185.669 221.06 185.283 221.118 184.934 221.118H182.021L181.563 214.774ZM183.627 216.211L183.877 219.678H184.357C184.767 219.678 185.055 219.632 185.221 219.542C185.388 219.451 185.512 219.292 185.594 219.065C185.676 218.838 185.699 218.472 185.662 217.964C185.613 217.291 185.471 216.831 185.234 216.583C184.996 216.336 184.624 216.212 184.116 216.212H183.627V216.211Z" fill="#407BFF"/>
<path d="M192.333 220.071H190.107L189.873 221.118H187.871L189.799 214.773H191.937L194.778 221.118H192.725L192.333 220.071ZM191.827 218.699L190.962 216.418L190.433 218.699H191.827Z" fill="#407BFF"/>
<path d="M193.889 214.774H199.848L199.96 216.34H197.961L198.306 221.119H196.345L196.001 216.34H194.002L193.889 214.774Z" fill="#407BFF"/>
<path d="M204.416 220.071H202.19L201.956 221.118H199.954L201.882 214.773H204.02L206.861 221.118H204.808L204.416 220.071ZM203.91 218.699L203.046 216.418L202.517 218.699H203.91Z" fill="#407BFF"/>
<path d="M286.487 140.195C287.211 139.832 288.074 139.363 288.872 138.925C289.684 138.478 290.493 138.013 291.288 137.528C292.875 136.551 294.475 135.586 295.993 134.513C299.056 132.403 301.926 130.062 304.508 127.505C304.847 127.195 305.134 126.852 305.447 126.524L305.909 126.029L306.14 125.781L306.256 125.657C306.287 125.625 306.28 125.631 306.265 125.65L306.239 125.69C306.124 125.906 306.22 125.841 306.264 125.632C306.319 125.431 306.364 125.103 306.378 124.748C306.43 123.277 306.14 121.423 305.788 119.631C305.067 115.998 303.975 112.261 302.896 108.6L306.043 107.22C308.015 110.74 309.657 114.336 310.995 118.234C311.631 120.209 312.216 122.192 312.387 124.627C312.419 125.248 312.432 125.9 312.32 126.661C312.201 127.409 312.012 128.305 311.329 129.321L311.194 129.508L311.089 129.644L310.965 129.796L310.715 130.099L310.215 130.706C309.878 131.107 309.557 131.529 309.198 131.904C306.405 135.005 303.298 137.745 299.981 140.127C298.33 141.333 296.644 142.478 294.892 143.521C294.02 144.049 293.136 144.556 292.237 145.048C291.328 145.553 290.463 145.993 289.429 146.478L286.487 140.195Z" fill="#FFB573"/>
<path d="M279.283 330.624C279.91 330.624 280.595 330.495 281.074 330.381C281.136 330.367 281.184 330.316 281.196 330.252C281.207 330.189 281.179 330.125 281.126 330.09C280.893 329.937 278.834 328.608 278.044 328.965C277.919 329.022 277.763 329.146 277.724 329.417C277.673 329.777 277.763 330.064 277.99 330.271C278.28 330.535 278.761 330.624 279.283 330.624ZM280.62 330.152C279.439 330.388 278.55 330.347 278.207 330.034C278.061 329.901 278.007 329.714 278.042 329.462C278.061 329.327 278.124 329.282 278.176 329.259C278.591 329.071 279.78 329.644 280.62 330.152Z" fill="#407BFF"/>
<path d="M281.038 330.386C281.065 330.386 281.094 330.379 281.119 330.364C281.168 330.335 281.199 330.282 281.199 330.225C281.199 330.142 281.19 328.188 280.452 327.536C280.256 327.362 280.028 327.29 279.772 327.321C279.369 327.37 279.261 327.623 279.231 327.769C279.078 328.534 280.311 329.997 280.959 330.364C280.983 330.379 281.01 330.386 281.038 330.386ZM279.884 327.635C280.016 327.635 280.132 327.681 280.239 327.776C280.68 328.166 280.831 329.263 280.868 329.913C280.222 329.398 279.454 328.298 279.547 327.832C279.562 327.756 279.606 327.665 279.811 327.64C279.835 327.637 279.859 327.635 279.884 327.635Z" fill="#407BFF"/>
<path d="M280.441 119.934C279.652 123.96 277.988 132.114 280.806 134.801C280.806 134.801 279.705 138.885 272.224 138.885C263.999 138.885 268.293 134.802 268.293 134.802C272.783 133.729 272.667 130.399 271.885 127.27L280.441 119.934Z" fill="#FFB573"/>
<path d="M266.72 136.423C265.429 136.598 266.527 133.254 267.052 132.907C268.264 132.106 283.941 130.972 283.839 132.875C283.775 133.694 283.39 135.292 282.705 135.835C282.018 136.377 277.991 134.737 266.72 136.423Z" fill="#263238"/>
<path d="M269.275 135.298C268.249 135.644 268.346 132.274 268.695 131.868C269.504 130.93 282.193 127.67 282.57 129.514C282.715 130.31 282.785 131.901 282.35 132.519C281.915 133.136 278.186 132.115 269.275 135.298Z" fill="#263238"/>
<path d="M264.554 112.677C264.454 112.683 264.354 112.643 264.286 112.56C263.379 111.45 262.199 111.564 262.188 111.565C262.009 111.584 261.853 111.457 261.834 111.28C261.815 111.104 261.943 110.945 262.119 110.926C262.181 110.92 263.658 110.776 264.784 112.153C264.897 112.29 264.876 112.493 264.739 112.605C264.684 112.65 264.62 112.673 264.554 112.677Z" fill="#263238"/>
<path d="M262.985 116.641C262.985 116.641 262.291 119.076 261.385 120.308C262.17 120.908 263.362 120.481 263.362 120.481L262.985 116.641Z" fill="#FF5652"/>
<path d="M263.38 115.657C263.433 116.201 263.188 116.671 262.832 116.706C262.476 116.741 262.145 116.328 262.09 115.784C262.037 115.24 262.282 114.77 262.638 114.734C262.994 114.699 263.326 115.112 263.38 115.657Z" fill="#263238"/>
<path d="M262.799 114.749L261.454 114.5C261.454 114.5 262.226 115.457 262.799 114.749Z" fill="#263238"/>
<path d="M288.927 330.225H282.143L282.675 314.513H289.459L288.927 330.225Z" fill="#FFB573"/>
<path d="M281.605 329.44H289.228C289.505 329.44 289.73 329.633 289.769 329.903L290.637 335.934C290.727 336.559 290.189 337.151 289.549 337.141C286.892 337.095 285.611 336.939 282.259 336.939C280.197 336.939 277.184 337.153 274.337 337.153C271.551 337.153 271.337 334.336 272.523 334.082C277.84 332.938 278.68 331.361 280.471 329.857C280.794 329.586 281.2 329.44 281.605 329.44Z" fill="#263238"/>
<g opacity="0.2">
<path d="M289.461 314.517H282.673L282.402 322.617H289.19L289.461 314.517Z" fill="black"/>
</g>
<path d="M261.933 144.216C257.735 142.572 253.73 140.784 249.743 138.745C245.762 136.708 241.842 134.538 238.075 131.639C237.138 130.901 236.21 130.094 235.304 129.152C235.078 128.909 234.852 128.684 234.63 128.405C234.396 128.112 234.221 127.939 233.918 127.489C233.37 126.702 232.947 125.645 232.834 124.566C232.728 123.486 232.921 122.455 233.232 121.633C233.541 120.796 233.947 120.113 234.371 119.521C235.223 118.335 236.166 117.459 237.116 116.67C239.014 115.099 241.021 113.957 243.032 112.89C244.036 112.357 245.06 111.876 246.097 111.434C247.139 110.985 248.155 110.567 249.261 110.186L250.699 113.307C247.165 115.534 243.506 117.981 240.815 120.726C240.161 121.405 239.589 122.116 239.23 122.743C238.844 123.38 238.849 123.857 238.915 123.821C238.948 123.821 238.935 123.806 239.029 123.9L239.351 124.246C239.473 124.391 239.644 124.539 239.797 124.688C240.433 125.282 241.179 125.878 241.983 126.445C243.591 127.59 245.362 128.66 247.194 129.661C249.02 130.675 250.899 131.645 252.812 132.566C256.629 134.394 260.586 136.154 264.469 137.761L261.933 144.216Z" fill="#FFB573"/>
<path d="M252.695 111.095L253.817 108.661L248.717 106.891C248.717 106.891 247.129 111.672 249.022 113.879C250.634 113.62 252.012 112.577 252.695 111.095Z" fill="#FFB573"/>
<path d="M253.817 103.401L249.74 102.226L248.717 106.89L253.817 108.661V103.401Z" fill="#FFB573"/>
<path d="M306.464 108.897L307.058 103.211L301.803 104.446C301.803 104.446 301.726 109.776 304.506 110.626L306.464 108.897Z" fill="#FFB573"/>
<path d="M304.526 99.2307L301.103 100.83L301.802 104.446L307.058 103.211L304.526 99.2307Z" fill="#FFB573"/>
<path d="M281.508 111.987C281.755 118.715 282.004 121.558 278.963 125.324C274.39 130.988 266.07 129.82 263.818 123.3C261.79 117.431 261.726 107.413 268.012 104.107C274.204 100.851 281.261 105.257 281.508 111.987Z" fill="#FFB573"/>
<path d="M278.577 125.311C285.182 122.457 289.527 116.437 287.693 107.026C285.939 98.0221 279.86 97.1328 277.349 99.0006C274.838 100.868 268.579 98.0845 264.823 101.245C258.315 106.722 264.468 112.626 267.673 116.124C269.588 120.059 272.095 128.112 278.577 125.311Z" fill="#263238"/>
<path d="M275.834 105.411C278.064 108.639 282.339 109.55 285.384 107.446C288.43 105.344 289.092 101.022 286.863 97.7945C284.633 94.5667 280.358 93.6554 277.313 95.759C274.267 97.8618 273.605 102.183 275.834 105.411Z" fill="#407BFF"/>
<path d="M277.549 99.6316C276.595 94.2062 281.729 90.0226 288.594 92.0444C295.459 94.0661 291.827 100.152 290.42 105.012C289.012 109.872 292.706 114.501 294.25 110.799C295.794 107.098 293.199 105.955 293.199 105.955C293.199 105.955 300.488 107.845 293.716 116.062C286.945 124.279 280.815 115.205 282.473 109.851C283.812 105.524 278.45 104.76 277.549 99.6316Z" fill="#263238"/>
<path d="M270.688 101.682C267.554 100.047 262.247 98.7252 259.226 103.806C257.798 106.209 258.352 109.467 258.352 109.467L267.577 110.081L270.688 101.682Z" fill="#263238"/>
<path d="M257.266 107.874C257.262 107.874 257.258 107.874 257.253 107.873C257.142 107.867 257.057 107.77 257.064 107.659C257.072 107.521 257.295 104.262 259.262 102.218C264.016 97.2786 269.59 101.376 271.185 102.749C271.27 102.822 271.279 102.95 271.206 103.035C271.132 103.12 271.005 103.129 270.92 103.056C269.393 101.742 264.061 97.8156 259.554 102.499C257.692 104.434 257.47 107.651 257.467 107.684C257.462 107.791 257.372 107.874 257.266 107.874Z" fill="#263238"/>
<path d="M268.801 115.857C268.792 117.167 268.205 118.45 267.461 119.321C266.342 120.63 265.058 119.985 264.764 118.534C264.5 117.227 264.762 114.972 266.177 114.182C267.57 113.403 268.813 114.358 268.801 115.857Z" fill="#FFB573"/>
<path d="M267.343 177.489C267.343 177.489 267.775 224.585 271.861 250.83C275.161 272.028 281.267 321.048 281.267 321.048H290.519C290.519 321.048 291.423 273.725 289.748 252.759C285.509 199.706 296.448 189.787 287.621 177.489H267.343Z" fill="#263238"/>
<path opacity="0.1" d="M267.343 177.489C267.343 177.489 267.775 224.585 271.861 250.83C275.161 272.028 281.267 321.048 281.267 321.048H290.519C290.519 321.048 291.423 273.725 289.748 252.759C285.509 199.706 296.448 189.787 287.621 177.489H267.343Z" fill="white"/>
<path opacity="0.3" d="M272.207 198.855C275.455 213.071 272.863 235.459 271.089 245.317C269.209 230.348 268.262 210.948 267.792 196.733C269.469 194.011 271.056 193.833 272.207 198.855Z" fill="black"/>
<path d="M280.002 321.231H291.787L292.405 317.097L279.935 316.675L280.002 321.231Z" fill="#407BFF"/>
<path d="M283.365 137.734C284.473 135.53 290.433 134.143 293.69 134.148L296.128 144.974C296.128 144.974 289.638 154.605 286.94 153.583C283.752 152.379 280.99 142.456 283.365 137.734Z" fill="#407BFF"/>
<path opacity="0.4" d="M283.365 137.734C284.473 135.53 290.433 134.143 293.69 134.148L296.128 144.974C296.128 144.974 289.638 154.605 286.94 153.583C283.752 152.379 280.99 142.456 283.365 137.734Z" fill="black"/>
<path d="M276.496 318.584C276.525 318.536 276.527 318.475 276.501 318.425C276.469 318.365 276.403 318.331 276.335 318.341C275.994 318.392 272.996 318.869 272.591 319.725C272.512 319.891 272.524 320.066 272.622 320.231C272.788 320.507 273.022 320.663 273.317 320.693C274.3 320.794 275.719 319.431 276.477 318.609C276.484 318.601 276.49 318.592 276.496 318.584ZM272.899 319.829C273.176 319.374 274.726 318.955 275.909 318.737C274.841 319.824 273.9 320.429 273.349 320.372C273.156 320.352 273.009 320.251 272.897 320.065C272.853 319.992 272.848 319.93 272.881 319.862C272.886 319.85 272.892 319.839 272.899 319.829Z" fill="#407BFF"/>
<path d="M276.496 318.584C276.503 318.574 276.508 318.562 276.511 318.551C276.53 318.498 276.517 318.438 276.481 318.395C276.43 318.336 275.229 316.951 274.121 316.879C273.782 316.857 273.486 316.958 273.238 317.179C272.906 317.477 272.934 317.736 273.017 317.901C273.368 318.596 275.523 318.838 276.392 318.657C276.436 318.648 276.473 318.621 276.496 318.584ZM273.325 317.564C273.35 317.522 273.391 317.474 273.453 317.418C273.635 317.254 273.848 317.183 274.1 317.2C274.828 317.248 275.655 318 276.031 318.383C275.071 318.464 273.515 318.173 273.304 317.756C273.292 317.731 273.26 317.669 273.325 317.564Z" fill="#407BFF"/>
<path d="M283.567 315.71L277.362 318.466L274.597 312.711L270.983 305.175L270.56 304.298L276.758 301.538L277.237 302.524L280.74 309.823L283.567 315.71Z" fill="#FFB573"/>
<path opacity="0.2" d="M280.741 309.823L274.597 312.711L270.983 305.175L277.237 302.524L280.741 309.823Z" fill="black"/>
<path d="M260.067 177.489C260.067 177.489 240.243 226.765 245.616 249.969C250.472 270.94 271.944 310.655 271.944 310.655L280.247 306.488C280.247 306.488 266.973 258.546 265.532 248.131C262.731 227.866 280.741 199.261 280.741 177.489H260.067Z" fill="#263238"/>
<path opacity="0.1" d="M260.067 177.489C260.067 177.489 240.243 226.765 245.616 249.969C250.472 270.94 271.944 310.655 271.944 310.655L280.247 306.488C280.247 306.488 266.973 258.546 265.532 248.131C262.731 227.866 280.741 199.261 280.741 177.489H260.067Z" fill="white"/>
<path d="M276.255 317.603L282.418 313.118C282.642 312.954 282.938 312.978 283.128 313.174L287.379 317.539C287.82 317.991 287.733 318.787 287.21 319.155C285.034 320.681 283.907 321.309 281.197 323.282C279.529 324.495 276.207 327.178 273.905 328.854C271.653 330.493 269.822 328.342 270.631 327.438C274.258 323.385 275.022 320.878 275.585 318.608C275.686 318.199 275.927 317.842 276.255 317.603Z" fill="#263238"/>
<path d="M271.41 312.412L282.127 307.51L280.751 303.143L269.275 308.378L271.41 312.412Z" fill="#407BFF"/>
<path d="M265.327 137.182C264.438 134.88 256.695 132.356 252.811 131.475L251.104 144.247C251.104 144.247 257.448 153.364 260.233 152.61C263.522 151.719 267.232 142.112 265.327 137.182Z" fill="#407BFF"/>
<path opacity="0.4" d="M265.327 137.182C264.438 134.88 256.695 132.356 252.811 131.475L251.104 144.247C251.104 144.247 257.448 153.364 260.233 152.61C263.522 151.719 267.232 142.112 265.327 137.182Z" fill="black"/>
<path d="M256.824 136.539C256.824 136.539 253.592 137.677 260.067 177.489C271.001 177.489 282.302 177.489 287.622 177.489C287.16 166.274 287.147 159.359 292.506 136.342C292.506 136.342 286.733 135.086 280.805 134.801C276.168 134.577 272.369 134.429 268.292 134.802C262.919 135.292 256.824 136.539 256.824 136.539Z" fill="#407BFF"/>
<path opacity="0.4" d="M256.824 136.539C256.824 136.539 253.592 137.677 260.067 177.489C271.001 177.489 282.302 177.489 287.622 177.489C287.16 166.274 287.147 159.359 292.506 136.342C292.506 136.342 286.733 135.086 280.805 134.801C276.168 134.577 272.369 134.429 268.292 134.802C262.919 135.292 256.824 136.539 256.824 136.539Z" fill="black"/>
<path d="M288.035 175.871L289.277 178.338C289.374 178.529 289.147 178.724 288.829 178.724H259.93C259.682 178.724 259.476 178.603 259.461 178.446L259.212 175.98C259.195 175.809 259.41 175.664 259.682 175.664H287.586C287.791 175.665 287.973 175.748 288.035 175.871Z" fill="#407BFF"/>
<path opacity="0.3" d="M288.035 175.871L289.277 178.338C289.374 178.529 289.147 178.724 288.829 178.724H259.93C259.682 178.724 259.476 178.603 259.461 178.446L259.212 175.98C259.195 175.809 259.41 175.664 259.682 175.664H287.586C287.791 175.665 287.973 175.748 288.035 175.871Z" fill="white"/>
<path d="M284.287 178.991H285.035C285.184 178.991 285.297 178.914 285.287 178.821L284.936 175.617C284.925 175.523 284.796 175.447 284.647 175.447H283.899C283.75 175.447 283.637 175.524 283.647 175.617L283.998 178.821C284.008 178.915 284.139 178.991 284.287 178.991Z" fill="#263238"/>
<path d="M266.173 178.991H266.92C267.069 178.991 267.183 178.914 267.172 178.821L266.822 175.617C266.811 175.523 266.681 175.447 266.532 175.447H265.785C265.636 175.447 265.522 175.524 265.533 175.617L265.884 178.821C265.893 178.915 266.024 178.991 266.173 178.991Z" fill="#263238"/>
</svg>
