<svg width="802" height="840" viewBox="0 0 802 840" fill="none" xmlns="http://www.w3.org/2000/svg">
<rect width="802" height="840" rx="30" fill="#E6F7FF"/>
<g clip-path="url(#clip0_2006_3680)">
<path d="M697.5 577.026H104.5V577.323H697.5V577.026Z" fill="#EBEBEB"/>
<path d="M478.885 585.103H448.689V585.4H478.885V585.103Z" fill="#EBEBEB"/>
<path d="M644.652 591.519H573.101V591.816H644.652V591.519Z" fill="#EBEBEB"/>
<path d="M442.261 585.245H368.338V585.542H442.261V585.245Z" fill="#EBEBEB"/>
<path d="M320.399 594.117H304.934V594.413H320.399V594.117Z" fill="#EBEBEB"/>
<path d="M405.85 594.117H335.426V594.413H405.85V594.117Z" fill="#EBEBEB"/>
<path d="M212.319 589.112H166.718V589.408H212.319V589.112Z" fill="#EBEBEB"/>
<path d="M385.582 524.131H156.578C154.784 524.128 153.064 523.413 151.797 522.143C150.529 520.873 149.817 519.153 149.817 517.359V195.443C149.833 193.659 150.552 191.954 151.818 190.697C153.083 189.44 154.794 188.733 156.578 188.73H385.582C387.378 188.73 389.101 189.443 390.371 190.713C391.641 191.983 392.354 193.706 392.354 195.502V517.359C392.354 519.155 391.641 520.877 390.371 522.147C389.101 523.417 387.378 524.131 385.582 524.131ZM156.578 188.967C154.862 188.97 153.218 189.654 152.006 190.868C150.794 192.082 150.114 193.727 150.114 195.443V517.359C150.114 519.074 150.794 520.719 152.006 521.933C153.218 523.147 154.862 523.831 156.578 523.834H385.582C387.299 523.831 388.944 523.148 390.158 521.934C391.372 520.72 392.055 519.075 392.058 517.359V195.443C392.055 193.726 391.372 192.081 390.158 190.867C388.944 189.654 387.299 188.97 385.582 188.967H156.578Z" fill="#EBEBEB"/>
<path d="M642.126 524.131H413.109C411.314 524.128 409.593 523.413 408.324 522.144C407.055 520.875 406.34 519.154 406.337 517.359V195.443C406.356 193.658 407.077 191.952 408.345 190.696C409.612 189.439 411.324 188.733 413.109 188.73H642.126C643.907 188.736 645.615 189.444 646.878 190.701C648.141 191.957 648.858 193.661 648.874 195.443V517.359C648.874 519.151 648.164 520.87 646.899 522.139C645.634 523.408 643.918 524.124 642.126 524.131ZM413.109 188.967C411.393 188.97 409.747 189.654 408.534 190.867C407.32 192.081 406.637 193.726 406.633 195.443V517.359C406.637 519.075 407.32 520.72 408.534 521.934C409.747 523.148 411.393 523.831 413.109 523.834H642.126C643.842 523.831 645.487 523.148 646.701 521.934C647.915 520.72 648.598 519.075 648.601 517.359V195.443C648.598 193.726 647.915 192.081 646.701 190.867C645.487 189.654 643.842 188.97 642.126 188.967H413.109Z" fill="#EBEBEB"/>
<path d="M336.909 474.165H258.158L253.379 419.016H332.129L336.909 474.165Z" fill="#E6E6E6"/>
<path d="M340.988 474.165H262.238L257.458 419.016H336.208L340.988 474.165Z" fill="#F0F0F0"/>
<path d="M273.007 462.316L270.374 430.852H325.44L328.073 462.316H273.007Z" fill="white"/>
<path d="M354.616 474.165H345.377V577.026H354.616V474.165Z" fill="#E6E6E6"/>
<path d="M357.533 474.165H351.117V577.026H357.533V474.165Z" fill="#F0F0F0"/>
<path d="M268.097 485.515H357.533V474.165H268.097V485.515Z" fill="#F0F0F0"/>
<path d="M271.252 485.515H262.013V577.026H271.252V485.515Z" fill="#E6E6E6"/>
<path d="M274.169 485.515H267.753V577.026H274.169V485.515Z" fill="#F0F0F0"/>
<path d="M205.488 485.515H196.249V577.026H205.488V485.515Z" fill="#E6E6E6"/>
<path d="M208.406 485.515H201.989V577.026H208.406V485.515Z" fill="#F0F0F0"/>
<path d="M296.146 485.515H286.907V577.026H296.146V485.515Z" fill="#E6E6E6"/>
<path d="M299.051 485.515H292.635V577.026H299.051V485.515Z" fill="#F0F0F0"/>
<path d="M268.097 474.165H196.249V485.515H268.097V474.165Z" fill="#E6E6E6"/>
<path d="M536.014 217.68H258.099V372.406H536.014V217.68Z" fill="#E0E0E0"/>
<path d="M551.278 217.68H259.498V372.406H551.278V217.68Z" fill="#F5F5F5"/>
<path d="M546.511 367.638V222.448L264.266 222.448V367.638H546.511Z" fill="white"/>
<path d="M378.549 367.638L431.836 222.448H343.894L290.607 367.638H378.549Z" fill="#F5F5F5"/>
<path d="M463.193 367.638L516.48 222.448H450.136L396.849 367.638H463.193Z" fill="#F5F5F5"/>
<path d="M624.099 429.251H600.474V577.026H624.099V429.251Z" fill="#E6E6E6"/>
<path d="M617.884 577.026H624.099V565.653H611.373L617.884 577.026Z" fill="#FAFAFA"/>
<path d="M406.277 429.251H382.652V577.026H406.277V429.251Z" fill="#E6E6E6"/>
<path d="M624.098 429.251H400.857V573.955H624.098V429.251Z" fill="#FAFAFA"/>
<path d="M619.876 475.944H405.092V435.074H619.876V475.944ZM406.278 474.758H618.69V436.26H406.278V474.758Z" fill="#E6E6E6"/>
<path d="M582.066 454.916H447.064C440.802 454.916 434.765 449.863 430.46 441.04L430.057 440.198H599.062L598.658 441.04C594.318 449.863 588.388 454.916 582.066 454.916ZM432.002 441.348C436.01 449.211 441.49 453.694 447.064 453.694H582.066C587.664 453.694 593.12 449.211 597.128 441.348H432.002Z" fill="#E6E6E6"/>
<path d="M407.072 577.026H400.857V565.653H413.583L407.072 577.026Z" fill="#FAFAFA"/>
<path d="M619.876 521.996H405.092V481.174H619.876V521.996ZM406.278 520.81H618.69V482.36H406.278V520.81Z" fill="#E6E6E6"/>
<path d="M582.066 501.016H447.064C440.802 501.016 434.765 495.951 430.46 487.139L430.057 486.286H599.062L598.658 487.139C594.318 495.904 588.388 501.016 582.066 501.016ZM432.002 487.472C436.01 495.335 441.49 499.83 447.064 499.83H582.066C587.664 499.83 593.12 495.335 597.128 487.472H432.002Z" fill="#E6E6E6"/>
<path d="M619.876 568.131H405.092V527.262H619.876V568.131ZM406.278 566.945H618.69V528.448H406.278V566.945Z" fill="#E6E6E6"/>
<path d="M582.066 547.104H447.064C440.802 547.104 434.765 542.051 430.46 533.239L430.057 532.385H599.062L598.658 533.239C594.318 542.051 588.388 547.104 582.066 547.104ZM432.002 533.571C436.01 541.435 441.49 545.918 447.064 545.918H582.066C587.664 545.918 593.12 541.435 597.128 533.571H432.002Z" fill="#E6E6E6"/>
<path d="M247.983 448.796V451.666H246.156L244.638 474.165H222.294L220.788 451.666H218.949V448.796H247.983Z" fill="#E6E6E6"/>
<path d="M240.629 392.971C238.803 379.569 220.716 375.75 197.767 375.252C175.933 374.79 168.936 367.069 168.936 367.069C168.936 367.069 169.007 398.344 200.471 409.682C230.347 420.427 242.468 406.397 240.629 392.971Z" fill="#E6E6E6"/>
<path d="M229.481 423.345C229.86 417.841 238.661 407.713 259.831 412.315C275.13 415.647 280.823 407.713 280.823 407.713C280.823 407.713 279.4 430.105 256.391 436.829C234.533 443.222 228.805 433.046 229.481 423.345Z" fill="#E6E6E6"/>
<path d="M234.307 457.24C234.426 457.242 234.545 457.217 234.653 457.168C234.762 457.118 234.858 457.046 234.936 456.956C236.466 455.141 235.209 450.8 233.477 444.787C231.247 437.078 228.472 427.472 230.82 420.51C232.122 416.833 233.643 413.237 235.375 409.741C238.696 402.72 241.566 396.695 239.17 390.314C239.133 390.213 239.075 390.12 239.002 390.041C238.928 389.961 238.84 389.897 238.741 389.852C238.643 389.808 238.536 389.783 238.428 389.779C238.32 389.776 238.213 389.794 238.111 389.832C238.01 389.871 237.918 389.929 237.839 390.003C237.761 390.077 237.698 390.167 237.654 390.265C237.61 390.364 237.586 390.471 237.584 390.579C237.581 390.687 237.601 390.795 237.64 390.896C239.787 396.577 237.189 402.08 233.892 409.053C232.138 412.605 230.594 416.256 229.267 419.988C226.764 427.436 229.611 437.316 231.9 445.238C233.252 449.982 234.651 454.726 233.691 455.912C233.614 455.994 233.556 456.091 233.519 456.197C233.482 456.302 233.468 456.414 233.477 456.526C233.486 456.638 233.518 456.746 233.571 456.844C233.624 456.943 233.697 457.029 233.785 457.098C233.937 457.206 234.122 457.256 234.307 457.24Z" fill="#E6E6E6"/>
<path d="M401 630.586C528 630.586 630.954 624.575 630.954 617.161C630.954 609.746 528 603.735 401 603.735C274.001 603.735 171.047 609.746 171.047 617.161C171.047 624.575 274.001 630.586 401 630.586Z" fill="#F5F5F5"/>
<path d="M400.952 551.705H232.54L223.325 280.858H391.737L400.952 551.705Z" fill="#407BFF"/>
<path d="M409.361 543.297H240.949L231.722 272.45H400.134L409.361 543.297Z" fill="#407BFF"/>
<path opacity="0.3" d="M409.361 543.297H240.949L231.722 272.45H400.134L409.361 543.297Z" fill="white"/>
<path d="M352.934 383.903C370.966 365.559 370.199 335.565 351.22 316.908C332.242 298.252 302.239 297.998 284.207 316.341C266.175 334.684 266.942 364.679 285.92 383.335C304.899 401.992 334.902 402.246 352.934 383.903Z" fill="#407BFF"/>
<path d="M357.675 350.133C357.918 356.587 356.509 362.995 353.583 368.753C350.425 374.958 345.601 380.16 339.652 383.775C333.702 387.391 326.863 389.278 319.901 389.223C312.775 389.185 305.785 387.273 299.632 383.68C293.479 380.087 288.378 374.939 284.843 368.753C281.546 363.084 279.704 356.687 279.482 350.133C279.263 345.051 280.08 339.977 281.882 335.221C283.685 330.464 286.436 326.124 289.968 322.463C293.5 318.803 297.739 315.899 302.428 313.927C307.117 311.956 312.158 310.958 317.244 310.995C327.723 311.069 337.77 315.177 345.299 322.465C352.828 329.753 357.26 339.662 357.675 350.133Z" fill="white"/>
<path opacity="0.6" d="M353.56 368.753C350.402 374.958 345.578 380.16 339.628 383.775C333.679 387.391 326.839 389.278 319.878 389.223C312.752 389.185 305.762 387.273 299.609 383.68C293.455 380.087 288.355 374.939 284.819 368.753C294.85 361.915 306.718 358.28 318.858 358.328C331.193 358.355 343.252 361.977 353.56 368.753Z" fill="#407BFF"/>
<path opacity="0.6" d="M330.755 349.157C337.386 342.412 337.103 331.383 330.125 324.523C323.146 317.663 312.114 317.569 305.483 324.314C298.853 331.059 299.135 342.089 306.113 348.949C313.092 355.809 324.124 355.902 330.755 349.157Z" fill="#407BFF"/>
<path d="M375.524 445.214H268.097L267.373 423.866H374.801L375.524 445.214Z" fill="white"/>
<path d="M376.829 483.368H269.389L268.666 462.02H376.106L376.829 483.368Z" fill="white"/>
<path d="M335.367 464.961L309.477 468.519C309.229 468.547 308.991 468.626 308.776 468.751C308.561 468.876 308.374 469.044 308.227 469.244C308.08 469.445 307.976 469.674 307.922 469.916C307.867 470.159 307.864 470.41 307.911 470.654L311.315 488.005C311.426 488.514 311.724 488.964 312.15 489.264C312.576 489.565 313.099 489.695 313.616 489.63L339.506 486.072C339.752 486.041 339.99 485.959 340.204 485.833C340.417 485.706 340.603 485.537 340.748 485.336C340.894 485.134 340.997 484.905 341.05 484.663C341.104 484.42 341.107 484.169 341.06 483.925L337.668 466.574C337.556 466.066 337.258 465.618 336.832 465.319C336.406 465.02 335.883 464.893 335.367 464.961ZM327.931 482.538L323.187 483.166L322.724 477.568C322.235 477.357 321.805 477.031 321.468 476.618C321.132 476.205 320.899 475.718 320.791 475.196C320.704 474.792 320.702 474.375 320.787 473.97C320.871 473.566 321.04 473.183 321.281 472.848C321.523 472.513 321.832 472.232 322.189 472.023C322.545 471.815 322.942 471.684 323.353 471.638C324.195 471.53 325.048 471.742 325.741 472.231C326.435 472.721 326.92 473.453 327.1 474.283C327.203 474.784 327.172 475.304 327.009 475.789C326.847 476.274 326.559 476.708 326.175 477.047L327.931 482.538Z" fill="#407BFF"/>
<path d="M332.804 464.024C332.347 464.083 331.884 463.968 331.506 463.702C331.129 463.437 330.864 463.04 330.764 462.589L330.432 460.893C329.958 458.579 328.661 456.515 326.781 455.084C324.901 453.653 322.566 452.953 320.209 453.113C319.02 453.181 317.859 453.504 316.805 454.06C315.752 454.616 314.83 455.393 314.103 456.337C313.377 457.281 312.861 458.37 312.593 459.531C312.325 460.692 312.309 461.896 312.548 463.064L312.927 465.021C312.971 465.237 312.97 465.461 312.922 465.677C312.875 465.893 312.783 466.097 312.653 466.276C312.522 466.455 312.356 466.604 312.164 466.715C311.972 466.825 311.759 466.895 311.539 466.918C311.081 466.982 310.615 466.869 310.236 466.603C309.858 466.337 309.594 465.936 309.5 465.483L309.179 463.835C308.854 462.294 308.843 460.703 309.148 459.158C309.452 457.613 310.066 456.146 310.952 454.844C311.839 453.542 312.979 452.433 314.305 451.584C315.631 450.734 317.114 450.161 318.667 449.899C322.034 449.334 325.49 450.086 328.316 452.001C331.143 453.916 333.124 456.845 333.848 460.182L334.228 462.127C334.272 462.346 334.269 462.573 334.22 462.791C334.17 463.01 334.075 463.215 333.941 463.394C333.807 463.574 333.636 463.722 333.44 463.831C333.244 463.939 333.028 464.005 332.804 464.024Z" fill="#407BFF"/>
<path d="M359.098 513.267H289.16L288.697 499.367H358.624L359.098 513.267Z" fill="#407BFF"/>
<path d="M325.357 434.54C325.378 435.047 325.296 435.553 325.115 436.028C324.935 436.502 324.66 436.934 324.307 437.299C323.954 437.664 323.531 437.954 323.064 438.15C322.596 438.346 322.093 438.446 321.586 438.442C320.54 438.434 319.537 438.025 318.784 437.299C318.032 436.573 317.587 435.585 317.541 434.54C317.52 434.033 317.603 433.527 317.783 433.053C317.964 432.579 318.238 432.146 318.591 431.781C318.944 431.417 319.367 431.127 319.835 430.931C320.302 430.734 320.805 430.635 321.313 430.638C322.359 430.644 323.364 431.052 324.117 431.779C324.87 432.506 325.314 433.495 325.357 434.54Z" fill="#263238"/>
<path d="M308.492 434.54C308.514 435.048 308.433 435.554 308.253 436.029C308.073 436.504 307.799 436.938 307.446 437.303C307.093 437.668 306.669 437.958 306.2 438.153C305.732 438.349 305.228 438.448 304.72 438.442C303.676 438.434 302.674 438.024 301.924 437.298C301.173 436.571 300.73 435.584 300.688 434.54C300.667 434.033 300.749 433.527 300.93 433.053C301.11 432.579 301.385 432.146 301.738 431.781C302.09 431.417 302.513 431.127 302.981 430.931C303.449 430.734 303.952 430.635 304.459 430.638C305.505 430.644 306.508 431.053 307.259 431.78C308.01 432.507 308.452 433.496 308.492 434.54Z" fill="#263238"/>
<path d="M291.734 434.54C291.755 435.047 291.672 435.553 291.492 436.028C291.312 436.502 291.037 436.934 290.684 437.299C290.331 437.664 289.908 437.954 289.44 438.15C288.973 438.346 288.47 438.446 287.962 438.442C286.917 438.437 285.914 438.028 285.163 437.301C284.411 436.574 283.97 435.585 283.93 434.54C283.909 434.033 283.991 433.527 284.172 433.053C284.352 432.579 284.627 432.146 284.98 431.781C285.332 431.417 285.756 431.127 286.223 430.931C286.691 430.734 287.194 430.635 287.701 430.638C288.747 430.644 289.75 431.053 290.501 431.78C291.253 432.507 291.694 433.496 291.734 434.54Z" fill="#263238"/>
<path d="M342.163 434.54C342.184 435.047 342.101 435.553 341.921 436.027C341.74 436.502 341.465 436.934 341.113 437.299C340.76 437.664 340.337 437.953 339.869 438.15C339.401 438.346 338.899 438.446 338.391 438.442C337.346 438.437 336.343 438.028 335.591 437.301C334.84 436.574 334.398 435.585 334.359 434.54C334.341 434.035 334.426 433.531 334.609 433.059C334.792 432.588 335.068 432.158 335.422 431.797C335.776 431.435 336.199 431.149 336.667 430.956C337.134 430.763 337.636 430.667 338.142 430.674C339.18 430.682 340.175 431.087 340.922 431.806C341.67 432.525 342.114 433.504 342.163 434.54Z" fill="#263238"/>
<path d="M358.968 434.54C358.991 435.048 358.91 435.554 358.73 436.029C358.55 436.504 358.275 436.938 357.922 437.303C357.569 437.668 357.145 437.958 356.677 438.153C356.208 438.349 355.705 438.448 355.197 438.442C354.152 438.434 353.151 438.024 352.4 437.298C351.649 436.571 351.207 435.584 351.164 434.54C351.143 434.033 351.226 433.527 351.406 433.053C351.587 432.579 351.862 432.146 352.214 431.781C352.567 431.417 352.99 431.127 353.458 430.931C353.926 430.734 354.428 430.635 354.936 430.638C355.981 430.644 356.984 431.053 357.736 431.78C358.487 432.507 358.928 433.496 358.968 434.54Z" fill="#263238"/>
<path d="M500.518 330.196C502.095 332.734 503.411 335.154 504.764 337.68C506.116 340.206 507.337 342.744 508.535 345.341C510.979 350.601 513.002 356.046 514.584 361.625C514.797 362.325 514.951 363.072 515.129 363.795L515.39 364.898L515.521 365.444L515.675 366.345C515.942 368.39 515.817 370.467 515.307 372.465C514.488 375.567 513.243 378.541 511.607 381.301C508.68 386.316 505.142 390.949 501.075 395.094L496.082 391.322C498.588 386.715 500.818 381.963 502.759 377.09C503.624 374.944 504.233 372.703 504.574 370.413C504.683 369.714 504.651 369 504.479 368.314L504.004 366.867C503.815 366.274 503.637 365.681 503.411 365.076C501.608 360.184 499.521 355.4 497.161 350.749C494.789 346.005 492.239 341.261 489.689 336.731L500.518 330.196Z" fill="#FF8B7B"/>
<path d="M497.351 389.674L491.896 392.556L498.158 399.885C498.158 399.885 502.071 397.241 502.249 393.208L497.351 389.674Z" fill="#FF8B7B"/>
<path d="M484.578 397.075L491.279 402.4L498.158 399.885L491.896 392.556L484.578 397.075Z" fill="#FF8B7B"/>
<path d="M461.665 291.39C461.534 292.054 461.072 292.517 460.645 292.434C460.218 292.351 459.969 291.734 460.099 291.082C460.23 290.429 460.692 289.896 461.131 290.038C461.57 290.18 461.795 290.726 461.665 291.39Z" fill="#263238"/>
<path d="M461.13 292.529C459.936 294.386 458.491 296.071 456.837 297.534C457.228 297.938 457.701 298.254 458.225 298.459C458.749 298.664 459.311 298.753 459.873 298.72L461.13 292.529Z" fill="#FF5652"/>
<path d="M458.996 315.798V308.018L469.291 309.204C469.291 309.204 469.125 315.893 463.361 317.862L458.996 315.798Z" fill="#FF8B7B"/>
<path d="M461.961 302.42L469.207 304.507L469.337 309.263L459.043 308.018L461.961 302.42Z" fill="#FF8B7B"/>
<path opacity="0.2" d="M469.208 304.507L461.961 302.42L460.55 305.124C460.627 307.255 461.293 309.322 462.473 311.098C463.654 312.873 465.304 314.286 467.239 315.181C468.484 313.442 469.212 311.386 469.338 309.251L469.208 304.507Z" fill="black"/>
<path d="M464.819 288.224C464.895 288.222 464.969 288.198 465.032 288.156C465.096 288.114 465.146 288.054 465.177 287.985C465.208 287.915 465.218 287.839 465.208 287.763C465.197 287.688 465.165 287.617 465.116 287.559C464.699 287.089 464.176 286.725 463.59 286.498C463.004 286.271 462.372 286.188 461.747 286.255C461.645 286.272 461.554 286.329 461.494 286.414C461.434 286.498 461.41 286.603 461.427 286.705C461.445 286.808 461.502 286.901 461.586 286.962C461.67 287.024 461.774 287.051 461.878 287.038C462.373 286.989 462.872 287.059 463.334 287.243C463.796 287.427 464.208 287.718 464.535 288.093C464.571 288.133 464.615 288.165 464.664 288.187C464.713 288.21 464.765 288.222 464.819 288.224Z" fill="#263238"/>
<path d="M479.977 303.392C478.791 309.5 478.055 317.957 482.349 322.025C482.349 322.025 480.688 328.215 469.303 328.215C456.838 328.215 463.313 322.784 463.313 322.784C468.496 321.171 468.449 315.276 467.263 310.532L479.977 303.392Z" fill="#FF8B7B"/>
<path d="M484.661 326.104C485.776 324.539 485.728 319.57 484.542 318.692C482.633 317.281 474.437 316.948 463.42 319.486C464.606 324.302 462.056 326.816 462.056 326.816L484.661 326.104Z" fill="#407BFF"/>
<path d="M521.735 607.673C521.397 607.792 521.038 607.843 520.68 607.822C520.321 607.802 519.971 607.711 519.648 607.554C519.525 607.44 519.441 607.291 519.407 607.128C519.374 606.964 519.391 606.794 519.458 606.641C519.495 606.513 519.56 606.394 519.648 606.294C519.737 606.193 519.846 606.113 519.968 606.06C521.095 605.514 523.68 606.57 523.799 606.617C523.834 606.631 523.864 606.656 523.886 606.688C523.907 606.72 523.918 606.757 523.917 606.795C523.917 606.833 523.907 606.87 523.888 606.904C523.87 606.937 523.843 606.965 523.811 606.985C523.142 607.279 522.447 607.509 521.735 607.673ZM520.371 606.332C520.293 606.351 520.217 606.379 520.146 606.415C520.072 606.443 520.005 606.487 519.952 606.544C519.898 606.602 519.859 606.672 519.838 606.748C519.731 607.103 519.838 607.222 519.909 607.258C520.359 607.637 522.02 607.258 523.194 606.819C522.301 606.449 521.337 606.283 520.371 606.332Z" fill="#407BFF"/>
<path d="M523.763 606.997H523.668C522.72 606.724 520.703 605.289 520.68 604.352C520.679 604.203 520.729 604.058 520.822 603.942C520.914 603.825 521.044 603.744 521.19 603.711C521.33 603.659 521.481 603.638 521.631 603.65C521.78 603.662 521.925 603.708 522.055 603.783C523.17 604.352 523.882 606.653 523.906 606.759C523.922 606.788 523.931 606.821 523.931 606.854C523.931 606.888 523.922 606.92 523.906 606.949C523.887 606.968 523.865 606.982 523.84 606.99C523.815 606.998 523.789 607 523.763 606.997ZM521.391 604.043H521.296C521.059 604.126 521.059 604.245 521.059 604.304C521.059 604.862 522.411 605.989 523.431 606.439C523.182 605.775 522.637 604.459 521.913 604.067C521.752 603.994 521.57 603.986 521.403 604.043H521.391Z" fill="#407BFF"/>
<path d="M460.134 609.072C459.067 609.072 458.035 608.918 457.691 608.444C457.601 608.317 457.553 608.166 457.553 608.011C457.553 607.855 457.601 607.704 457.691 607.578C457.759 607.462 457.849 607.361 457.957 607.281C458.065 607.202 458.189 607.145 458.319 607.115C459.707 606.736 462.625 608.396 462.743 608.467C462.78 608.485 462.809 608.515 462.826 608.551C462.843 608.588 462.848 608.629 462.838 608.669C462.834 608.709 462.816 608.747 462.789 608.777C462.761 608.807 462.724 608.827 462.684 608.835C461.843 608.989 460.989 609.069 460.134 609.072ZM458.818 607.447C458.692 607.427 458.564 607.427 458.438 607.447C458.358 607.464 458.282 607.497 458.214 607.543C458.147 607.59 458.09 607.65 458.047 607.72C457.904 607.969 457.964 608.088 458.047 608.159C458.438 608.704 460.537 608.716 462.091 608.491C461.077 607.937 459.965 607.582 458.818 607.447Z" fill="#407BFF"/>
<path d="M462.672 608.835H462.589C461.581 608.384 459.589 606.581 459.743 605.633C459.743 605.407 459.933 605.135 460.478 605.087C460.673 605.064 460.871 605.082 461.058 605.139C461.246 605.196 461.42 605.292 461.569 605.419C462.329 606.328 462.786 607.452 462.874 608.633C462.874 608.667 462.866 608.7 462.852 608.731C462.837 608.762 462.817 608.789 462.791 608.811C462.754 608.83 462.713 608.838 462.672 608.835ZM460.632 605.455H460.514C460.158 605.455 460.134 605.621 460.134 605.668C460.039 606.238 461.391 607.661 462.423 608.277C462.333 607.326 461.947 606.426 461.32 605.704C461.125 605.538 460.876 605.449 460.62 605.455H460.632Z" fill="#407BFF"/>
<path d="M471.828 608.645H463.49L462.66 589.325H470.998L471.828 608.645Z" fill="#FF8B7B"/>
<path d="M533.062 604.779L524.914 606.546L516.719 588.554L524.878 586.787L533.062 604.779Z" fill="#FF8B7B"/>
<path d="M524.119 605.728L533.287 603.747C533.447 603.713 533.614 603.734 533.76 603.808C533.907 603.881 534.024 604.002 534.093 604.15L537.272 611.053C537.356 611.22 537.4 611.405 537.4 611.592C537.399 611.779 537.354 611.964 537.268 612.13C537.183 612.297 537.059 612.441 536.907 612.551C536.755 612.66 536.579 612.732 536.394 612.761C533.192 613.389 531.591 613.543 527.57 614.409C525.091 614.955 519.494 616.319 516.066 617.054C512.638 617.789 511.464 614.504 512.804 613.899C518.794 611.159 521.284 608.752 522.909 606.51C523.203 606.11 523.633 605.832 524.119 605.728Z" fill="#263238"/>
<path d="M463.55 607.673H472.659C472.824 607.674 472.984 607.73 473.113 607.834C473.242 607.937 473.333 608.081 473.37 608.242L475.019 615.654C475.067 615.834 475.073 616.022 475.035 616.203C474.998 616.385 474.918 616.555 474.803 616.701C474.688 616.846 474.54 616.962 474.371 617.04C474.203 617.118 474.018 617.155 473.833 617.149C470.548 617.089 465.804 616.9 461.676 616.9C456.838 616.9 452.675 617.161 447.006 617.161C443.578 617.161 442.629 613.697 444.064 613.377C450.587 611.954 455.924 611.8 461.558 608.325C462.149 607.929 462.839 607.703 463.55 607.673Z" fill="#263238"/>
<path d="M497.268 323.934C505.084 325.725 511.5 345.685 511.5 345.685L495.881 357.628C491.826 353.294 488.966 347.981 487.579 342.21C484.815 331.75 489.275 322.084 497.268 323.934Z" fill="#407BFF"/>
<path opacity="0.4" d="M497.268 323.934C505.084 325.725 511.5 345.685 511.5 345.685L495.881 357.628C491.826 353.294 488.966 347.981 487.579 342.21C484.815 331.75 489.275 322.084 497.268 323.934Z" fill="black"/>
<path d="M456.149 347.737C454.204 349.836 452.259 351.71 450.219 353.667C449.211 354.616 448.191 355.565 447.148 356.478L445.57 357.865L445.179 358.209L444.503 358.755C443.807 359.311 443.037 359.766 442.214 360.107C441.299 360.496 440.315 360.697 439.32 360.7C438.47 360.704 437.627 360.555 436.83 360.261C435.945 359.924 435.138 359.412 434.458 358.755C433.589 357.906 432.952 356.848 432.607 355.683C432.427 355.109 432.312 354.516 432.263 353.916C432.201 353.214 432.201 352.507 432.263 351.805C432.323 351.236 432.394 350.738 432.489 350.275C432.813 348.658 433.273 347.071 433.865 345.531C434.398 344.067 435.012 342.634 435.703 341.238C436.462 339.731 437.185 338.628 437.909 337.371C440.847 332.558 444.201 328.01 447.93 323.78C451.623 319.575 455.692 315.716 460.087 312.252L464.451 316.747C461.392 320.85 458.379 325.25 455.592 329.579C452.818 333.884 450.284 338.338 448.002 342.922C447.492 344.037 446.816 345.294 446.495 346.195C446.071 347.242 445.703 348.311 445.392 349.397C445.094 350.376 444.868 351.375 444.716 352.386C444.708 352.544 444.708 352.702 444.716 352.86C444.716 352.955 444.716 353.003 444.716 352.754C444.697 352.488 444.645 352.225 444.562 351.971C444.306 351.13 443.836 350.37 443.198 349.765C442.631 349.244 441.966 348.841 441.241 348.579C440.605 348.338 439.93 348.213 439.249 348.211C438.594 348.203 437.945 348.329 437.34 348.579C437.135 348.663 436.936 348.762 436.747 348.876L437.197 348.46L438.632 347.156L441.467 344.499C443.341 342.732 445.226 340.846 447.005 339.091L456.149 347.737Z" fill="#FF8B7B"/>
<path opacity="0.2" d="M490.568 338.593C494.813 342.791 496.201 350.453 496.498 357.095L495.81 357.628C491.755 353.293 488.895 347.981 487.508 342.21C487.354 341.593 487.211 341.024 487.104 340.348L490.568 338.593Z" fill="black"/>
<path d="M447.859 332.236C446.151 341.25 445.084 359.763 450.029 396.41H494.694C495.003 389.567 490.697 356.146 497.303 323.875C492.368 322.927 487.376 322.297 482.36 321.989C476.04 321.627 469.704 321.627 463.384 321.989C461.296 322.179 459.233 322.487 457.454 322.807C455.088 323.222 452.904 324.346 451.19 326.03C449.477 327.713 448.315 329.878 447.859 332.236Z" fill="#407BFF"/>
<path opacity="0.4" d="M447.859 332.236C446.151 341.25 445.084 359.763 450.029 396.41H494.694C495.003 389.567 490.697 356.146 497.303 323.875C492.368 322.927 487.376 322.297 482.36 321.989C476.04 321.627 469.704 321.627 463.384 321.989C461.296 322.179 459.233 322.487 457.454 322.807C455.088 323.222 452.904 324.346 451.19 326.03C449.477 327.713 448.315 329.878 447.859 332.236Z" fill="black"/>
<path opacity="0.2" d="M454.691 345.602L446.626 343.669C446.377 348.555 446.354 354.604 446.709 362.088C450.421 357.865 455.165 351.271 454.691 345.602Z" fill="black"/>
<path opacity="0.2" d="M462.66 589.325L463.087 599.288H471.437L471.01 589.325H462.66Z" fill="black"/>
<path opacity="0.2" d="M524.878 586.787L516.719 588.554L520.941 597.829L529.101 596.062L524.878 586.787Z" fill="black"/>
<path d="M483.937 294.474C481.802 302.467 480.948 307.259 476.014 310.58C468.602 315.632 459.351 309.844 459.114 301.4C458.853 293.774 462.399 281.973 470.974 280.36C472.858 280.007 474.802 280.139 476.621 280.744C478.44 281.349 480.075 282.408 481.372 283.82C482.669 285.232 483.585 286.951 484.034 288.815C484.482 290.679 484.449 292.626 483.937 294.474Z" fill="#FF8B7B"/>
<path d="M465.223 294.77C464.819 293.703 462.981 285.436 464.713 283.29C466.444 281.143 486.191 282.697 489.109 285.567C493.959 290.311 490.591 294.581 485.29 300.072C481.305 304.199 481.151 308.848 479.134 309.56C475.576 310.746 470.145 309.631 469.053 305.871C467.962 302.112 465.223 294.77 465.223 294.77Z" fill="#263238"/>
<path d="M486.712 276.162C479.739 273.197 466.657 276.482 459.588 274.774C459.498 277.403 460.363 279.975 462.022 282.015C463.681 284.056 466.022 285.427 468.614 285.875C474.477 286.993 480.435 287.545 486.404 287.524C494.16 287.168 492.642 278.688 486.712 276.162Z" fill="#263238"/>
<path d="M487.804 285.816C490.351 286.067 492.917 285.577 495.193 284.405C496.497 287.559 489.322 288.425 487.804 285.816Z" fill="#263238"/>
<path d="M469.018 295.102C468.858 297.159 468.024 299.106 466.646 300.641C464.819 302.645 462.922 301.388 462.601 298.957C462.317 296.751 462.91 293.027 465.139 291.959C467.369 290.892 469.172 292.624 469.018 295.102Z" fill="#FF8B7B"/>
<path d="M465.862 396.446C465.862 396.446 475.35 460.194 480.533 484.08C486.214 510.231 516.742 596.75 516.742 596.75L531.673 593.512C531.673 593.512 510.325 522.992 505.581 486.428C501.905 458.343 494.682 396.422 494.682 396.422L465.862 396.446Z" fill="#407BFF"/>
<path d="M513.16 591.78C513.101 591.78 515.947 597.188 515.947 597.188L532.741 593.547L531.33 588.495L513.16 591.78Z" fill="#263238"/>
<path opacity="0.3" d="M471.852 419.158C482.798 421.305 481.636 462.127 480.32 483.131C477.165 468.282 472.54 439.723 469.385 419.454C470.149 419.077 471.02 418.972 471.852 419.158Z" fill="black"/>
<path d="M450.03 396.446C450.03 396.446 448.844 458.818 449.793 484.21C450.742 510.67 459.98 597.307 459.98 597.307H474.118C474.118 597.307 474.628 512.211 475.304 486.226C475.991 457.905 479.407 396.399 479.407 396.399L450.03 396.446Z" fill="#407BFF"/>
<path d="M457.264 591.733C457.193 591.733 458.059 597.592 458.059 597.592H475.244L475.718 592.361L457.264 591.733Z" fill="#263238"/>
<path d="M465.341 335.011C469.338 345.792 445.843 358.494 445.843 358.494L435.667 345.448C435.667 345.448 442.51 331.904 450.812 325.808C461.071 318.289 462.293 326.804 465.341 335.011Z" fill="#407BFF"/>
<path opacity="0.4" d="M465.341 335.011C469.338 345.792 445.843 358.494 445.843 358.494L435.667 345.448C435.667 345.448 442.51 331.904 450.812 325.808C461.071 318.289 462.293 326.804 465.341 335.011Z" fill="black"/>
<path d="M557.397 253.165C581.037 253.165 600.2 240.953 600.2 225.887C600.2 210.822 581.037 198.609 557.397 198.609C533.758 198.609 514.595 210.822 514.595 225.887C514.595 240.953 533.758 253.165 557.397 253.165Z" fill="#407BFF"/>
<path d="M541.955 239.621C539.136 239.612 536.409 238.61 534.256 236.79C532.102 234.97 530.658 232.449 530.178 229.671C529.707 226.661 530.386 223.584 532.08 221.052C533.775 218.52 536.36 216.719 539.323 216.008C541.753 215.448 544.299 215.664 546.601 216.625C548.902 217.587 550.845 219.246 552.155 221.369L579.635 215.7C580.691 215.468 581.795 215.644 582.727 216.191C583.66 216.739 584.351 217.618 584.663 218.653C584.807 219.197 584.838 219.765 584.755 220.321C584.672 220.878 584.477 221.412 584.18 221.89C583.884 222.369 583.493 222.782 583.032 223.104C582.57 223.426 582.048 223.651 581.497 223.764L580.785 223.907C580.679 223.926 580.58 223.969 580.493 224.033C580.407 224.096 580.336 224.179 580.287 224.274C580.243 224.371 580.22 224.476 580.22 224.583C580.22 224.689 580.243 224.794 580.287 224.891L580.773 226.148C580.936 226.556 580.952 227.007 580.818 227.425C580.683 227.843 580.408 228.201 580.038 228.437C579.746 228.617 579.5 228.862 579.317 229.151C579.134 229.441 579.02 229.769 578.982 230.11C578.947 230.501 578.79 230.87 578.532 231.167C578.274 231.463 577.93 231.67 577.547 231.758L576.99 231.877C576.604 231.948 576.204 231.895 575.85 231.724C575.496 231.553 575.206 231.275 575.021 230.928C574.775 230.514 574.406 230.188 573.965 229.994C573.525 229.8 573.035 229.748 572.563 229.846C572.092 229.944 571.663 230.187 571.336 230.54C571.009 230.893 570.801 231.34 570.74 231.817C570.707 232.206 570.551 232.574 570.295 232.868C570.039 233.162 569.697 233.367 569.316 233.454L568.759 233.573C568.373 233.642 567.974 233.588 567.621 233.417C567.267 233.247 566.977 232.969 566.79 232.624C566.613 232.33 566.373 232.078 566.089 231.885C565.804 231.693 565.481 231.564 565.142 231.509C564.686 231.454 564.265 231.235 563.96 230.892C563.654 230.549 563.484 230.106 563.481 229.647V228.295C563.477 228.189 563.449 228.086 563.4 227.992C563.352 227.897 563.284 227.815 563.2 227.75C563.117 227.684 563.021 227.638 562.918 227.613C562.815 227.589 562.708 227.586 562.604 227.607L553.839 229.41C553.482 231.838 552.385 234.097 550.698 235.88C549.011 237.662 546.815 238.882 544.41 239.372C543.603 239.537 542.78 239.621 541.955 239.621ZM539.583 217.087C536.893 217.716 534.541 219.34 533.001 221.633C531.461 223.926 530.846 226.717 531.281 229.445C531.748 231.983 533.107 234.27 535.113 235.893C537.12 237.516 539.641 238.367 542.22 238.292C544.799 238.218 547.267 237.223 549.176 235.487C551.085 233.751 552.31 231.389 552.629 228.829V228.402L562.295 226.445C562.573 226.378 562.861 226.373 563.141 226.432C563.42 226.49 563.683 226.61 563.91 226.783C564.137 226.955 564.323 227.176 564.454 227.43C564.585 227.683 564.658 227.962 564.667 228.248V229.6C564.67 229.761 564.728 229.916 564.832 230.039C564.935 230.162 565.078 230.246 565.237 230.276C565.755 230.35 566.25 230.541 566.683 230.835C567.117 231.129 567.478 231.518 567.739 231.972C567.802 232.1 567.903 232.205 568.028 232.273C568.154 232.341 568.297 232.368 568.439 232.351L568.984 232.232C569.123 232.197 569.246 232.118 569.336 232.007C569.425 231.895 569.477 231.758 569.482 231.616C569.557 230.877 569.865 230.182 570.361 229.63C570.857 229.078 571.515 228.698 572.241 228.545C572.967 228.392 573.723 228.473 574.4 228.778C575.077 229.083 575.639 229.595 576.005 230.24C576.066 230.367 576.165 230.472 576.289 230.54C576.412 230.608 576.553 230.636 576.693 230.62L577.263 230.501C577.399 230.463 577.519 230.383 577.607 230.272C577.694 230.161 577.744 230.025 577.749 229.884C577.808 229.363 577.984 228.863 578.266 228.421C578.548 227.979 578.927 227.607 579.374 227.334C579.504 227.24 579.6 227.105 579.645 226.95C579.69 226.795 579.682 226.63 579.623 226.48L579.137 225.223C579.036 224.964 578.993 224.686 579.011 224.409C579.029 224.131 579.108 223.861 579.241 223.617C579.374 223.373 579.559 223.161 579.783 222.996C580.007 222.831 580.264 222.717 580.536 222.661L581.259 222.507C581.651 222.424 582.022 222.262 582.349 222.032C582.677 221.802 582.955 221.508 583.166 221.168C583.378 220.829 583.519 220.449 583.58 220.054C583.642 219.658 583.623 219.254 583.525 218.866C583.293 218.12 582.788 217.489 582.111 217.099C581.433 216.71 580.633 216.591 579.872 216.767L551.621 222.638L551.408 222.27C550.273 220.249 548.511 218.653 546.388 217.722C544.266 216.792 541.898 216.577 539.643 217.111L539.583 217.087ZM541.955 235.209C540.482 235.226 539.036 234.814 537.793 234.023C536.322 233.058 535.232 231.612 534.708 229.933C534.184 228.253 534.258 226.444 534.919 224.813C535.58 223.183 536.785 221.832 538.331 220.991C539.876 220.15 541.665 219.871 543.393 220.201C545.121 220.532 546.681 221.451 547.807 222.803C548.932 224.155 549.555 225.856 549.567 227.615C549.579 229.374 548.981 231.083 547.874 232.451C546.767 233.819 545.22 234.76 543.497 235.114C542.993 235.206 542.48 235.246 541.967 235.233L541.955 235.209ZM541.955 221.203C541.514 221.205 541.073 221.249 540.639 221.333C539.813 221.509 539.029 221.846 538.333 222.325C537.637 222.804 537.042 223.415 536.583 224.124C536.123 224.832 535.807 225.625 535.653 226.455C535.5 227.286 535.511 228.139 535.687 228.965C535.863 229.791 536.2 230.575 536.679 231.271C537.158 231.967 537.769 232.562 538.478 233.021C539.187 233.481 539.979 233.797 540.81 233.951C541.64 234.104 542.493 234.093 543.319 233.917C544.56 233.658 545.696 233.039 546.585 232.136C547.473 231.233 548.075 230.087 548.313 228.843C548.552 227.598 548.416 226.311 547.924 225.144C547.433 223.976 546.606 222.98 545.549 222.282C544.499 221.584 543.264 221.216 542.003 221.226L541.955 221.203Z" fill="white"/>
<path opacity="0.6" d="M522.565 269.165C530.333 269.165 536.631 265.15 536.631 260.198C536.631 255.246 530.333 251.232 522.565 251.232C514.797 251.232 508.499 255.246 508.499 260.198C508.499 265.15 514.797 269.165 522.565 269.165Z" fill="#407BFF"/>
<path opacity="0.3" d="M500.185 272.841C503.375 272.841 505.961 271.195 505.961 269.165C505.961 267.134 503.375 265.488 500.185 265.488C496.995 265.488 494.409 267.134 494.409 269.165C494.409 271.195 496.995 272.841 500.185 272.841Z" fill="#407BFF"/>
</g>
<defs>
<clipPath id="clip0_2006_3680">
<rect width="593" height="593" fill="white" transform="translate(104.5 123.5)"/>
</clipPath>
</defs>
</svg>
