<svg width="33" height="32" viewBox="0 0 33 32" fill="none" xmlns="http://www.w3.org/2000/svg">
<rect x="0.5" y="-0.499512" width="33" height="32.999" stroke="#D9D9D9"/>
<path d="M24.1022 22.1188L19.4647 17.4813C20.1844 16.5509 20.5737 15.4134 20.5737 14.217C20.5737 12.7849 20.0147 11.442 19.004 10.4295C17.9933 9.41701 16.6469 8.85986 15.2165 8.85986C13.7862 8.85986 12.4397 9.41879 11.429 10.4295C10.4165 11.4402 9.85938 12.7849 9.85938 14.217C9.85938 15.6474 10.4183 16.9938 11.429 18.0045C12.4397 19.017 13.7844 19.5741 15.2165 19.5741C16.4129 19.5741 17.5487 19.1849 18.479 18.467L23.1165 23.1027C23.1301 23.1163 23.1463 23.1271 23.164 23.1345C23.1818 23.1418 23.2009 23.1456 23.2201 23.1456C23.2393 23.1456 23.2584 23.1418 23.2761 23.1345C23.2939 23.1271 23.3101 23.1163 23.3237 23.1027L24.1022 22.3259C24.1158 22.3123 24.1266 22.2962 24.134 22.2784C24.1414 22.2606 24.1452 22.2416 24.1452 22.2224C24.1452 22.2031 24.1414 22.1841 24.134 22.1663C24.1266 22.1485 24.1158 22.1324 24.1022 22.1188ZM18.0451 17.0456C17.2879 17.8009 16.2844 18.217 15.2165 18.217C14.1487 18.217 13.1451 17.8009 12.3879 17.0456C11.6326 16.2884 11.2165 15.2849 11.2165 14.217C11.2165 13.1491 11.6326 12.1438 12.3879 11.3884C13.1451 10.6331 14.1487 10.217 15.2165 10.217C16.2844 10.217 17.2897 10.6313 18.0451 11.3884C18.8004 12.1456 19.2165 13.1491 19.2165 14.217C19.2165 15.2849 18.8004 16.2902 18.0451 17.0456Z" fill="black" fill-opacity="0.45"/>
</svg>
