<svg width="74" height="74" viewBox="0 0 74 74" fill="none" xmlns="http://www.w3.org/2000/svg">
<circle cx="37" cy="37" r="37" fill="#F0F2F5"/>
<path d="M46.705 29.675H29.2842C27.5421 29.675 26.1484 31.075 26.1484 32.825V47.875C26.1484 49.625 27.5421 51.025 29.2842 51.025H46.705C48.4471 51.025 49.8407 49.625 49.8407 47.875V32.825C49.8407 31.075 48.4471 29.675 46.705 29.675ZM42.9769 38.18C42.9769 38.775 42.524 39.23 41.9317 39.23H34.0575C33.4652 39.23 33.0122 38.775 33.0122 38.18V35.52C33.0122 34.925 33.4652 34.47 34.0575 34.47C34.6498 34.47 35.1027 34.925 35.1027 35.52V37.13H40.8864V35.52C40.8864 34.925 41.3394 34.47 41.9317 34.47C42.524 34.47 42.9769 34.925 42.9769 35.52V38.18Z" fill="#383874"/>
<path d="M29.2845 27.925H46.7053C47.2976 27.925 47.7506 27.47 47.7506 26.875C47.7506 26.28 47.2976 25.825 46.7053 25.825H29.2845C28.6922 25.825 28.2393 26.28 28.2393 26.875C28.2393 27.47 28.6922 27.925 29.2845 27.925Z" fill="#383874"/>
<path d="M31.0257 24.075H44.9624C45.5547 24.075 46.0076 23.62 46.0076 23.025C46.0076 22.43 45.5547 21.975 44.9624 21.975H31.0257C30.4334 21.975 29.9805 22.43 29.9805 23.025C29.9805 23.62 30.4334 24.075 31.0257 24.075Z" fill="#383874"/>
</svg>
