<svg width="802" height="840" viewBox="0 0 802 840" fill="none" xmlns="http://www.w3.org/2000/svg">
<rect width="802" height="840" rx="30" fill="#E6F7FF"/>
<path fill-rule="evenodd" clip-rule="evenodd" d="M401.002 667.467C491.138 667.467 574.086 668.858 639.914 671.19C801.006 576.143 745.227 390.876 687.385 286.081C606.883 140.236 416.67 87.8124 337.99 204.18C231.196 362.13 128.173 307.01 72.5447 426.968C16.9166 546.924 101.398 661.921 162.09 671.19C227.915 668.858 310.866 667.467 401.002 667.467Z" fill="#EAEFF8"/>
<path fill-rule="evenodd" clip-rule="evenodd" d="M401.002 667.465C615.012 667.465 788.5 675.303 788.5 684.982C788.5 694.656 615.012 702.498 401.002 702.498C186.988 702.498 13.5 694.656 13.5 684.982C13.5 675.304 186.988 667.465 401.002 667.465Z" fill="#D2DFEE"/>
<path fill-rule="evenodd" clip-rule="evenodd" d="M525.964 183.893C622.741 206.147 684.332 298.019 690.368 342.377C692.841 360.576 688.254 317.984 638.88 279.199C594.76 244.537 560.408 238.114 507.918 233.929C470.822 230.967 431.975 226.261 434.736 203.424C436.917 185.386 463.478 169.523 525.964 183.893Z" fill="white"/>
<path fill-rule="evenodd" clip-rule="evenodd" d="M151.383 627.097C146.963 621.387 140.746 616.671 138.921 609.608C136.767 601.273 141.509 592.501 140.334 583.96C138.859 573.212 128.828 566.244 123.385 556.954C118.053 547.857 120.55 544.798 120.065 534.179C119.334 518.176 106.618 497.978 89.6778 503.394C72.478 508.901 75.2861 525.403 78.3139 537.822C80.4718 546.664 79.0607 547.937 76.9658 556.797C74.4353 567.495 66.2743 577.837 69.6867 588.274C71.7952 594.728 77.9274 599.084 80.1427 605.5C82.6559 612.769 79.6141 620.653 78.4421 628.279C75.9745 644.327 79.5159 657.679 90.812 670.934C92.0262 672.126 93.2882 673.235 94.5953 674.259C110.42 673.336 128.226 672.483 147.746 671.721L147.89 671.564C158.23 659.913 161.314 639.921 151.383 627.097Z" fill="#D2DFEE"/>
<path fill-rule="evenodd" clip-rule="evenodd" d="M97.4904 517.844C97.2247 517.124 96.4388 516.76 95.7376 517.04C95.0364 517.313 94.686 518.124 94.9534 518.851C96.2967 522.473 97.4259 526.273 98.3933 530.224C98.0039 529.861 97.6026 529.507 97.1856 529.165C95.3416 527.634 93.2467 526.294 90.9027 525.151C90.2237 524.819 89.4141 525.123 89.0957 525.822C88.7757 526.521 89.0669 527.357 89.7443 527.686C91.8985 528.738 93.8123 529.959 95.4908 531.35C97.0776 532.668 98.4595 534.14 99.6298 535.773C101.366 544.332 102.502 553.541 103.525 563.247C101.952 560.723 100.271 558.457 98.4833 556.451C95.379 552.965 91.9428 550.258 88.1747 548.332C87.5039 547.99 86.6893 548.273 86.3574 548.965C86.0255 549.657 86.2999 550.496 86.9707 550.839C90.4238 552.605 93.5958 555.112 96.4832 558.353C99.3537 561.573 101.938 565.513 104.233 570.17L104.497 572.803C105.076 578.589 105.669 584.523 106.37 590.586C106.376 590.642 106.381 590.701 106.391 590.757C107.126 597.092 107.981 603.56 109.061 610.137C106.125 605.455 102.965 601.315 99.5793 597.721C94.6207 592.453 89.1807 588.345 83.2651 585.404C82.5861 585.068 81.7764 585.362 81.4498 586.058C81.1249 586.757 81.4092 587.596 82.0865 587.932C87.7159 590.729 92.8946 594.645 97.6301 599.676C102.353 604.693 106.633 610.822 110.469 618.059C112.142 626.768 114.271 635.646 117.101 644.621L117.113 644.656V644.659C118.502 649.058 120.058 653.481 121.811 657.921C117.697 654.277 113.331 651.131 108.711 648.474C102.276 644.775 95.3605 642.04 87.9751 640.275C87.2435 640.1 86.5135 640.568 86.3406 641.327C86.1709 642.079 86.6269 642.834 87.3585 643.012C94.5139 644.722 101.192 647.359 107.392 650.921C113.524 654.446 119.206 658.886 124.434 664.239C125.64 667.001 126.925 669.766 128.299 672.538L131.29 672.406C126.476 662.857 122.72 653.334 119.741 643.914C119.231 637.072 120.016 630.23 122.097 623.394C124.209 616.461 127.655 609.514 132.435 602.56C132.868 601.927 132.723 601.049 132.113 600.605C131.501 600.157 130.655 600.305 130.22 600.937C125.281 608.126 121.711 615.335 119.513 622.552C118.263 626.649 117.457 630.747 117.095 634.845C113.019 619.646 110.759 604.79 109.107 590.613C110.702 584.603 112.484 579.519 114.452 575.358C116.408 571.219 118.535 568.027 120.828 565.786C121.373 565.258 121.398 564.369 120.882 563.807C120.368 563.244 119.508 563.219 118.965 563.751C116.424 566.233 114.101 569.695 112.003 574.131C110.697 576.893 109.472 580.046 108.326 583.592C107.926 579.848 107.558 576.156 107.194 572.523L106.912 569.695C106.91 569.642 106.905 569.59 106.897 569.541C104.961 550.272 103.011 532.738 97.4904 517.844Z" fill="white"/>
<path fill-rule="evenodd" clip-rule="evenodd" d="M105.888 634.629C101.17 632 95.4825 630.615 92.1855 626.255C88.2917 621.105 89.0796 613.546 85.8094 607.959C81.6958 600.921 72.7079 599.134 66.2504 594.33C59.9265 589.624 60.7903 586.729 57.4014 579.478C52.2987 568.556 37.6444 558.374 27.3983 567.328C16.9998 576.426 23.6927 587.062 29.3647 594.785C33.4072 600.289 32.789 601.603 33.8731 608.414C35.1806 616.641 32.4641 626.343 37.8359 632.57C41.1587 636.419 46.6796 637.58 50.0653 641.37C53.9028 645.664 54.0469 652.086 55.4185 657.754C57.2391 665.282 60.4145 671.327 65.4396 676.215C78.9966 675.159 94.9328 674.173 112.913 673.268C114.293 671.233 115.416 669.016 116.217 666.67C120.075 655.39 116.484 640.524 105.888 634.629Z" fill="#C5DEF8"/>
<path fill-rule="evenodd" clip-rule="evenodd" d="M36.9882 575.007C36.5951 574.587 35.9436 574.573 35.5332 574.982C35.1249 575.387 35.1134 576.059 35.5082 576.482C37.4861 578.597 39.3609 580.898 41.1696 583.352C40.7937 583.22 40.4125 583.097 40.0247 582.982C38.299 582.481 36.455 582.191 34.4952 582.111C33.9279 582.086 33.4502 582.544 33.4284 583.128C33.4083 583.716 33.8503 584.208 34.4159 584.23C36.2176 584.303 37.903 584.569 39.4693 585.023C40.9547 585.456 42.3382 586.061 43.6219 586.838C47.2902 592.274 50.7231 598.337 54.2222 604.788C52.3999 603.508 50.5793 602.445 48.7588 601.592C45.5953 600.117 42.4266 599.281 39.2479 599.092C38.6839 599.057 38.1959 599.505 38.1639 600.088C38.1298 600.672 38.5619 601.173 39.1292 601.208C42.0421 601.379 44.9701 602.155 47.9101 603.529C50.8365 604.897 53.7662 606.851 56.7029 609.392L57.6411 611.148C59.7036 615.001 61.8224 618.952 64.0481 622.959C64.0698 623.001 64.0904 623.036 64.1142 623.074C66.4446 627.259 68.8953 631.504 71.5354 635.755C68.1468 633.391 64.7579 631.475 61.3689 630.007C56.4018 627.853 51.4325 626.654 46.4674 626.416C45.9001 626.391 45.4191 626.843 45.392 627.43C45.3665 628.014 45.8052 628.51 46.3742 628.538C51.0978 628.766 55.8296 629.908 60.5712 631.965C65.3014 634.013 70.0418 636.975 74.7904 640.845C78.4554 646.401 82.4876 651.928 87.0333 657.317L87.035 657.32L87.0522 657.337L87.0539 657.341C89.2828 659.981 91.6386 662.585 94.1329 665.145C90.221 663.862 86.2763 663.001 82.2966 662.568C76.7502 661.96 71.1513 662.17 65.4981 663.197C64.9374 663.298 64.5652 663.851 64.6634 664.428C64.7599 665.005 65.2952 665.393 65.8555 665.291C71.3292 664.295 76.7383 664.089 82.0797 664.676C87.3636 665.256 92.5949 666.609 97.7724 668.738C99.5593 670.445 101.415 672.12 103.346 673.766L106.409 673.602C99.6813 668.053 93.8416 662.134 88.6711 656.019C86.3527 651.407 84.9334 646.4 84.4236 641.006C83.9036 635.527 84.3103 629.636 85.6412 623.328C85.7632 622.755 85.4108 622.189 84.857 622.066C84.3049 621.94 83.7545 622.304 83.6341 622.873C82.2555 629.394 81.839 635.509 82.3792 641.204C82.6856 644.442 83.3006 647.543 84.2236 650.508C77.0226 641.173 71.1833 631.513 65.9619 622.139C65.3486 617.468 65.1305 613.381 65.3079 609.881C65.4825 606.399 66.0481 603.525 67.0032 601.266C67.2283 600.728 66.9934 600.102 66.4733 599.868C65.9533 599.634 65.3469 599.878 65.1202 600.417C64.0637 602.92 63.4384 606.043 63.2507 609.776C63.1336 612.098 63.1846 614.671 63.4048 617.489C62.0517 615.003 60.7339 612.545 59.4387 610.126L58.431 608.241C58.4138 608.206 58.3953 608.172 58.3752 608.14C51.497 595.309 45.109 583.695 36.9882 575.007Z" fill="white"/>
<path fill-rule="evenodd" clip-rule="evenodd" d="M633.509 621.684C638.332 615.453 645.116 610.3 647.108 602.594C649.459 593.5 644.283 583.931 645.563 574.61C647.176 562.88 658.123 555.275 664.064 545.139C669.883 535.213 667.153 531.871 667.684 520.284C668.484 502.823 682.361 480.779 700.848 486.691C719.612 492.698 716.55 510.711 713.245 524.262C710.891 533.912 712.428 535.297 714.714 544.964C717.478 556.642 726.383 567.928 722.66 579.316C720.358 586.357 713.668 591.112 711.246 598.115C708.506 606.048 711.829 614.649 713.102 622.971C715.798 640.487 711.93 655.056 699.605 669.52C698.111 670.982 696.56 672.331 694.934 673.566C677.883 672.667 658.855 671.852 638.166 671.129C637.878 670.824 637.597 670.517 637.319 670.206C626.041 657.493 622.674 635.676 633.509 621.684Z" fill="#D2DFEE"/>
<path fill-rule="evenodd" clip-rule="evenodd" d="M692.319 502.466C692.61 501.676 693.471 501.281 694.236 501.581C694.998 501.882 695.381 502.77 695.09 503.557C693.623 507.518 692.394 511.657 691.337 515.972C691.763 515.576 692.201 515.189 692.651 514.815C694.666 513.144 696.953 511.682 699.51 510.434C700.252 510.074 701.135 510.403 701.484 511.168C701.83 511.93 701.515 512.843 700.773 513.203C698.426 514.35 696.336 515.682 694.507 517.199C692.773 518.637 691.265 520.245 689.989 522.024C688.092 531.37 686.852 541.418 685.737 552.009C687.455 549.25 689.287 546.778 691.239 544.593C694.626 540.789 698.375 537.835 702.487 535.73C703.219 535.356 704.106 535.668 704.472 536.422C704.835 537.178 704.533 538.097 703.801 538.468C700.035 540.398 696.573 543.132 693.42 546.666C690.287 550.18 687.469 554.481 684.962 559.564L684.678 562.438C684.045 568.749 683.398 575.228 682.632 581.84C682.629 581.902 682.622 581.969 682.612 582.032C681.806 588.94 680.878 596 679.699 603.174C682.903 598.066 686.351 593.552 690.043 589.629C695.456 583.878 701.39 579.396 707.846 576.186C708.585 575.822 709.472 576.141 709.827 576.903C710.183 577.665 709.871 578.577 709.133 578.948C702.989 582 697.336 586.269 692.171 591.762C687.015 597.237 682.348 603.926 678.161 611.824C676.336 621.33 674.009 631.015 670.923 640.805L670.92 640.808L670.91 640.847H670.907C669.396 645.651 667.695 650.476 665.785 655.322C670.273 651.346 675.039 647.909 680.079 645.014C687.104 640.976 694.647 637.994 702.708 636.067C703.504 635.875 704.304 636.385 704.486 637.21C704.676 638.035 704.175 638.857 703.379 639.049C695.572 640.916 688.283 643.794 681.518 647.681C674.825 651.531 668.623 656.377 662.92 662.216C661.517 665.436 660.01 668.659 658.395 671.89L655.119 671.757C660.528 661.128 664.725 650.524 668.041 640.038C668.596 632.57 667.742 625.102 665.466 617.644C663.163 610.078 659.403 602.498 654.187 594.904C653.72 594.219 653.876 593.261 654.539 592.775C655.207 592.286 656.131 592.447 656.605 593.135C661.998 600.985 665.893 608.848 668.291 616.722C669.652 621.197 670.533 625.669 670.926 630.14C675.377 613.554 677.846 597.341 679.648 581.87C677.907 575.311 675.963 569.762 673.815 565.22C671.678 560.706 669.361 557.225 666.855 554.781C666.259 554.2 666.231 553.232 666.794 552.62C667.356 552.004 668.294 551.976 668.887 552.557C671.665 555.263 674.199 559.042 676.488 563.885C677.911 566.899 679.249 570.339 680.498 574.206C680.932 570.123 681.338 566.091 681.735 562.13L682.043 559.043C682.043 558.987 682.05 558.928 682.06 558.875C684.17 537.853 686.297 518.717 692.319 502.466Z" fill="white"/>
<path fill-rule="evenodd" clip-rule="evenodd" d="M683.162 629.9C688.311 627.036 694.513 625.526 698.113 620.764C702.361 615.149 701.504 606.898 705.071 600.8C709.562 593.119 719.368 591.171 726.416 585.927C733.32 580.791 732.378 577.63 736.073 569.722C741.642 557.803 757.632 546.691 768.813 556.46C780.163 566.39 772.857 577.997 766.669 586.423C762.259 592.426 762.929 593.864 761.751 601.296C760.321 610.275 763.285 620.858 757.422 627.655C753.797 631.858 747.772 633.12 744.077 637.26C739.89 641.945 739.735 648.951 738.237 655.14C736.222 663.468 732.682 670.139 727.06 675.516C712.258 674.475 695.085 673.51 675.891 672.639C674.204 670.265 672.839 667.65 671.89 664.867C667.68 652.559 671.598 636.337 683.162 629.9Z" fill="#C5DEF8"/>
<path fill-rule="evenodd" clip-rule="evenodd" d="M758.344 564.841C758.774 564.383 759.486 564.369 759.933 564.813C760.377 565.257 760.39 565.991 759.96 566.449C757.806 568.756 755.756 571.267 753.782 573.949C754.191 573.802 754.608 573.669 755.031 573.543C756.919 572.998 758.926 572.68 761.064 572.592C761.688 572.568 762.206 573.068 762.23 573.704C762.253 574.344 761.772 574.882 761.153 574.907C759.188 574.987 757.345 575.277 755.638 575.774C754.019 576.246 752.508 576.903 751.106 577.753C747.103 583.682 743.357 590.301 739.539 597.339C741.527 595.94 743.512 594.78 745.497 593.853C748.952 592.241 752.414 591.332 755.878 591.123C756.498 591.087 757.027 591.573 757.064 592.21C757.098 592.846 756.627 593.395 756.011 593.434C752.834 593.622 749.636 594.468 746.426 595.969C743.235 597.458 740.037 599.591 736.833 602.363L735.807 604.28C733.557 608.482 731.244 612.797 728.815 617.167C728.792 617.212 728.771 617.254 728.744 617.293C726.204 621.863 723.528 626.495 720.646 631.131C724.344 628.555 728.04 626.464 731.738 624.863C737.161 622.51 742.584 621.202 748.003 620.943C748.62 620.912 749.145 621.409 749.176 622.045C749.202 622.688 748.722 623.23 748.106 623.258C742.95 623.506 737.785 624.754 732.613 626.995C727.451 629.236 722.275 632.464 717.093 636.687C713.096 642.75 708.697 648.784 703.734 654.662V654.665L703.714 654.686C701.279 657.567 698.708 660.413 695.988 663.203C700.256 661.805 704.561 660.868 708.903 660.392C714.956 659.728 721.066 659.959 727.234 661.081C727.843 661.19 728.253 661.791 728.149 662.42C728.04 663.056 727.457 663.476 726.848 663.367C720.873 662.277 714.966 662.053 709.14 662.692C703.376 663.325 697.665 664.804 692.015 667.129C689.895 669.15 687.683 671.136 685.376 673.084L681.996 672.923C689.59 666.727 696.155 660.098 701.946 653.246C704.48 648.215 706.024 642.75 706.583 636.862C707.149 630.883 706.705 624.457 705.252 617.573C705.124 616.946 705.503 616.331 706.109 616.195C706.716 616.059 707.312 616.454 707.444 617.08C708.948 624.191 709.405 630.862 708.816 637.082C708.477 640.613 707.806 643.998 706.8 647.235C714.662 637.044 721.033 626.506 726.727 616.275C727.397 611.178 727.635 606.717 727.445 602.898C727.255 599.098 726.635 595.962 725.592 593.497C725.345 592.909 725.606 592.228 726.171 591.969C726.737 591.717 727.401 591.982 727.648 592.57C728.803 595.304 729.484 598.709 729.687 602.783C729.816 605.318 729.762 608.122 729.521 611.202C730.995 608.489 732.431 605.804 733.847 603.164L734.948 601.108C734.964 601.069 734.985 601.034 735.008 600.996C742.51 586.997 749.487 574.319 758.344 564.841Z" fill="white"/>
<path fill-rule="evenodd" clip-rule="evenodd" d="M372.866 247.918C371.479 267.567 368.673 270.277 350.524 271.791C368.673 273.305 371.479 276.015 372.866 295.66C374.253 276.014 377.061 273.305 395.208 271.791C377.061 270.277 374.253 267.567 372.866 247.918ZM446.639 299.737C445.897 310.229 444.397 311.676 434.71 312.484C444.397 313.292 445.897 314.739 446.639 325.228C447.377 314.739 448.874 313.292 458.565 312.484C448.875 311.677 447.377 310.229 446.639 299.737ZM414.329 219C413.581 229.629 412.063 231.09 402.249 231.908C412.064 232.73 413.581 234.195 414.329 244.82C415.077 234.195 416.598 232.73 426.411 231.908C416.599 231.09 415.077 229.629 414.329 219Z" fill="white"/>
<path fill-rule="evenodd" clip-rule="evenodd" d="M346.116 570.062C347.238 585.981 349.513 588.177 364.215 589.4C349.513 590.627 347.238 592.823 346.116 608.741C344.991 592.823 342.717 590.627 328.015 589.4C342.717 588.177 344.991 585.981 346.116 570.062ZM286.35 612.042C286.95 620.542 288.165 621.713 296.013 622.37C288.165 623.024 286.95 624.195 286.35 632.695C285.75 624.195 284.536 623.024 276.687 622.37C284.536 621.713 285.75 620.542 286.35 612.042ZM312.524 546.637C313.13 555.245 314.361 556.43 322.311 557.094C314.361 557.755 313.13 558.944 312.524 567.552C311.916 558.944 310.687 557.755 302.735 557.094C310.687 556.43 311.916 555.245 312.524 546.637Z" fill="white"/>
<path fill-rule="evenodd" clip-rule="evenodd" d="M580.983 530.823C580.127 543.011 578.382 544.692 567.13 545.629C578.382 546.57 580.127 548.248 580.983 560.436C581.844 548.248 583.588 546.57 594.844 545.629C583.588 544.692 581.844 543.011 580.983 530.823ZM626.744 562.964C626.287 569.471 625.355 570.37 619.346 570.87C625.355 571.373 626.287 572.268 626.744 578.778C627.204 572.268 628.133 571.373 634.145 570.87C628.133 570.37 627.204 569.471 626.744 562.964ZM606.705 512.887C606.241 519.477 605.3 520.387 599.213 520.894C605.3 521.404 606.241 522.313 606.705 528.9C607.173 522.313 608.111 521.404 614.197 520.894C608.111 520.386 607.173 519.477 606.705 512.887Z" fill="white"/>
<path fill-rule="evenodd" clip-rule="evenodd" d="M602.568 686.319H301.966C297.309 686.319 293.498 682.385 293.498 677.578V206.229C293.498 201.422 297.308 197.488 301.966 197.488H602.568C607.225 197.488 611.035 201.422 611.035 206.229V677.578C611.035 682.385 607.225 686.319 602.568 686.319ZM301.968 649.981H602.568C603.953 649.981 605.088 648.814 605.088 647.384V206.229C605.088 204.799 603.953 203.628 602.568 203.628H301.968C300.583 203.628 299.449 204.799 299.449 206.229V647.384C299.449 648.814 300.582 649.981 301.968 649.981Z" fill="#5388FF"/>
<path fill-rule="evenodd" clip-rule="evenodd" d="M602.567 649.983H301.967C300.582 649.983 299.448 648.815 299.448 647.385V206.23C299.448 204.8 300.581 203.629 301.967 203.629H602.567C603.952 203.629 605.087 204.8 605.087 206.23V647.385C605.087 648.815 603.952 649.983 602.567 649.983Z" fill="white"/>
<path fill-rule="evenodd" clip-rule="evenodd" d="M602.567 649.983H301.967C300.582 649.983 299.448 648.815 299.448 647.385V206.23C299.448 204.8 300.581 203.629 301.967 203.629H602.567C603.952 203.629 605.087 204.8 605.087 206.23V647.385C605.087 648.815 603.952 649.983 602.567 649.983Z" fill="#71AFED"/>
<path d="M602.472 206.324H302.059V647.286H602.472V206.324Z" fill="#EFF9FC"/>
<path d="M602.472 206.324H302.059V229.83H602.472V206.324Z" fill="#D2E5F7"/>
<path fill-rule="evenodd" clip-rule="evenodd" d="M355.478 214.715C353.158 214.715 351.28 216.655 351.28 219.05C351.28 221.442 353.158 223.382 355.478 223.382C357.795 223.382 359.675 221.442 359.675 219.05C359.675 216.655 357.795 214.715 355.478 214.715ZM316.646 214.715C314.328 214.715 312.448 216.655 312.448 219.05C312.448 221.442 314.328 223.382 316.646 223.382C318.965 223.382 320.845 221.442 320.845 219.05C320.845 216.655 318.965 214.715 316.646 214.715ZM336.063 214.715C333.743 214.715 331.865 216.655 331.865 219.05C331.865 221.442 333.743 223.382 336.063 223.382C338.381 223.382 340.259 221.442 340.259 219.05C340.26 216.655 338.381 214.715 336.063 214.715Z" fill="white"/>
<path fill-rule="evenodd" clip-rule="evenodd" d="M291.23 239.565V310.813C291.23 311.719 291.949 312.456 292.824 312.456H292.829C293.707 312.456 294.423 311.719 294.423 310.813V239.565C294.423 238.66 293.706 237.922 292.829 237.922H292.824C291.949 237.922 291.23 238.66 291.23 239.565Z" fill="#61A0E0"/>
<path fill-rule="evenodd" clip-rule="evenodd" d="M291.23 316.593V387.844C291.23 388.746 291.949 389.487 292.824 389.487H292.829C293.707 389.487 294.423 388.746 294.423 387.844V316.593C294.423 315.691 293.706 314.949 292.829 314.949H292.824C291.949 314.949 291.23 315.691 291.23 316.593Z" fill="#61A0E0"/>
<path fill-rule="evenodd" clip-rule="evenodd" d="M610.656 302.006V373.258C610.656 374.16 611.367 374.902 612.248 374.902H612.252C613.129 374.902 613.844 374.161 613.844 373.258V302.006C613.844 301.104 613.129 300.363 612.252 300.363H612.248C611.367 300.363 610.656 301.104 610.656 302.006Z" fill="#61A0E0"/>
<path fill-rule="evenodd" clip-rule="evenodd" d="M222.209 553.98H251.215C252.903 553.98 254.284 555.407 254.284 557.145C254.284 558.886 252.902 560.312 251.215 560.312H222.209C220.523 560.312 219.143 558.89 219.143 557.145C219.143 555.404 220.523 553.98 222.209 553.98Z" fill="#F06A30"/>
<path fill-rule="evenodd" clip-rule="evenodd" d="M209.956 663.614C212.763 663.614 215.037 665.96 215.037 668.859C215.037 671.754 212.762 674.103 209.956 674.103C207.15 674.103 204.876 671.754 204.876 668.859C204.876 665.96 207.15 663.614 209.956 663.614ZM144.698 663.614C144.632 663.622 144.568 663.618 144.501 663.622C146.317 664.618 147.551 667.663 147.551 668.859C147.551 670.052 147.548 669.1 147.541 669.22H204.224C204.218 669.101 204.213 670.052 204.213 668.859C204.213 667.663 205.449 664.618 207.264 663.622C207.2 663.618 207.134 663.622 207.068 663.614L179.28 660.027L180.613 599.286H204.378C206.786 599.286 208.758 597.251 208.758 594.765V593.695C203.954 593.916 199.803 594.052 186.72 594.105C174.297 594.157 163.017 594.132 143.104 594.035V594.766C143.104 597.251 145.073 599.286 147.483 599.286H171.152L172.483 659.779L144.698 663.614ZM141.811 663.614C144.615 663.614 146.891 665.96 146.891 668.859C146.891 671.754 144.615 674.103 141.811 674.103C139.005 674.103 136.729 671.754 136.729 668.859C136.729 665.96 139.005 663.614 141.811 663.614Z" fill="#87644E"/>
<path fill-rule="evenodd" clip-rule="evenodd" d="M148.003 489.461H197.473C208.839 489.461 218.138 499.059 218.138 510.789V587.711H130.312V507.719C130.312 497.677 138.271 489.461 148.003 489.461Z" fill="#FC9774"/>
<path fill-rule="evenodd" clip-rule="evenodd" d="M130.312 587.71V507.718C130.312 499.921 135.11 493.225 141.808 490.621C132.551 491.174 125.146 499.162 125.146 508.851V596.447H240.422C246.104 596.447 246.063 587.71 240.463 587.71L130.312 587.71Z" fill="#F06A30"/>
<path fill-rule="evenodd" clip-rule="evenodd" d="M137.321 553.98H169.358C171.046 553.98 172.425 555.404 172.425 557.145C172.425 558.889 171.046 560.312 169.358 560.312H137.321C135.633 560.312 134.252 558.89 134.252 557.145C134.252 555.404 135.633 553.98 137.321 553.98Z" fill="#F06A30"/>
<path fill-rule="evenodd" clip-rule="evenodd" d="M147.436 560.309L140.059 587.709H136.875L144.252 560.309H147.436Z" fill="#F57A44"/>
<path fill-rule="evenodd" clip-rule="evenodd" d="M229.296 560.309L221.919 587.709H218.735L226.114 560.309H229.296Z" fill="#F06A30"/>
<path fill-rule="evenodd" clip-rule="evenodd" d="M142.005 604.037C138.4 602.39 135.231 602.474 131.326 602.051C129.131 603.76 131.421 605.463 133.394 605.841C138.379 606.795 140.874 607.274 140.874 607.274L144.684 605.536C154.219 605.246 162.225 604.064 171.692 602.764C172.186 602.701 172.533 602.232 172.469 601.722C172.405 601.212 171.953 600.851 171.458 600.918C163.431 602.019 157.4 602.855 153.363 603.421C151.572 603.67 143.121 603.877 142.005 604.037Z" fill="#87644E"/>
<path fill-rule="evenodd" clip-rule="evenodd" d="M168.645 669.832C168.227 671.951 166.411 673.549 164.233 673.549C162.057 673.549 160.239 671.951 159.821 669.832H168.645Z" fill="#87644E"/>
<path fill-rule="evenodd" clip-rule="evenodd" d="M191.943 669.832C191.527 671.951 189.709 673.549 187.533 673.549C185.355 673.549 183.539 671.951 183.121 669.832H191.943Z" fill="#87644E"/>
<path fill-rule="evenodd" clip-rule="evenodd" d="M173.419 487.273C179.741 487.273 184.867 489.846 184.867 493.014C184.867 496.182 179.741 498.755 173.419 498.755C167.098 498.755 161.972 496.182 161.972 493.014C161.972 489.847 167.098 487.273 173.419 487.273Z" fill="#FEFEFE"/>
<path fill-rule="evenodd" clip-rule="evenodd" d="M197.396 566.158L179.206 567.413C170.021 562.788 158.962 555.368 147.363 545.848C147.051 541.562 146.664 538.146 146.205 535.597C147.135 533.691 148.154 531.657 149.265 529.489C138.56 529.419 132.031 527.042 129.681 522.36C132.545 513.71 136.546 504.878 141.688 495.865C145.285 490.372 152.394 487.774 162.885 486.812C167.146 500.525 187.944 499.343 180.55 487.459C188.378 489.627 195.011 493.634 200.446 499.483C205.124 511.374 207.974 519.674 209.002 524.38C203.923 528.051 200.763 529.981 196.221 531.065C194.183 541.209 195.9 546.771 197.396 566.158Z" fill="#A4D0FC"/>
<path fill-rule="evenodd" clip-rule="evenodd" d="M144.314 574.25C145.576 570.278 146.484 566.152 147.036 561.883C155.56 565.288 165.307 568.575 177.63 573.599L175.967 580.144C157.344 580.77 146.794 578.806 144.314 574.25Z" fill="#699DEE"/>
<path fill-rule="evenodd" clip-rule="evenodd" d="M177.63 573.596C165.308 568.571 155.56 565.285 147.036 561.879C139.527 558.877 132.964 555.779 126.429 551.317C126.7 542.703 127.943 534.364 131.398 524.703C134.57 527.836 140.524 529.43 149.265 529.486C146.737 534.423 144.674 538.678 143.08 542.254C156.227 553.505 168.898 562.218 179.205 567.41L177.63 573.596Z" fill="#FFB27D"/>
<path fill-rule="evenodd" clip-rule="evenodd" d="M207.362 525.527C208.311 528.953 209.19 532.118 210 535.023H194.081C194.2 533.712 194.362 532.541 194.57 531.509C198.622 530.544 202.886 528.551 207.362 525.527Z" fill="#FFB27D"/>
<path fill-rule="evenodd" clip-rule="evenodd" d="M149.265 529.49C150.668 526.864 152.157 523.333 153.725 518.896C152.884 524.064 152.926 527.784 151.564 532.032C152.664 538.042 153.119 544.168 153.007 550.349C151.145 548.909 149.259 547.405 147.363 545.85C147.051 541.567 146.665 538.147 146.204 535.598C147.134 533.692 148.154 531.658 149.265 529.49ZM197.844 530.525C196.737 530.926 195.646 531.256 194.571 531.51C194.979 524.937 195.246 519.504 195.373 515.207C196.6 521.55 197.423 526.654 197.844 530.525ZM144.314 574.25C145.576 570.278 146.484 566.152 147.036 561.883C148.616 562.512 150.235 563.142 151.907 563.774C151.237 568.449 150.279 573.131 149.063 577.784C146.678 576.865 145.095 575.687 144.314 574.25Z" fill="#61A0E0"/>
<path fill-rule="evenodd" clip-rule="evenodd" d="M185.443 475.286C173.387 479.793 165.652 480.23 162.238 476.59C158.77 475.758 156.507 472.583 155.458 467.07C151.867 458.665 154.939 445.242 159.986 451.892C164.159 440.865 180.912 447.259 190.357 441.145C196.091 445.011 193.91 454.57 189.79 457.801C189.952 468.797 189.368 474.671 185.443 475.286Z" fill="#284191"/>
<path fill-rule="evenodd" clip-rule="evenodd" d="M157.261 453.092C158.565 452.054 158.983 450.921 158.521 449.693C156.519 448.532 154.617 448.494 152.812 449.578C153.909 449.644 155.391 450.816 157.261 453.092Z" fill="#284191"/>
<path fill-rule="evenodd" clip-rule="evenodd" d="M166.125 454.802C163.852 453.875 162.133 454.186 160.968 455.731C161.059 459.245 162.827 466.315 165.539 467.864C166.01 467.521 165.902 460.085 166.125 454.802Z" fill="#284191"/>
<path fill-rule="evenodd" clip-rule="evenodd" d="M166.974 451.406C163.133 453.333 161.866 455.067 163.172 456.612C168.967 457.493 174.515 456.85 179.818 454.675C176.624 454.983 172.343 453.896 166.974 451.406Z" fill="#284191"/>
<path fill-rule="evenodd" clip-rule="evenodd" d="M189.515 457.339C185.168 452.808 176.964 452.259 165.662 456.52C158.508 454.689 156.901 451.279 159.922 445.727C164.192 437.885 173.43 444.088 184.747 436.707C184.315 442.441 201.16 447.353 189.515 457.339Z" fill="#284191"/>
<path fill-rule="evenodd" clip-rule="evenodd" d="M162.331 461.192C165.329 460.532 165.046 466.891 164.821 470.041C164.375 476.24 157.608 462.227 162.331 461.192Z" fill="#FFB27D"/>
<path fill-rule="evenodd" clip-rule="evenodd" d="M158.733 487.252C160.395 487.374 163.103 486.784 163.567 486.175C165.335 483.86 166.558 481.444 167.014 479.92C166.668 478.906 166.306 477.63 165.932 476.081C159.53 471.592 158.656 468.274 163.305 466.12C164.243 466.662 165.407 468.333 166.797 471.134C167.907 471.088 168.747 470.501 169.319 469.375C167.998 464.652 167.139 460.816 166.74 457.866C169.895 453.027 177.268 452.338 187.037 453.642C187.489 456.327 187.862 459.166 188.152 462.169C189.367 463.323 192.905 482.661 180.905 483.448C180.825 484.864 180.952 486.598 181.042 486.794C181.181 487.102 181.675 487.395 182.359 487.647H182.361C182.548 494.234 174.612 494.272 158.733 487.252Z" fill="#FFB27D"/>
<path fill-rule="evenodd" clip-rule="evenodd" d="M187.036 453.643C177.269 452.339 169.892 453.028 166.739 457.867C167.138 460.814 167.997 464.653 169.318 469.377C168.747 470.502 167.906 471.09 166.796 471.135C165.406 468.335 164.242 466.663 163.304 466.121C158.654 468.275 159.529 471.593 165.929 476.082C166.305 477.631 166.668 478.911 167.011 479.921C161.253 478.589 156.435 473.275 155.758 470.974C149.039 457.307 156.532 451.535 160.54 449.43C162.31 435.9 181.347 447.86 190.887 441.336C194.678 446.741 189.991 453.521 187.036 453.643Z" fill="#284191"/>
<path fill-rule="evenodd" clip-rule="evenodd" d="M174.484 482.055C176.046 482.852 178.185 483.314 180.903 483.446C180.85 484.394 180.889 485.488 180.948 486.166C178.215 485.621 176.061 484.254 174.484 482.055Z" fill="#F08261"/>
<path fill-rule="evenodd" clip-rule="evenodd" d="M185.641 450.309C187.114 451.48 187.589 452.759 187.065 454.151C184.804 455.462 182.653 455.504 180.614 454.277C181.854 454.204 183.529 452.882 185.641 450.309Z" fill="#284191"/>
<path fill-rule="evenodd" clip-rule="evenodd" d="M157.846 487.333C166.22 491.281 173.242 493.501 177.213 493.396C178.527 493.361 179.627 493.105 180.506 492.637C181.446 492.134 182.132 491.396 182.56 490.424C182.928 489.592 183.1 488.921 183.073 487.77L181.396 487.176C181.418 488.057 181.254 489.106 180.997 489.686C180.732 490.284 180.306 490.746 179.716 491.057C179.069 491.406 178.219 491.595 177.173 491.62C173.46 491.718 168.957 490.641 160.826 486.809L157.846 487.333Z" fill="#61A0E0"/>
<path fill-rule="evenodd" clip-rule="evenodd" d="M181.664 495.728C182.132 495.805 182.574 495.476 182.646 494.994C182.721 494.507 182.403 494.053 181.934 493.977C180.289 493.707 178.558 493.596 176.745 493.637C174.931 493.679 173.033 493.875 171.06 494.225C170.59 494.309 170.275 494.77 170.355 495.253C170.435 495.735 170.88 496.06 171.349 495.98C173.253 495.641 175.063 495.452 176.779 495.414C178.494 495.372 180.125 495.476 181.664 495.728Z" fill="#61A0E0"/>
<path fill-rule="evenodd" clip-rule="evenodd" d="M180.271 497.685C180.735 497.786 181.194 497.479 181.292 497C181.39 496.521 181.094 496.049 180.628 495.944C179.379 495.671 178.055 495.556 176.672 495.598C175.295 495.643 173.857 495.843 172.36 496.2C171.898 496.308 171.608 496.787 171.713 497.266C171.818 497.741 172.282 498.042 172.742 497.934C174.136 497.602 175.464 497.413 176.719 497.375C177.964 497.336 179.151 497.44 180.271 497.685Z" fill="#61A0E0"/>
<path fill-rule="evenodd" clip-rule="evenodd" d="M174.95 459.654C174.161 459.619 173.492 460.251 173.458 461.066C173.423 461.884 174.034 462.573 174.825 462.612C175.616 462.647 176.283 462.014 176.319 461.199C176.355 460.381 175.742 459.692 174.95 459.654Z" fill="#BBDBFA"/>
<path fill-rule="evenodd" clip-rule="evenodd" d="M174.823 462.612C174.032 462.577 173.419 461.884 173.455 461.066C173.488 460.251 174.157 459.619 174.948 459.654C175.28 459.667 175.582 459.8 175.815 460.007L175.705 459.986C175.449 459.975 175.233 460.182 175.221 460.444C175.211 460.709 175.409 460.933 175.666 460.947C175.92 460.958 176.139 460.752 176.149 460.486V460.433C176.267 460.66 176.33 460.919 176.318 461.199C176.284 462.014 175.614 462.647 174.823 462.612Z" fill="#125AA3"/>
<path fill-rule="evenodd" clip-rule="evenodd" d="M176.462 458.585C176.496 458.613 176.523 458.63 176.552 458.662C176.506 458.529 176.343 458.358 176.277 458.253C176.342 458.302 176.38 458.32 176.449 458.4C176.504 458.474 176.543 458.55 176.587 458.638C176.591 458.536 176.548 458.47 176.536 458.379C176.587 458.446 176.628 458.578 176.638 458.662C176.618 458.365 176.608 458.386 176.484 458.11C176.61 458.187 176.711 458.452 176.739 458.603C176.766 458.54 176.762 458.452 176.759 458.368C176.815 458.466 176.816 458.515 176.819 458.616L176.891 458.504C176.88 458.574 176.862 458.592 176.855 458.648C176.992 458.529 177.222 458.134 177.185 457.938C177.165 458.022 177.116 458.183 177.073 458.231C177.083 458.092 177.124 457.931 177.092 457.77C177.058 457.875 177.077 458.015 177.053 458.13C177.031 458.245 176.994 458.379 176.944 458.452C176.975 458.211 177.031 458.012 176.951 457.753L176.946 457.816C176.949 457.942 176.963 458.078 176.943 458.2C176.9 457.98 176.91 457.77 176.723 457.613C176.766 457.704 176.81 457.756 176.848 457.865C176.746 457.767 176.699 457.581 176.538 457.571C176.612 457.651 176.682 457.704 176.762 457.819C176.822 457.91 176.916 458.064 176.887 458.183C176.762 457.781 176.526 457.581 176.253 457.522C176.328 457.557 176.565 457.714 176.59 457.812V457.833C176.578 457.942 176.57 457.736 176.585 457.854C176.64 457.893 176.705 457.98 176.743 458.046C176.766 458.085 176.79 458.137 176.807 458.186C176.816 458.207 176.827 458.253 176.833 458.274C176.834 458.298 176.833 458.295 176.833 458.316L176.829 458.344C176.739 458.074 176.643 457.931 176.455 457.788C176.342 457.7 176.078 457.553 175.928 457.543C175.932 457.547 175.937 457.547 175.94 457.547L176.066 457.603C176.37 457.746 176.669 457.918 176.78 458.302C176.763 458.284 176.779 458.302 176.753 458.27C176.745 458.26 176.745 458.257 176.738 458.246C176.667 458.137 176.594 458.022 176.503 457.931C176.401 457.833 176.278 457.742 176.174 457.686C176.035 457.617 175.595 457.473 175.376 457.512C175.443 457.505 175.856 457.61 175.925 457.634C176.079 457.69 176.279 457.767 176.399 457.918C176.335 457.904 176.267 457.862 176.206 457.834C175.82 457.684 175.151 457.459 174.76 457.505C175.004 457.544 175.356 457.635 175.546 457.732L175.393 457.708C175.436 457.725 175.471 457.75 175.519 457.768C175.562 457.785 175.597 457.799 175.641 457.823C175.851 457.932 176.172 458.124 176.296 458.344C176.24 458.295 176.168 458.246 176.101 458.194C176.03 458.141 175.971 458.1 175.896 458.05C175.763 457.967 175.614 457.868 175.466 457.806C175.157 457.673 174.863 457.565 174.521 457.509C174.567 457.526 174.616 457.54 174.657 457.586C174.381 457.589 173.919 457.386 173.226 457.394C173.376 457.439 173.624 457.442 173.793 457.488L173.95 457.541C173.859 457.548 173.557 457.485 173.437 457.467C172.841 457.387 172.47 457.327 171.828 457.369C171.418 457.397 171.036 457.422 170.634 457.625C170.375 457.757 170.133 457.912 169.925 458.108C169.849 458.181 169.813 458.23 169.754 458.296C169.915 458.201 170.26 457.806 170.619 457.705C170.079 458.076 169.651 458.401 169.285 458.873C169.386 458.796 169.529 458.642 169.64 458.541C169.768 458.429 169.895 458.324 170.028 458.219C170.267 458.037 170.654 457.779 170.966 457.68C170.898 457.743 170.705 457.855 170.613 457.918C169.945 458.365 169.307 458.869 168.73 459.428C168.66 459.498 168.526 459.663 168.474 459.701C168.538 459.67 168.782 459.45 168.863 459.38C169.293 459.037 169.701 458.722 170.238 458.526C170.103 458.652 169.136 459.121 168.841 459.436L169.668 458.942C169.918 458.803 170.345 458.582 170.626 458.526C170.304 458.61 169.077 459.278 168.836 459.516C168.967 459.46 169.155 459.338 169.295 459.26C169.461 459.173 169.625 459.093 169.796 459.016C170.142 458.862 170.513 458.725 170.884 458.652C171.385 458.551 171.866 458.53 172.359 458.554C172.499 458.558 172.692 458.582 172.825 458.576C172.742 458.53 172.499 458.527 172.41 458.52C172.125 458.492 171.839 458.488 171.55 458.499C171.435 458.506 171.202 458.547 171.108 458.541C171.446 458.429 171.716 458.446 172.007 458.39C171.98 458.39 171.995 458.394 171.97 458.387C171.941 458.38 171.956 458.384 171.934 458.37C172.116 458.341 172.47 458.387 172.639 458.422C172.842 458.457 173.25 458.597 173.271 458.6C173.22 458.562 173.173 458.544 173.132 458.506L173.625 458.597L173.015 458.401C173.136 458.411 173.299 458.464 173.417 458.492C173.562 458.52 173.859 458.576 173.992 458.618C174.151 458.674 174.441 458.695 174.602 458.688C174.546 458.656 174.346 458.61 174.26 458.586L173.931 458.489C173.868 458.468 173.818 458.457 173.764 458.433C173.61 458.359 173.449 458.31 173.289 458.254C173.001 458.157 172.171 457.954 171.879 458.058C172.255 457.908 173.059 458.114 173.343 458.212L174.007 458.45C174.068 458.464 174.112 458.488 174.172 458.51C174.331 458.566 174.498 458.628 174.666 458.667L174.654 458.632L174.653 458.624C174.651 458.624 174.651 458.621 174.649 458.617C174.649 458.617 174.648 458.614 174.649 458.61C174.707 458.645 174.88 458.701 174.957 458.708C174.793 458.561 174.395 458.464 174.25 458.275C174.387 458.309 174.553 458.421 174.68 458.498C174.725 458.526 174.771 458.54 174.814 458.565C174.699 458.379 174.478 458.229 174.304 458.113L174.107 458.005C174.266 458.008 174.463 458.155 174.59 458.257C174.715 458.358 174.826 458.484 174.936 458.606C174.948 458.62 174.945 458.616 174.959 458.631C174.982 458.652 174.971 458.641 174.992 458.648L174.83 458.396C174.859 458.446 175.071 458.645 175.086 458.715C175.054 458.578 174.962 458.477 174.903 458.372L175 458.438C174.839 458.183 174.47 458.019 174.239 457.868C174.461 457.879 174.876 458.175 175.034 458.379C175.109 458.473 175.163 458.596 175.234 458.672L175.151 458.473C175.156 458.476 175.16 458.476 175.163 458.48L175.276 458.602C175.18 458.351 175.047 458.218 174.892 458.067C174.959 458.077 175.01 458.119 175.064 458.168C175.114 458.211 175.164 458.267 175.208 458.322C175.298 458.441 175.378 458.571 175.442 458.721C175.449 458.658 175.401 458.546 175.374 458.472C175.418 458.482 175.381 458.469 175.424 458.493C175.493 458.535 175.544 458.637 175.588 458.7L175.553 458.546L175.664 458.696C175.634 458.556 175.585 458.479 175.548 458.36C175.632 458.416 175.676 458.521 175.724 458.63C175.734 458.581 175.71 458.504 175.69 458.444L175.812 458.559C175.844 458.602 175.876 458.65 175.907 458.689C175.866 458.552 175.804 458.486 175.742 458.384C175.871 458.462 175.922 458.58 176.02 458.713C175.986 458.556 175.863 458.328 175.773 458.237C175.91 458.251 176.015 458.619 176.084 458.692L176.072 458.531C176.084 458.542 176.077 458.535 176.098 458.559L176.189 458.713L176.169 458.507C176.225 458.559 176.237 458.629 176.281 458.706C176.275 458.699 176.272 458.535 176.238 458.444C176.267 458.454 176.243 458.44 176.278 458.468C176.339 458.524 176.368 458.612 176.426 458.668L176.357 458.51C176.378 458.518 176.365 458.51 176.389 458.524L176.462 458.585Z" fill="#125AA3"/>
<path fill-rule="evenodd" clip-rule="evenodd" d="M184.778 458.728C185.568 458.763 186.181 459.455 186.146 460.27C186.112 461.084 185.443 461.717 184.652 461.682C183.862 461.647 183.25 460.955 183.286 460.14C183.319 459.322 183.989 458.693 184.778 458.728Z" fill="#BBDBFA"/>
<path fill-rule="evenodd" clip-rule="evenodd" d="M184.654 461.683C185.444 461.721 186.114 461.085 186.149 460.27C186.183 459.456 185.572 458.763 184.779 458.729C184.449 458.711 184.139 458.812 183.888 458.998L183.998 458.987C184.254 459.001 184.454 459.225 184.442 459.491C184.431 459.753 184.214 459.96 183.958 459.949C183.703 459.935 183.503 459.711 183.515 459.449L183.519 459.393C183.382 459.61 183.298 459.865 183.286 460.141C183.25 460.956 183.863 461.648 184.654 461.683Z" fill="#125AA3"/>
<path fill-rule="evenodd" clip-rule="evenodd" d="M182.066 458.43C182.039 458.458 182.017 458.483 181.994 458.518C182.022 458.381 182.155 458.192 182.202 458.081C182.15 458.137 182.116 458.158 182.065 458.245C182.019 458.323 181.992 458.403 181.958 458.497C181.948 458.396 181.978 458.326 181.982 458.235C181.943 458.305 181.919 458.445 181.915 458.525C181.909 458.228 181.919 458.246 182.005 457.959C181.902 458.05 181.833 458.326 181.823 458.48C181.792 458.417 181.789 458.333 181.784 458.249C181.743 458.35 181.745 458.399 181.751 458.501L181.678 458.396C181.692 458.466 181.711 458.483 181.721 458.536C181.589 458.431 181.35 458.067 181.367 457.865C181.393 457.948 181.45 458.102 181.491 458.147C181.471 458.008 181.421 457.854 181.435 457.689C181.476 457.791 181.47 457.934 181.499 458.046C181.531 458.155 181.575 458.284 181.624 458.35C181.577 458.116 181.509 457.921 181.558 457.655L181.57 457.717C181.577 457.843 181.575 457.979 181.605 458.098C181.624 457.875 181.597 457.668 181.753 457.493C181.719 457.588 181.685 457.647 181.661 457.756C181.743 457.647 181.77 457.458 181.912 457.43C181.853 457.518 181.795 457.577 181.734 457.7C181.687 457.798 181.615 457.962 181.654 458.077C181.731 457.664 181.924 457.437 182.162 457.35C182.096 457.392 181.9 457.577 181.886 457.675L181.888 457.696C181.906 457.801 181.898 457.595 181.893 457.717C181.849 457.763 181.798 457.857 181.77 457.927C181.753 457.969 181.736 458.021 181.724 458.074C181.719 458.095 181.711 458.137 181.711 458.161C181.709 458.186 181.71 458.183 181.712 458.203L181.717 458.228C181.775 457.952 181.849 457.798 182.003 457.637C182.098 457.536 182.322 457.361 182.452 457.333C182.451 457.337 182.445 457.34 182.444 457.34L182.335 457.41C182.077 457.585 181.824 457.788 181.758 458.179C181.771 458.165 181.759 458.186 181.78 458.147C181.785 458.137 181.787 458.137 181.792 458.123C181.844 458.008 181.9 457.885 181.975 457.784C182.058 457.675 182.159 457.57 182.247 457.508C182.364 457.42 182.747 457.228 182.944 457.242C182.883 457.242 182.523 457.389 182.464 457.424C182.33 457.497 182.159 457.599 182.066 457.759C182.122 457.739 182.178 457.686 182.231 457.655C182.562 457.459 183.14 457.165 183.492 457.165C183.278 457.232 182.97 457.361 182.811 457.48L182.945 457.438C182.908 457.462 182.879 457.49 182.839 457.511C182.801 457.536 182.771 457.553 182.735 457.581C182.556 457.714 182.286 457.938 182.194 458.172C182.239 458.116 182.302 458.06 182.356 458.001C182.414 457.941 182.465 457.892 182.526 457.836C182.639 457.739 182.763 457.623 182.888 457.543C183.154 457.378 183.408 457.238 183.708 457.144C183.667 457.165 183.625 457.186 183.592 457.235C183.838 457.207 184.234 456.955 184.852 456.886C184.722 456.948 184.501 456.98 184.354 457.039L184.217 457.109C184.3 457.106 184.563 457.011 184.669 456.983C185.196 456.833 185.521 456.735 186.097 456.707C186.465 456.69 186.808 456.669 187.185 456.826C187.429 456.927 187.657 457.057 187.859 457.228C187.931 457.291 187.969 457.337 188.026 457.396C187.876 457.319 187.533 456.966 187.205 456.907C187.718 457.215 188.128 457.491 188.494 457.917C188.397 457.854 188.257 457.714 188.15 457.627C188.026 457.529 187.903 457.441 187.774 457.354C187.547 457.197 187.179 456.983 186.893 456.921C186.959 456.977 187.139 457.067 187.229 457.117C187.862 457.487 188.475 457.917 189.037 458.41C189.105 458.47 189.239 458.62 189.288 458.655C189.228 458.627 188.991 458.434 188.914 458.375C188.5 458.082 188.109 457.816 187.613 457.683C187.747 457.788 188.649 458.148 188.939 458.431L188.158 458.029C187.924 457.921 187.525 457.746 187.268 457.725C187.562 457.774 188.714 458.298 188.949 458.508C188.827 458.47 188.649 458.365 188.518 458.306C188.362 458.236 188.211 458.18 188.052 458.12C187.728 458.005 187.386 457.91 187.049 457.879C186.594 457.83 186.164 457.865 185.727 457.942C185.6 457.963 185.431 458.008 185.312 458.016C185.381 457.963 185.598 457.932 185.676 457.914C185.928 457.858 186.184 457.82 186.441 457.802C186.545 457.795 186.758 457.809 186.84 457.788C186.528 457.718 186.291 457.767 186.025 457.743C186.05 457.739 186.037 457.743 186.059 457.733C186.083 457.722 186.071 457.726 186.089 457.712C185.925 457.704 185.614 457.792 185.465 457.841C185.288 457.901 184.935 458.082 184.916 458.089C184.958 458.047 184.999 458.023 185.031 457.981L184.601 458.124L185.127 457.866C185.023 457.887 184.88 457.96 184.777 457.999C184.65 458.041 184.391 458.132 184.274 458.191C184.137 458.261 183.881 458.313 183.737 458.327C183.785 458.289 183.957 458.222 184.032 458.187L184.318 458.054C184.372 458.023 184.418 458.009 184.462 457.977C184.594 457.89 184.733 457.823 184.872 457.75C185.12 457.62 185.845 457.324 186.114 457.397C185.765 457.288 185.064 457.583 184.818 457.712L184.247 458.022C184.195 458.044 184.158 458.075 184.105 458.099C183.969 458.173 183.824 458.257 183.678 458.313L183.685 458.274C183.686 458.274 183.688 458.271 183.688 458.267V458.264C183.688 458.256 183.69 458.256 183.69 458.256C183.639 458.295 183.49 458.372 183.42 458.382C183.554 458.222 183.901 458.078 184.015 457.876C183.896 457.928 183.757 458.058 183.651 458.145C183.612 458.18 183.573 458.197 183.537 458.229C183.624 458.029 183.808 457.858 183.954 457.722L184.12 457.592C183.978 457.614 183.815 457.781 183.71 457.897C183.607 458.012 183.519 458.148 183.432 458.281C183.423 458.295 183.424 458.295 183.414 458.309C183.394 458.334 183.404 458.319 183.387 458.33L183.509 458.06C183.487 458.116 183.314 458.334 183.308 458.404C183.324 458.267 183.397 458.159 183.441 458.047L183.36 458.12C183.483 457.851 183.797 457.645 183.992 457.474C183.795 457.508 183.448 457.848 183.326 458.065C183.267 458.169 183.228 458.295 183.173 458.383L183.228 458.173C183.226 458.177 183.221 458.18 183.219 458.18L183.129 458.317C183.194 458.054 183.299 457.911 183.426 457.743C183.366 457.76 183.324 457.809 183.28 457.862C183.239 457.91 183.197 457.97 183.165 458.03C183.095 458.159 183.036 458.295 182.99 458.453C182.98 458.39 183.011 458.274 183.029 458.201C182.99 458.215 183.024 458.194 182.988 458.225C182.929 458.274 182.894 458.383 182.858 458.449L182.877 458.292L182.79 458.453C182.806 458.309 182.841 458.229 182.867 458.107C182.794 458.173 182.764 458.281 182.731 458.393C182.718 458.345 182.733 458.267 182.746 458.205L182.646 458.337C182.621 458.38 182.597 458.432 182.574 458.474C182.597 458.334 182.65 458.261 182.694 458.152C182.585 458.243 182.549 458.369 182.473 458.509C182.492 458.348 182.582 458.111 182.654 458.012C182.532 458.04 182.472 458.418 182.414 458.495L182.413 458.337C182.403 458.348 182.408 458.341 182.391 458.362L182.323 458.53V458.324C182.279 458.383 182.274 458.45 182.242 458.533C182.245 458.523 182.233 458.362 182.257 458.267C182.231 458.281 182.252 458.264 182.223 458.295C182.172 458.358 182.155 458.449 182.108 458.509L182.157 458.344C182.139 458.355 182.149 458.348 182.13 458.362L182.066 458.43Z" fill="#125AA3"/>
<path d="M180.856 469.689C180.776 469.689 180.699 469.654 180.651 469.584C180.577 469.469 180.592 469.322 180.699 469.242C180.848 469.123 181.066 469.102 181.346 469.074C182.113 468.993 182.704 468.857 182.747 467.902C182.731 467.378 180.733 462.161 180.304 461.773C180.201 461.679 180.191 461.518 180.281 461.413C180.372 461.308 180.531 461.301 180.629 461.388C181.171 461.878 183.265 467.364 183.241 467.923C183.176 469.398 182.018 469.517 181.395 469.58C181.247 469.597 181.046 469.619 180.995 469.65C180.953 469.675 180.905 469.689 180.856 469.689Z" fill="#FC9774"/>
<path fill-rule="evenodd" clip-rule="evenodd" d="M185.2 472.797C182.197 474.178 183.176 474.336 179.521 474.108C178.243 474.031 176.588 474.23 178.151 474.731C181.303 475.745 184.985 474.976 185.352 472.913L185.2 472.797Z" fill="#FC9774"/>
<path d="M388.078 565.156H149.025V580.76H388.078V565.156Z" fill="#61A0E0"/>
<path d="M149.026 565.156H83.8359V580.76H149.026V565.156Z" fill="#4F8ECC"/>
<path fill-rule="evenodd" clip-rule="evenodd" d="M369.2 690.007H159.431V580.762H383.92L369.2 690.007Z" fill="#407BFF"/>
<path fill-rule="evenodd" clip-rule="evenodd" d="M98.9557 690.007H159.431V580.762H90.2373L98.9557 690.007Z" fill="#203D7F"/>
<path fill-rule="evenodd" clip-rule="evenodd" d="M264.571 511.539H197.826C196.512 511.539 195.152 512.647 194.806 514.007L182.933 560.687C182.587 562.043 183.379 563.155 184.696 563.155H251.44C252.756 563.155 254.114 562.043 254.46 560.687L266.335 514.007C266.681 512.647 265.887 511.539 264.571 511.539Z" fill="#D2E5F7"/>
<path fill-rule="evenodd" clip-rule="evenodd" d="M185.317 544.573L193.381 512.883C193.726 511.526 195.084 510.418 196.399 510.418H201.007H263.145C264.459 510.418 266.803 512.17 266.414 513.516C266.476 512.39 265.723 511.54 264.571 511.54H197.826C196.512 511.54 195.153 512.649 194.806 514.009L182.933 560.688C182.724 561.503 182.928 562.227 183.407 562.677C182.308 561.943 181.259 560.53 181.505 559.565L185.317 544.573Z" fill="#61A0E0"/>
<path fill-rule="evenodd" clip-rule="evenodd" d="M184.696 563.155H251.441C251.687 563.155 251.932 563.116 252.174 563.043C250.845 566.599 247.236 566.074 245.827 566.06H166.694C162.404 565.871 162.516 562.77 162.46 559.777H181.472C181.411 560.725 182.387 561.994 183.407 562.676C183.726 562.976 184.17 563.155 184.696 563.155Z" fill="#4F8ECC"/>
<path fill-rule="evenodd" clip-rule="evenodd" d="M194.037 530.734C201.194 534.468 209.657 535.615 218.36 536.077C218.264 536.398 218.188 536.731 218.135 537.07C217.556 540.853 220.142 544.076 223.876 544.076C227.395 544.076 230.586 541.202 231.135 537.626C231.192 537.238 231.219 536.856 231.214 536.482C240.249 536.734 248.978 537.245 256.198 540.16L251.234 559.677H186.676L194.037 530.734Z" fill="#A4D0FC"/>
<path fill-rule="evenodd" clip-rule="evenodd" d="M225.321 532.875C222.929 532.875 220.684 534.879 220.303 537.347C219.926 539.819 221.558 541.819 223.951 541.819C226.343 541.819 228.588 539.819 228.967 537.347C229.347 534.879 227.715 532.875 225.321 532.875Z" fill="#A4D0FC"/>
<path fill-rule="evenodd" clip-rule="evenodd" d="M452.539 321.504C467.08 321.504 478.938 309.263 478.938 294.254C478.938 279.244 467.08 267 452.539 267C437.998 267 426.14 279.244 426.14 294.254C426.14 309.263 437.998 321.504 452.539 321.504Z" fill="#407BFF"/>
<path fill-rule="evenodd" clip-rule="evenodd" d="M452.539 584.641C467.08 584.641 478.938 572.397 478.938 557.39C478.938 542.377 467.08 530.137 452.539 530.137C437.998 530.137 426.14 542.377 426.14 557.39C426.14 572.397 437.998 584.641 452.539 584.641Z" fill="#407BFF"/>
<path d="M452.532 347.332L422.394 378.441L452.532 409.551L482.67 378.441L452.532 347.332Z" fill="#FC9774"/>
<path fill-rule="evenodd" clip-rule="evenodd" d="M336.009 441.289H377.142C381.61 441.289 385.266 445.062 385.266 449.673V463.043C385.266 467.655 381.61 471.427 377.142 471.427H336.009C331.539 471.427 327.885 467.655 327.885 463.043V449.673C327.885 445.062 331.539 441.289 336.009 441.289Z" fill="#FC9774"/>
<path fill-rule="evenodd" clip-rule="evenodd" d="M431.972 441.289H473.105C477.572 441.289 481.227 445.062 481.227 449.673V463.043C481.227 467.655 477.572 471.427 473.105 471.427H431.972C427.501 471.427 423.85 467.655 423.85 463.043V449.673C423.85 445.062 427.501 441.289 431.972 441.289Z" fill="#FC9774"/>
<path fill-rule="evenodd" clip-rule="evenodd" d="M527.932 441.289H569.066C573.533 441.289 577.191 445.062 577.191 449.673V463.043C577.191 467.655 573.533 471.427 569.066 471.427H527.932C523.465 471.427 519.807 467.655 519.807 463.043V449.673C519.807 445.062 523.465 441.289 527.932 441.289Z" fill="#FC9774"/>
<path fill-rule="evenodd" clip-rule="evenodd" d="M356.576 364.078H429.986V366.057H356.576V436.089H354.655V366.057C354.655 364.963 355.515 364.078 356.576 364.078ZM473.91 364.078H548.498C549.558 364.078 550.419 364.963 550.419 366.057V436.089H548.498V366.057H473.91V364.078ZM550.419 476.624V502.259C550.419 503.354 549.558 504.238 548.498 504.238H356.576C355.515 504.238 354.655 503.354 354.655 502.259V476.624H356.576V502.259H548.498V476.624H550.419Z" fill="#1E77D1"/>
<path fill-rule="evenodd" clip-rule="evenodd" d="M453.738 328.914V342.413H451.34V328.914H453.738ZM453.738 414.158V435.65H451.34V414.158H453.738ZM453.738 502.261V527.023H451.34V502.261H453.738Z" fill="#1E77D1"/>
<path fill-rule="evenodd" clip-rule="evenodd" d="M452.864 528.682L454.663 525.465L456.597 522.008C456.857 521.539 456.712 521.686 456.149 521.686H452.549H448.681C448.156 521.686 448.352 521.742 448.637 522.245L450.435 525.465L452.37 528.923C452.63 529.391 452.579 529.185 452.864 528.682Z" fill="#1E77D1"/>
<path fill-rule="evenodd" clip-rule="evenodd" d="M452.864 438.908L454.663 435.692L456.597 432.234C456.857 431.766 456.712 431.912 456.149 431.912H452.549H448.681C448.156 431.912 448.352 431.968 448.637 432.475L450.435 435.692L452.37 439.146C452.63 439.615 452.579 439.412 452.864 438.908Z" fill="#1E77D1"/>
<path fill-rule="evenodd" clip-rule="evenodd" d="M452.864 345.471L454.663 342.255L456.597 338.793C456.857 338.328 456.712 338.475 456.149 338.475H452.549H448.681C448.156 338.475 448.352 338.535 448.637 339.038L450.435 342.255L452.37 345.713C452.63 346.178 452.579 345.975 452.864 345.471Z" fill="#1E77D1"/>
<path fill-rule="evenodd" clip-rule="evenodd" d="M549.68 437.369L551.478 434.153L553.412 430.695C553.677 430.226 553.528 430.373 552.965 430.373H549.368H545.497C544.975 430.373 545.172 430.429 545.453 430.936L547.255 434.153L549.185 437.607C549.45 438.076 549.399 437.873 549.68 437.369Z" fill="#1E77D1"/>
<path fill-rule="evenodd" clip-rule="evenodd" d="M355.795 437.369L357.593 434.153L359.527 430.695C359.79 430.226 359.644 430.373 359.08 430.373H355.481H351.613C351.09 430.373 351.286 430.429 351.568 430.936L353.368 434.153L355.302 437.607C355.563 438.076 355.512 437.873 355.795 437.369Z" fill="#1E77D1"/>
<path fill-rule="evenodd" clip-rule="evenodd" d="M535.34 685.578L724.974 685.869C728.765 685.876 731.84 682.708 731.847 678.795L732.037 546.771C732.044 542.859 728.975 539.684 725.188 539.677L535.55 539.387C531.763 539.383 528.684 542.547 528.68 546.46L528.487 678.484C528.484 682.397 531.549 685.571 535.34 685.578Z" fill="#61A0E0"/>
<path fill-rule="evenodd" clip-rule="evenodd" d="M537.786 683.758L727.418 684.052C731.211 684.056 734.287 680.891 734.293 676.979L734.483 544.955C734.486 541.042 731.421 537.868 727.631 537.861L537.996 537.57C534.206 537.563 531.127 540.731 531.124 544.64L530.931 676.668C530.927 680.577 533.993 683.751 537.786 683.758Z" fill="#407BFF"/>
<path fill-rule="evenodd" clip-rule="evenodd" d="M544.206 676.024L721.014 676.297C724.469 676.3 727.277 673.412 727.28 669.842L727.45 552.065C727.456 548.496 724.659 545.597 721.2 545.593L544.396 545.324C540.942 545.317 538.133 548.205 538.13 551.771L537.961 669.552C537.954 673.122 540.752 676.017 544.206 676.024Z" fill="#FEFEFE"/>
<path fill-rule="evenodd" clip-rule="evenodd" d="M538.132 552.26L538.125 555.606L727.678 555.893L727.682 552.551C727.688 548.642 725.077 545.464 720.603 545.457L545.231 545.188C540.513 545.18 538.139 547.624 538.132 552.26Z" fill="#BBDBFA"/>
<path fill-rule="evenodd" clip-rule="evenodd" d="M560.459 550.423C560.459 551.514 561.313 552.395 562.366 552.399C563.419 552.399 564.28 551.521 564.28 550.43C564.28 549.339 563.426 548.455 562.372 548.451C561.316 548.451 560.459 549.332 560.459 550.423ZM546.734 550.402C546.731 551.493 547.588 552.374 548.642 552.377C549.695 552.381 550.555 551.496 550.555 550.409C550.555 549.318 549.701 548.434 548.645 548.43C547.591 548.43 546.734 549.311 546.734 550.402ZM553.596 550.413C553.593 551.503 554.45 552.388 555.504 552.388C556.557 552.388 557.418 551.507 557.418 550.416C557.418 549.329 556.564 548.445 555.507 548.445C554.454 548.441 553.596 549.322 553.596 550.413Z" fill="white"/>
<path fill-rule="evenodd" clip-rule="evenodd" d="M558.454 572.306L562.221 568.715L563.02 567.953L563.785 568.75L567.396 572.516L565.797 574.159L564.117 572.408V655.794H700.283L698.504 653.976L700.096 652.326L703.741 656.053L704.517 656.843L703.778 657.668L700.299 661.556L698.64 659.979L700.292 658.13H562.985H561.854V656.962V572.236L559.981 574.022L558.454 572.306ZM701.123 656.651V657.2L701.38 656.913L701.123 656.651Z" fill="#A4D0FC"/>
<path d="M592.047 656.497C591.671 656.497 591.366 656.182 591.366 655.794V652.979C591.366 652.591 591.671 652.277 592.047 652.277C592.423 652.277 592.728 652.591 592.728 652.979V655.794C592.728 656.182 592.423 656.497 592.047 656.497ZM592.047 649.462C591.671 649.462 591.366 649.147 591.366 648.759V645.948C591.366 645.56 591.671 645.245 592.047 645.245C592.423 645.245 592.728 645.56 592.728 645.948V648.759C592.728 649.147 592.423 649.462 592.047 649.462ZM592.047 642.431C591.671 642.431 591.366 642.116 591.366 641.728V638.913C591.366 638.526 591.671 638.211 592.047 638.211C592.423 638.211 592.728 638.526 592.728 638.913V641.728C592.728 642.116 592.423 642.431 592.047 642.431ZM592.047 635.396C591.671 635.396 591.366 635.082 591.366 634.694V631.882C591.366 631.494 591.671 631.18 592.047 631.18C592.423 631.18 592.728 631.494 592.728 631.882V634.694C592.728 635.082 592.423 635.396 592.047 635.396ZM592.047 628.365C591.671 628.365 591.366 628.05 591.366 627.662V626.05C591.366 625.662 591.671 625.348 592.047 625.348C592.423 625.348 592.728 625.662 592.728 626.05V627.662C592.728 628.05 592.423 628.365 592.047 628.365Z" fill="#A4D0FC"/>
<path d="M621.989 655.563C621.982 655.563 621.982 655.563 621.976 655.563C621.603 655.556 621.298 655.237 621.305 654.85L621.345 652.035C621.352 651.65 621.657 651.342 622.03 651.342H622.037C622.416 651.35 622.714 651.668 622.707 652.056L622.667 654.871C622.663 655.255 622.361 655.563 621.989 655.563ZM622.091 648.532C622.084 648.532 622.084 648.532 622.077 648.532C621.704 648.525 621.4 648.207 621.406 647.818L621.447 645.004C621.454 644.616 621.752 644.315 622.138 644.312C622.518 644.318 622.816 644.637 622.809 645.025L622.768 647.84C622.764 648.224 622.463 648.532 622.091 648.532ZM622.192 641.497C622.185 641.497 622.185 641.497 622.179 641.497C621.806 641.49 621.502 641.172 621.508 640.784L621.552 637.973C621.555 637.584 621.907 637.211 622.243 637.28C622.619 637.288 622.92 637.606 622.914 637.994L622.87 640.805C622.866 641.19 622.561 641.497 622.192 641.497ZM622.294 634.466C622.29 634.466 622.287 634.466 622.284 634.466C621.908 634.459 621.606 634.141 621.613 633.753L621.654 630.938C621.657 630.553 621.962 630.246 622.335 630.246C622.338 630.246 622.341 630.246 622.344 630.246C622.72 630.253 623.022 630.571 623.015 630.959L622.975 633.774C622.971 634.158 622.666 634.466 622.294 634.466ZM622.395 627.435C622.392 627.435 622.388 627.435 622.385 627.435C622.009 627.428 621.708 627.11 621.714 626.721L621.755 623.907C621.759 623.523 622.064 623.215 622.436 623.215C622.439 623.215 622.443 623.215 622.446 623.215C622.822 623.222 623.123 623.54 623.117 623.928L623.076 626.743C623.072 627.127 622.768 627.435 622.395 627.435ZM622.497 620.4C622.493 620.4 622.49 620.4 622.487 620.4C622.111 620.393 621.81 620.075 621.816 619.687L621.857 616.876C621.861 616.491 622.165 616.184 622.538 616.184C622.541 616.184 622.545 616.184 622.548 616.184C622.924 616.191 623.225 616.509 623.218 616.897L623.178 619.708C623.174 620.093 622.869 620.4 622.497 620.4ZM622.598 613.369C622.595 613.369 622.591 613.369 622.588 613.369C622.213 613.362 621.911 613.044 621.918 612.656L621.958 609.845C621.962 609.46 622.267 609.152 622.639 609.152C622.643 609.152 622.646 609.152 622.649 609.152C623.025 609.16 623.327 609.478 623.32 609.866L623.279 612.677C623.276 613.061 622.971 613.369 622.598 613.369ZM622.7 606.338H622.693C622.314 606.331 622.016 606.013 622.022 605.625L622.063 602.81C622.067 602.426 622.368 602.118 622.74 602.118C622.747 602.118 622.747 602.118 622.754 602.118C623.126 602.125 623.431 602.443 623.424 602.831L623.384 605.646C623.377 606.03 623.072 606.338 622.7 606.338ZM622.802 599.304H622.795C622.415 599.296 622.117 598.978 622.124 598.59L622.165 595.779C622.168 595.391 622.503 595.028 622.856 595.087C623.228 595.094 623.533 595.412 623.527 595.8L623.486 598.611C623.479 598.996 623.174 599.304 622.802 599.304ZM622.903 592.272H622.896C622.517 592.265 622.219 591.947 622.226 591.559L622.266 588.748C622.27 588.36 622.503 588.042 622.957 588.055C623.33 588.063 623.635 588.381 623.628 588.769L623.588 591.58C623.581 591.965 623.276 592.272 622.903 592.272ZM623.005 585.242C623.005 585.242 622.998 585.242 622.995 585.242C622.619 585.234 622.321 584.916 622.328 584.525V584.325C622.335 583.945 622.639 583.637 623.012 583.637C623.012 583.637 623.019 583.637 623.022 583.637C623.398 583.644 623.696 583.962 623.689 584.353V584.553C623.682 584.934 623.377 585.242 623.005 585.242Z" fill="#A4D0FC"/>
<path d="M651.91 656.5C651.537 656.5 651.232 656.185 651.232 655.797V652.982C651.232 652.594 651.537 652.28 651.91 652.28C652.289 652.28 652.594 652.594 652.594 652.982V655.797C652.594 656.185 652.289 656.5 651.91 656.5ZM651.91 649.465C651.537 649.465 651.232 649.151 651.232 648.763V645.951C651.232 645.563 651.537 645.249 651.91 645.249C652.289 645.249 652.594 645.563 652.594 645.951V648.763C652.594 649.151 652.289 649.465 651.91 649.465ZM651.91 642.434C651.537 642.434 651.232 642.119 651.232 641.731V638.917C651.232 638.529 651.537 638.214 651.91 638.214C652.289 638.214 652.594 638.529 652.594 638.917V641.731C652.594 642.119 652.289 642.434 651.91 642.434ZM651.91 635.399C651.537 635.399 651.232 635.085 651.232 634.697V631.886C651.232 631.498 651.537 631.183 651.91 631.183C652.289 631.183 652.594 631.498 652.594 631.886V634.697C652.594 635.085 652.289 635.399 651.91 635.399ZM651.91 628.368C651.537 628.368 651.232 628.054 651.232 627.666V624.851C651.232 624.463 651.537 624.148 651.91 624.148C652.289 624.148 652.594 624.463 652.594 624.851V627.666C652.594 628.054 652.289 628.368 651.91 628.368ZM651.91 621.334C651.537 621.334 651.232 621.019 651.232 620.631V617.82C651.232 617.432 651.537 617.117 651.91 617.117C652.289 617.117 652.594 617.432 652.594 617.82V620.631C652.594 621.019 652.289 621.334 651.91 621.334Z" fill="#A4D0FC"/>
<path d="M681.846 656.497C681.467 656.497 681.162 656.183 681.162 655.795V652.98C681.162 652.592 681.467 652.278 681.846 652.278C682.219 652.278 682.524 652.592 682.524 652.98V655.795C682.524 656.183 682.219 656.497 681.846 656.497ZM681.846 649.463C681.467 649.463 681.162 649.148 681.162 648.76V645.949C681.162 645.561 681.467 645.246 681.846 645.246C682.219 645.246 682.524 645.561 682.524 645.949V648.76C682.524 649.148 682.219 649.463 681.846 649.463ZM681.846 642.432C681.467 642.432 681.162 642.117 681.162 641.729V638.914C681.162 638.526 681.467 638.212 681.846 638.212C682.219 638.212 682.524 638.526 682.524 638.914V641.729C682.524 642.117 682.219 642.432 681.846 642.432ZM681.846 635.397C681.467 635.397 681.162 635.083 681.162 634.695V631.883C681.162 631.495 681.467 631.181 681.846 631.181C682.219 631.181 682.524 631.495 682.524 631.883V634.695C682.524 635.083 682.219 635.397 681.846 635.397ZM681.846 628.366C681.467 628.366 681.162 628.051 681.162 627.663V624.849C681.162 624.461 681.467 624.146 681.846 624.146C682.219 624.146 682.524 624.461 682.524 624.849V627.663C682.524 628.051 682.219 628.366 681.846 628.366ZM681.846 621.331C681.467 621.331 681.162 621.017 681.162 620.629V617.818C681.162 617.43 681.467 617.115 681.846 617.115C682.219 617.115 682.524 617.43 682.524 617.818V620.629C682.524 621.017 682.219 621.331 681.846 621.331ZM681.846 614.3C681.467 614.3 681.162 613.986 681.162 613.598V610.783C681.162 610.395 681.467 610.08 681.846 610.08C682.219 610.08 682.524 610.395 682.524 610.783V613.598C682.524 613.986 682.219 614.3 681.846 614.3ZM681.846 607.266C681.467 607.266 681.162 606.951 681.162 606.563V603.752C681.162 603.364 681.467 603.05 681.846 603.05C682.219 603.05 682.524 603.364 682.524 603.752V606.563C682.524 606.951 682.219 607.266 681.846 607.266ZM681.846 600.235C681.467 600.235 681.162 599.92 681.162 599.532V596.718C681.162 596.33 681.467 596.015 681.846 596.015C682.219 596.015 682.524 596.33 682.524 596.718V599.532C682.524 599.92 682.219 600.235 681.846 600.235ZM681.846 593.2C681.467 593.2 681.162 592.886 681.162 592.498V589.683C681.162 589.295 681.467 588.98 681.846 588.98C682.219 588.98 682.524 589.295 682.524 589.683V592.498C682.524 592.886 682.219 593.2 681.846 593.2Z" fill="#A4D0FC"/>
<path d="M565.147 627.777C564.489 627.777 563.948 627.228 563.944 626.547C563.941 625.862 564.473 625.302 565.136 625.295L591.458 625.075L622.89 583.405L651.905 613.324L680.986 582.864C681.457 582.371 682.219 582.371 682.687 582.85C683.161 583.332 683.168 584.115 682.7 584.605L651.918 616.848L623.114 587.147L592.637 627.543L565.157 627.777C565.153 627.777 565.15 627.777 565.147 627.777Z" fill="#1E77D1"/>
<path fill-rule="evenodd" clip-rule="evenodd" d="M641.288 560.492H721.352C722.145 560.492 722.796 561.164 722.796 561.982C722.796 562.8 722.145 563.471 721.352 563.471H641.288C640.492 563.471 639.845 562.8 639.845 561.982C639.845 561.164 640.492 560.492 641.288 560.492Z" fill="#8BBAE9"/>
<path fill-rule="evenodd" clip-rule="evenodd" d="M641.288 567.008H721.352C722.145 567.008 722.796 567.676 722.796 568.494V568.497C722.796 569.316 722.145 569.987 721.352 569.987H641.288C640.492 569.987 639.845 569.316 639.845 568.497V568.494C639.845 567.676 640.492 567.008 641.288 567.008Z" fill="#8BBAE9"/>
<path fill-rule="evenodd" clip-rule="evenodd" d="M686.906 578.085L685.887 582.735L684.789 587.738C684.64 588.413 684.63 588.147 684.095 587.637L680.701 584.399L677.057 580.917C676.562 580.449 676.796 580.567 677.487 580.347L681.9 578.934L686.646 577.414C687.286 577.207 687.069 577.354 686.906 578.085Z" fill="#1E77D1"/>
<path d="M543.296 595.65L531.332 609.328L536.596 614.234L548.56 600.556L543.296 595.65Z" fill="#FBBFA8"/>
<path fill-rule="evenodd" clip-rule="evenodd" d="M629.299 503.725C604.508 480.618 566.265 482.628 543.876 508.218C523.675 531.315 523.295 565.722 541.637 589.196L541.325 589.553C540.058 591.001 540.17 593.252 541.572 594.56L550.674 603.042C552.076 604.35 554.26 604.234 555.527 602.79L555.839 602.434C580.328 618.88 613.447 614.996 633.648 591.902C656.037 566.309 654.089 526.836 629.299 503.725ZM623.639 510.193C644.968 530.077 646.648 564.044 627.385 586.06C608.122 608.076 575.22 609.807 553.888 589.923C532.559 570.043 530.883 536.077 550.142 514.06C569.405 492.044 602.31 490.313 623.639 510.193Z" fill="#FC9774"/>
<path fill-rule="evenodd" clip-rule="evenodd" d="M542.243 607.838L536.976 602.929C536.166 602.174 534.903 602.237 534.171 603.077L523.262 615.548L523.245 615.565L499.681 642.504L499.674 642.508L493.146 649.969L469.575 676.912C468.844 677.751 468.911 679.052 469.721 679.806L474.984 684.715C475.794 685.47 477.06 685.404 477.792 684.568L488.705 672.093L488.719 672.076L512.286 645.137L518.816 637.676V637.672L542.384 610.733C543.117 609.894 543.052 608.593 542.243 607.838Z" fill="#F57A44"/>
<g opacity="0.4">
<path fill-rule="evenodd" clip-rule="evenodd" d="M550.141 514.058C530.882 536.075 532.558 570.041 553.887 589.921C575.216 609.805 608.121 608.075 627.384 586.058C646.647 564.042 644.967 530.071 623.638 510.192C602.309 490.312 569.407 492.042 550.141 514.058Z" fill="#DFEDFA"/>
</g>
<g opacity="0.4">
<path fill-rule="evenodd" clip-rule="evenodd" d="M613.495 597.339L618.569 506.019C617.282 505.092 615.971 504.232 614.63 503.438L609.295 599.43C610.721 598.801 612.12 598.105 613.495 597.339ZM587.621 603.762L593.575 496.572C585.351 495.789 577.002 497.026 569.273 500.243L563.888 597.252C571.298 601.423 579.451 603.58 587.621 603.762ZM605.62 600.888C602.667 601.93 599.638 602.688 596.573 603.168L602.405 498.212C605.383 499.044 608.306 500.156 611.138 501.547L605.62 600.888Z" fill="#FEFEFE"/>
</g>
<path fill-rule="evenodd" clip-rule="evenodd" d="M243.474 236.769C243.916 236.772 244.271 237.147 244.269 237.601C244.266 238.059 243.903 238.423 243.463 238.419L139.832 237.545C139.39 237.538 139.035 237.167 139.038 236.713C139.041 236.255 139.404 235.888 139.844 235.895L243.474 236.769ZM275.192 320.089C275.386 320.499 275.224 320.995 274.828 321.198C274.431 321.397 273.95 321.229 273.756 320.82L245.092 260.774L139.409 259.9C138.967 259.9 138.611 259.526 138.614 259.072C138.618 258.614 138.979 258.25 139.42 258.25L245.554 259.131C245.864 259.117 246.167 259.285 246.311 259.589L275.192 320.089ZM243.474 251.677C243.916 251.681 244.271 252.051 244.269 252.509C244.266 252.964 243.903 253.328 243.463 253.328L139.832 252.45C139.39 252.446 139.035 252.072 139.038 251.618C139.041 251.163 139.404 250.796 139.844 250.8L243.474 251.677ZM243.474 244.223C243.916 244.227 244.271 244.601 244.269 245.055C244.266 245.51 243.903 245.877 243.463 245.873L139.832 244.996C139.39 244.992 139.035 244.622 139.038 244.164C139.041 243.709 139.404 243.342 139.844 243.346L243.474 244.223Z" fill="#61A0E0"/>
<path fill-rule="evenodd" clip-rule="evenodd" d="M69.1325 322.742H331.041C334.447 322.742 337.236 325.62 337.236 329.137V393.592C337.236 397.105 334.446 399.987 331.041 399.987H69.1325C65.7267 399.987 62.9375 397.109 62.9375 393.592V329.137C62.9375 325.62 65.7251 322.742 69.1325 322.742Z" fill="white"/>
<path fill-rule="evenodd" clip-rule="evenodd" d="M69.1321 322.336H86.4485C86.2842 322.577 86.2078 322.854 86.2132 323.147H69.1321C65.9411 323.147 63.3302 325.843 63.3302 329.136V342.908C63.0878 342.744 62.8323 342.681 62.5443 342.684V329.136C62.5443 325.395 65.5061 322.336 69.1321 322.336ZM63.3302 357.037V393.591C63.3302 396.885 65.9415 399.58 69.1321 399.58H112.32C112.352 399.8 112.401 400.013 112.462 400.219L112.245 400.391H69.1321C65.5061 400.391 62.5439 397.331 62.5439 393.59V357.04C62.7982 357.121 63.0759 357.121 63.3302 357.037ZM310.146 399.58H331.041C334.232 399.58 336.845 396.885 336.845 393.591V345.073C337.152 345.031 337.425 344.88 337.628 344.66V393.591C337.628 397.332 334.666 400.392 331.041 400.392H310.69C310.612 400.055 310.415 399.769 310.146 399.58ZM336.784 328.287C336.379 325.392 333.951 323.147 331.041 323.147H107.384C107.493 322.892 107.52 322.609 107.469 322.336H331.041C334.381 322.336 337.157 324.934 337.573 328.269C337.329 328.269 337.021 328.248 336.784 328.287Z" fill="#1E77D1"/>
<path fill-rule="evenodd" clip-rule="evenodd" d="M129.341 329.547C142.386 333.753 151.853 346.319 151.853 361.171V361.328L130.608 362.51C130.655 362.073 130.684 361.626 130.684 361.171C130.684 357.203 128.697 353.717 125.696 351.706L129.341 329.547Z" fill="#FC9774"/>
<path fill-rule="evenodd" clip-rule="evenodd" d="M139.378 387.587C146.319 382.05 151.003 373.637 151.753 364.078L130.011 365.288C129.42 366.931 128.467 368.396 127.251 369.574L139.378 387.587Z" fill="#407BFF"/>
<path fill-rule="evenodd" clip-rule="evenodd" d="M97.9912 385.701C103.714 391.159 111.362 394.494 119.763 394.494C126.048 394.494 131.909 392.627 136.86 389.407L124.741 371.408C123.249 372.198 121.557 372.642 119.763 372.642C117.286 372.642 115.001 371.789 113.169 370.355L97.9912 385.701Z" fill="#407BFF"/>
<path fill-rule="evenodd" clip-rule="evenodd" d="M92.8811 343.266C89.587 348.468 87.6699 354.685 87.6699 361.366C87.6699 369.845 90.759 377.578 95.8379 383.442L111.006 368.104C109.645 366.223 108.841 363.891 108.841 361.366C108.841 359.485 109.285 357.713 110.076 356.15L92.8811 343.266Z" fill="#407BFF"/>
<path fill-rule="evenodd" clip-rule="evenodd" d="M123.175 350.646L126.73 329.018C124.488 328.504 122.157 328.234 119.765 328.234C109.613 328.234 100.565 333.101 94.6826 340.695L111.866 353.576C113.855 351.426 116.66 350.086 119.765 350.086C120.955 350.086 122.101 350.282 123.175 350.646Z" fill="#407BFF"/>
<path fill-rule="evenodd" clip-rule="evenodd" d="M209.663 329.547C222.711 333.753 232.177 346.319 232.177 361.171V361.328L210.93 362.51C210.979 362.073 211.006 361.626 211.006 361.171C211.006 357.203 209.02 353.717 206.021 351.706L209.663 329.547Z" fill="#407BFF"/>
<path fill-rule="evenodd" clip-rule="evenodd" d="M219.703 387.587C226.644 382.05 231.327 373.637 232.077 364.078L210.337 365.288C209.745 366.931 208.793 368.396 207.575 369.574L219.703 387.587Z" fill="#407BFF"/>
<path fill-rule="evenodd" clip-rule="evenodd" d="M178.317 385.701C184.038 391.159 191.686 394.494 200.09 394.494C206.373 394.494 212.236 392.627 217.187 389.407L205.067 371.408C203.574 372.198 201.884 372.642 200.09 372.642C197.612 372.642 195.328 371.789 193.495 370.355L178.317 385.701Z" fill="#407BFF"/>
<path fill-rule="evenodd" clip-rule="evenodd" d="M173.205 343.266C169.911 348.468 167.994 354.685 167.994 361.366C167.994 369.845 171.083 377.578 176.162 383.442L191.329 368.104C189.968 366.223 189.163 363.891 189.163 361.366C189.163 359.485 189.609 357.713 190.398 356.15L173.205 343.266Z" fill="#FC9774"/>
<path fill-rule="evenodd" clip-rule="evenodd" d="M203.501 350.646L207.056 329.018C204.814 328.504 202.483 328.234 200.09 328.234C189.939 328.234 180.89 333.101 175.009 340.695L192.192 353.576C194.18 351.426 196.984 350.086 200.091 350.086C201.281 350.086 202.427 350.282 203.501 350.646Z" fill="#407BFF"/>
<path fill-rule="evenodd" clip-rule="evenodd" d="M289.99 329.547C303.035 333.753 312.502 346.319 312.502 361.171V361.328L291.256 362.51C291.306 362.073 291.332 361.626 291.332 361.171C291.332 357.203 289.346 353.717 286.345 351.706L289.99 329.547Z" fill="#407BFF"/>
<path fill-rule="evenodd" clip-rule="evenodd" d="M300.027 387.587C306.971 382.05 311.654 373.637 312.404 364.078L290.662 365.288C290.071 366.931 289.117 368.396 287.901 369.574L300.027 387.587Z" fill="#407BFF"/>
<path fill-rule="evenodd" clip-rule="evenodd" d="M258.643 385.701C264.364 391.159 272.011 394.494 280.415 394.494C286.7 394.494 292.561 392.627 297.512 389.407L285.394 371.408C283.9 372.198 282.208 372.642 280.415 372.642C277.937 372.642 275.653 371.789 273.822 370.355L258.643 385.701Z" fill="#407BFF"/>
<path fill-rule="evenodd" clip-rule="evenodd" d="M253.53 343.266C250.236 348.468 248.32 354.685 248.32 361.366C248.32 369.845 251.408 377.578 256.487 383.442L271.654 368.104C270.294 366.223 269.488 363.891 269.488 361.366C269.488 359.485 269.935 357.713 270.724 356.15L253.53 343.266Z" fill="#407BFF"/>
<path fill-rule="evenodd" clip-rule="evenodd" d="M283.824 350.646L287.379 329.018C285.138 328.504 282.807 328.234 280.414 328.234C270.262 328.234 261.215 333.101 255.332 340.695L272.515 353.576C274.505 351.426 277.308 350.086 280.414 350.086C281.604 350.086 282.752 350.282 283.824 350.646Z" fill="#FC9774"/>
<path fill-rule="evenodd" clip-rule="evenodd" d="M645.555 385.771L640.887 388.572C639.313 389.519 638.774 391.621 639.692 393.243L640.722 395.075C641.938 397.229 641.406 398.208 641.03 398.554C639.99 399.516 639.028 400.558 638.06 401.596C637.775 401.9 636.874 402.942 634.503 401.519L632.874 400.543C631.299 399.599 629.267 400.152 628.349 401.777L625.636 406.595C624.718 408.221 625.256 410.322 626.831 411.266L628.444 412.235C630.669 413.57 630.611 414.256 630.33 415.228C629.945 416.567 629.528 417.902 629.246 419.287C628.992 420.521 629.104 421.402 626.076 421.402H624.227C622.401 421.402 620.914 422.933 620.914 424.818V430.391C620.914 432.275 622.401 433.807 624.227 433.807H626.076C629.104 433.807 628.992 434.688 629.246 435.922C629.528 437.306 629.944 438.646 630.33 439.981C630.612 440.953 630.669 441.638 628.444 442.974L626.831 443.942C625.256 444.887 624.717 446.988 625.636 448.614L628.349 453.432C629.266 455.057 631.299 455.61 632.874 454.666L634.503 453.69C636.874 452.267 637.775 453.309 638.06 453.613C639.028 454.651 639.99 455.693 641.03 456.651C641.406 457.001 641.938 457.976 640.722 460.134L639.692 461.966C638.774 463.588 639.313 465.689 640.887 466.637L645.555 469.437C647.13 470.382 649.166 469.825 650.083 468.203L651.106 466.378C652.343 464.189 653.558 464.273 654.07 464.441C655.557 464.93 656.932 465.248 658.47 465.661C659.032 465.812 659.99 466.231 659.99 468.843V470.797C659.99 472.678 661.477 474.217 663.3 474.217H668.699C670.525 474.217 672.012 472.678 672.012 470.797V468.843C672.012 466.231 672.974 465.812 673.536 465.661C675.07 465.248 676.446 464.93 677.932 464.441C678.447 464.273 679.66 464.189 680.893 466.378L681.922 468.203C682.837 469.825 684.876 470.382 686.448 469.437L691.115 466.637C692.69 465.689 693.229 463.588 692.314 461.966L691.284 460.134C690.068 457.976 690.597 457.001 690.973 456.651C692.012 455.693 692.978 454.651 693.94 453.613C694.224 453.309 695.129 452.267 697.503 453.69L699.129 454.666C700.704 455.61 702.74 455.057 703.654 453.432L706.371 448.614C707.285 446.988 706.747 444.887 705.171 443.942L703.56 442.974C701.337 441.639 701.392 440.953 701.676 439.981C702.062 438.646 702.476 437.306 702.76 435.922C703.011 434.688 702.899 433.807 705.924 433.807H707.78C709.602 433.807 711.092 432.275 711.092 430.391V424.818C711.092 422.934 709.602 421.402 707.78 421.402H705.924C702.899 421.402 703.011 420.521 702.76 419.287C702.476 417.902 702.063 416.567 701.676 415.228C701.392 414.256 701.337 413.57 703.56 412.235L705.171 411.266C706.747 410.322 707.285 408.221 706.371 406.595L703.654 401.777C702.74 400.152 700.704 399.599 699.129 400.543L697.503 401.519C695.129 402.942 694.225 401.9 693.94 401.596C692.978 400.557 692.013 399.515 690.973 398.554C690.597 398.208 690.068 397.229 691.284 395.075L692.314 393.243C693.229 391.621 692.69 389.519 691.115 388.572L686.448 385.771C684.876 384.824 682.837 385.383 681.922 387.006L680.893 388.831C679.66 391.02 678.447 390.936 677.932 390.768C676.446 390.278 675.07 389.96 673.536 389.547C672.974 389.397 672.012 388.977 672.012 386.366V384.412C672.012 382.531 670.525 380.992 668.699 380.992H663.3C661.477 380.992 659.99 382.531 659.99 384.412V386.366C659.99 388.978 659.032 389.397 658.47 389.547C656.932 389.96 655.557 390.278 654.07 390.768C653.558 390.936 652.343 391.02 651.106 388.831L650.083 387.006C649.166 385.383 647.13 384.824 645.555 385.771ZM666.003 420.245C669.939 420.245 673.133 423.539 673.133 427.605C673.133 431.667 669.939 434.965 666.003 434.965C662.064 434.965 658.87 431.668 658.87 427.605C658.87 423.539 662.064 420.245 666.003 420.245ZM643.648 427.605C643.648 426.735 644.332 426.032 645.176 426.032C646.019 426.032 646.703 426.735 646.703 427.605C646.703 433.108 648.864 438.087 652.353 441.692C655.849 445.297 660.672 447.528 666.003 447.528C666.843 447.528 667.527 448.234 667.527 449.101C667.527 449.972 666.843 450.678 666.003 450.678C659.832 450.678 654.243 448.094 650.199 443.919C646.155 439.744 643.648 433.975 643.648 427.605ZM688.06 423.889C688.188 424.745 687.626 425.549 686.796 425.685C685.966 425.822 685.187 425.238 685.056 424.381C684.402 420.207 682.484 416.466 679.724 413.588C676.96 410.707 673.353 408.69 669.315 407.973C668.485 407.827 667.926 407.015 668.069 406.159C668.211 405.302 668.997 404.725 669.827 404.872C674.505 405.704 678.684 408.04 681.881 411.375C685.079 414.707 687.298 419.046 688.06 423.889ZM666.003 400.267C680.628 400.267 692.487 412.508 692.487 427.605C692.487 442.702 680.629 454.942 666.003 454.942C651.377 454.942 639.516 442.702 639.516 427.605C639.516 412.507 651.378 400.267 666.003 400.267Z" fill="#A4D0FC"/>
<path fill-rule="evenodd" clip-rule="evenodd" d="M231.208 145.28L226.539 148.084C224.965 149.028 224.427 151.129 225.341 152.755L226.373 154.58C227.587 156.741 227.059 157.716 226.681 158.062C225.641 159.024 224.679 160.065 223.712 161.104C223.429 161.408 222.527 162.45 220.154 161.027L218.525 160.051C216.951 159.104 214.916 159.663 214.001 161.286L211.285 166.104C210.37 167.729 210.909 169.831 212.482 170.775L214.096 171.743C216.321 173.079 216.264 173.764 215.981 174.74C215.595 176.075 215.178 177.411 214.895 178.795C214.643 180.026 214.756 180.907 211.73 180.907H209.874C208.051 180.907 206.564 182.445 206.564 184.326V189.899C206.564 191.78 208.051 193.319 209.874 193.319H211.73C214.756 193.319 214.642 194.196 214.895 195.43C215.178 196.815 215.595 198.15 215.981 199.49C216.263 200.465 216.321 201.15 214.096 202.482L212.482 203.451C210.909 204.395 210.37 206.496 211.285 208.122L214.001 212.94C214.916 214.565 216.951 215.121 218.525 214.177L220.154 213.198C222.527 211.775 223.429 212.817 223.712 213.122C224.679 214.16 225.641 215.202 226.681 216.163C227.058 216.513 227.587 217.485 226.373 219.646L225.341 221.471C224.427 223.096 224.965 225.198 226.539 226.142L231.208 228.946C232.781 229.89 234.817 229.337 235.733 227.708L236.761 225.886C237.994 223.694 239.208 223.781 239.721 223.949C241.21 224.439 242.585 224.757 244.121 225.169C244.684 225.319 245.644 225.743 245.644 228.351V230.306C245.644 232.19 247.131 233.721 248.953 233.721H254.354C256.177 233.721 257.663 232.19 257.663 230.306V228.351C257.663 225.743 258.623 225.32 259.185 225.169C260.721 224.757 262.096 224.439 263.585 223.949C264.098 223.781 265.312 223.694 266.545 225.886L267.573 227.708C268.489 229.337 270.525 229.89 272.098 228.946L276.768 226.142C278.341 225.198 278.88 223.096 277.965 221.471L276.933 219.646C275.717 217.485 276.248 216.513 276.625 216.163C277.665 215.201 278.627 214.16 279.594 213.122C279.878 212.817 280.78 211.775 283.152 213.198L284.781 214.177C286.355 215.121 288.39 214.565 289.305 212.94L292.021 208.122C292.936 206.496 292.397 204.395 290.824 203.451L289.212 202.482C286.985 201.15 287.042 200.465 287.325 199.49C287.711 198.15 288.128 196.815 288.411 195.43C288.663 194.196 288.549 193.319 291.576 193.319H293.431C295.255 193.319 296.742 191.78 296.742 189.899V184.326C296.742 182.445 295.255 180.907 293.431 180.907H291.576C288.55 180.907 288.663 180.026 288.411 178.795C288.128 177.411 287.711 176.075 287.325 174.74C287.042 173.764 286.984 173.079 289.212 171.743L290.824 170.775C292.397 169.83 292.936 167.729 292.021 166.104L289.305 161.286C288.39 159.663 286.355 159.104 284.781 160.051L283.152 161.027C280.78 162.45 279.878 161.408 279.594 161.104C278.627 160.065 277.665 159.024 276.625 158.062C276.248 157.716 275.717 156.74 276.933 154.58L277.965 152.755C278.88 151.129 278.341 149.028 276.768 148.084L272.098 145.28C270.525 144.335 268.489 144.891 267.573 146.514L266.545 148.339C265.312 150.531 264.098 150.444 263.585 150.273C262.096 149.783 260.721 149.469 259.185 149.056C258.623 148.905 257.663 148.482 257.663 145.874V143.92C257.663 142.038 256.177 140.504 254.354 140.504H248.953C247.131 140.504 245.644 142.039 245.644 143.92V145.874C245.644 148.482 244.684 148.906 244.121 149.056C242.585 149.468 241.21 149.783 239.721 150.273C239.208 150.444 237.994 150.531 236.761 148.339L235.733 146.514C234.817 144.892 232.781 144.336 231.208 145.28ZM251.654 179.753C255.592 179.753 258.784 183.047 258.784 187.113C258.784 191.18 255.592 194.473 251.654 194.473C247.714 194.473 244.522 191.18 244.522 187.113C244.523 183.047 247.715 179.753 251.654 179.753ZM229.302 187.113C229.302 186.243 229.985 185.54 230.828 185.54C231.67 185.54 232.352 186.243 232.352 187.113C232.352 192.613 234.514 197.595 238.006 201.2C241.498 204.808 246.323 207.035 251.654 207.035C252.496 207.035 253.179 207.741 253.179 208.612C253.179 209.479 252.496 210.185 251.654 210.185C245.483 210.185 239.894 207.601 235.848 203.427C231.804 199.252 229.302 193.484 229.302 187.113ZM273.711 183.397C273.843 184.253 273.276 185.057 272.448 185.194C271.617 185.33 270.839 184.746 270.707 183.89C270.051 179.715 268.136 175.977 265.375 173.097C262.611 170.216 259.004 168.202 254.965 167.481C254.137 167.334 253.579 166.523 253.72 165.667C253.861 164.81 254.648 164.237 255.478 164.38C260.154 165.216 264.333 167.548 267.533 170.883C270.729 174.216 272.949 178.554 273.711 183.397ZM251.654 159.775C266.279 159.775 278.138 172.012 278.138 187.113C278.138 202.21 266.279 214.451 251.654 214.451C237.027 214.451 225.168 202.21 225.168 187.113C225.168 172.013 237.027 159.775 251.654 159.775Z" fill="#EAEFF8"/>
<path fill-rule="evenodd" clip-rule="evenodd" d="M82.0399 263.155L79.005 264.977C77.9805 265.592 77.6314 266.959 78.2262 268.015L78.897 269.204C79.6861 270.606 79.3423 271.242 79.0967 271.469C78.4209 272.095 77.7945 272.77 77.166 273.445C76.9811 273.644 76.3954 274.323 74.8508 273.396L73.7922 272.76C72.7694 272.148 71.445 272.508 70.8506 273.564L69.0843 276.7C68.4882 277.756 68.8386 279.123 69.8631 279.739L70.9114 280.364C72.3594 281.235 72.322 281.679 72.1376 282.312C71.887 283.183 71.6159 284.053 71.4315 284.955C71.2672 285.756 71.3415 286.326 69.3739 286.326H68.1662C66.9806 286.326 66.0137 287.326 66.0137 288.549V292.175C66.0137 293.399 66.9806 294.395 68.1662 294.395H69.3739C71.3415 294.395 71.2672 294.969 71.4315 295.773C71.6159 296.672 71.887 297.542 72.1376 298.409C72.322 299.045 72.3594 299.49 70.9114 300.36L69.8631 300.986C68.8386 301.601 68.4878 302.968 69.0843 304.024L70.8506 307.16C71.445 308.216 72.7694 308.576 73.7922 307.965L74.8508 307.328C76.3954 306.402 76.9815 307.08 77.166 307.279C77.7941 307.954 78.4209 308.632 79.0967 309.255C79.3423 309.482 79.6861 310.115 78.897 311.52L78.2262 312.709C77.6318 313.765 77.9805 315.132 79.005 315.748L82.0399 317.57C83.0644 318.185 84.3887 317.821 84.9831 316.766L85.6523 315.581C86.4533 314.157 87.2441 314.213 87.5781 314.322C88.5467 314.64 89.4393 314.847 90.44 315.115C90.8043 315.213 91.4291 315.486 91.4291 317.185V318.454C91.4291 319.678 92.3961 320.674 93.5816 320.674H97.0942C98.2797 320.674 99.2467 319.678 99.2467 318.454V317.185C99.2467 315.486 99.8719 315.213 100.236 315.115C101.235 314.846 102.129 314.64 103.098 314.322C103.432 314.213 104.221 314.157 105.024 315.581L105.693 316.766C106.288 317.821 107.613 318.185 108.636 317.57L111.673 315.748C112.696 315.133 113.044 313.766 112.45 312.709L111.78 311.52C110.991 310.115 111.334 309.482 111.58 309.255C112.255 308.632 112.881 307.954 113.51 307.279C113.695 307.08 114.281 306.402 115.825 307.328L116.884 307.965C117.907 308.576 119.231 308.216 119.826 307.16L121.592 304.024C122.186 302.968 121.838 301.601 120.813 300.986L119.765 300.36C118.317 299.489 118.354 299.045 118.539 298.409C118.789 297.542 119.06 296.672 119.245 295.773C119.407 294.969 119.335 294.395 121.302 294.395H122.51C123.695 294.395 124.661 293.399 124.661 292.175V288.549C124.661 287.326 123.695 286.326 122.51 286.326H121.302C119.334 286.326 119.407 285.756 119.245 284.955C119.06 284.053 118.789 283.183 118.539 282.312C118.354 281.679 118.317 281.235 119.765 280.364L120.813 279.739C121.838 279.123 122.187 277.756 121.592 276.7L119.826 273.564C119.231 272.508 117.907 272.148 116.884 272.76L115.825 273.396C114.281 274.323 113.695 273.644 113.51 273.445C112.88 272.77 112.255 272.095 111.58 271.469C111.334 271.242 110.991 270.606 111.78 269.204L112.45 268.015C113.044 266.959 112.696 265.592 111.673 264.977L108.636 263.155C107.613 262.54 106.287 262.9 105.693 263.959L105.024 265.144C104.221 266.571 103.432 266.515 103.098 266.403C102.13 266.085 101.235 265.878 100.236 265.613C99.8719 265.512 99.2467 265.239 99.2467 263.543V262.27C99.2467 261.047 98.2797 260.047 97.0942 260.047H93.5816C92.3961 260.047 91.4291 261.047 91.4291 262.27V263.543C91.4291 265.239 90.8043 265.512 90.44 265.613C89.4389 265.878 88.5467 266.085 87.5781 266.403C87.2441 266.515 86.4533 266.571 85.6523 265.144L84.9831 263.959C84.3887 262.9 83.0644 262.54 82.0399 263.155ZM95.3377 285.574C97.8981 285.574 99.9746 287.717 99.9746 290.36C99.9746 293.007 97.8981 295.15 95.3377 295.15C92.7769 295.15 90.7008 293.006 90.7008 290.36C90.7008 287.717 92.7769 285.574 95.3377 285.574ZM80.8018 290.36C80.8018 289.797 81.2454 289.339 81.7938 289.339C82.341 289.339 82.7846 289.797 82.7846 290.36C82.7846 293.94 84.1903 297.178 86.4615 299.524C88.7323 301.87 91.8707 303.317 95.3373 303.317C95.8845 303.317 96.3298 303.779 96.3298 304.342C96.3298 304.908 95.8845 305.366 95.3373 305.366C91.3236 305.366 87.689 303.688 85.0591 300.972C82.4293 298.254 80.8018 294.506 80.8018 290.36ZM109.684 287.944C109.768 288.5 109.4 289.024 108.861 289.115C108.323 289.202 107.816 288.822 107.73 288.266C107.303 285.549 106.058 283.116 104.263 281.245C102.465 279.374 100.119 278.06 97.4923 277.595C96.9537 277.501 96.5914 276.969 96.6826 276.413C96.7742 275.857 97.2873 275.483 97.8258 275.578C100.868 276.12 103.585 277.637 105.665 279.808C107.743 281.976 109.188 284.794 109.684 287.944ZM95.3377 272.581C104.85 272.581 112.561 280.542 112.561 290.36C112.561 300.181 104.851 308.142 95.3377 308.142C85.8248 308.142 78.1141 300.181 78.1141 290.36C78.1145 280.542 85.8248 272.581 95.3377 272.581Z" fill="#EAEFF8"/>
</svg>
