<svg width="48" height="48" viewBox="0 0 48 48" fill="none" xmlns="http://www.w3.org/2000/svg">
<rect width="48" height="48" rx="8" fill="#E8EDF2"/>
<g clip-path="url(#clip0_3001_8999)">
<path fill-rule="evenodd" clip-rule="evenodd" d="M28.2806 21.2194C28.4215 21.3601 28.5006 21.5509 28.5006 21.75C28.5006 21.9491 28.4215 22.1399 28.2806 22.2806L23.0306 27.5306C22.8899 27.6715 22.6991 27.7506 22.5 27.7506C22.3009 27.7506 22.1101 27.6715 21.9694 27.5306L19.7194 25.2806C19.4263 24.9876 19.4263 24.5124 19.7194 24.2194C20.0124 23.9263 20.4876 23.9263 20.7806 24.2194L22.5 25.9397L27.2194 21.2194C27.3601 21.0785 27.5509 20.9994 27.75 20.9994C27.9491 20.9994 28.1399 21.0785 28.2806 21.2194ZM33.75 24C33.75 29.3848 29.3848 33.75 24 33.75C18.6152 33.75 14.25 29.3848 14.25 24C14.25 18.6152 18.6152 14.25 24 14.25C29.3824 14.2557 33.7443 18.6176 33.75 24ZM32.25 24C32.25 19.4437 28.5563 15.75 24 15.75C19.4437 15.75 15.75 19.4437 15.75 24C15.75 28.5563 19.4437 32.25 24 32.25C28.5542 32.2448 32.2448 28.5542 32.25 24Z" fill="#0D141C"/>
</g>
<defs>
<clipPath id="clip0_3001_8999">
<rect width="24" height="24" fill="white" transform="translate(12 12)"/>
</clipPath>
</defs>
</svg>
