<svg width="36" height="36" viewBox="0 0 36 36" fill="none" xmlns="http://www.w3.org/2000/svg">
<g id="Upload">
<path id="Vector" d="M13.4994 10.2058H16.4686V23.7982C16.4686 23.975 16.6133 24.1196 16.7901 24.1196H19.2008C19.3776 24.1196 19.5222 23.975 19.5222 23.7982V10.2058H22.4994C22.7686 10.2058 22.9173 9.8964 22.7526 9.68747L18.2526 3.99015C18.2225 3.95173 18.1841 3.92066 18.1402 3.89929C18.0964 3.87793 18.0482 3.86682 17.9994 3.86682C17.9507 3.86682 17.9025 3.87793 17.8587 3.89929C17.8148 3.92066 17.7764 3.95173 17.7463 3.99015L13.2463 9.68345C13.0816 9.8964 13.2302 10.2058 13.4994 10.2058ZM32.7048 22.5928H30.2941C30.1173 22.5928 29.9727 22.7375 29.9727 22.9143V29.1018H6.02623V22.9143C6.02623 22.7375 5.88159 22.5928 5.7048 22.5928H3.29408C3.1173 22.5928 2.97266 22.7375 2.97266 22.9143V30.8696C2.97266 31.5808 3.54721 32.1553 4.25837 32.1553H31.7405C32.4517 32.1553 33.0262 31.5808 33.0262 30.8696V22.9143C33.0262 22.7375 32.8816 22.5928 32.7048 22.5928Z" fill="#52C41A"/>
</g>
</svg>
