<svg width="48" height="48" viewBox="0 0 48 48" fill="none" xmlns="http://www.w3.org/2000/svg">
<rect width="48" height="48" rx="8" fill="#E8EDF2"/>
<g clip-path="url(#clip0_2011_4339)">
<path fill-rule="evenodd" clip-rule="evenodd" d="M28.5 27C28.4999 29.0702 27.2832 30.9471 25.3934 31.7923C23.5035 32.6375 21.2935 32.2931 19.7503 30.9131C19.5403 30.7374 19.4427 30.4612 19.4958 30.1925C19.5489 29.9239 19.7442 29.7055 20.0052 29.6229C20.2663 29.5402 20.5517 29.6064 20.7497 29.7956C21.9956 30.9095 23.8282 31.0645 25.2435 30.1757C26.6588 29.2868 27.315 27.5687 26.8528 25.9627C26.3905 24.3567 24.9212 23.2504 23.25 23.25C22.9659 23.25 22.7062 23.0895 22.5792 22.8354C22.4521 22.5813 22.4796 22.2773 22.65 22.05L26.25 17.25H20.25C19.8358 17.25 19.5 16.9142 19.5 16.5C19.5 16.0858 19.8358 15.75 20.25 15.75H27.75C28.0341 15.75 28.2938 15.9105 28.4208 16.1646C28.5479 16.4187 28.5204 16.7227 28.35 16.95L24.615 21.93C26.9054 22.5501 28.497 24.6271 28.5 27Z" fill="#0D141C"/>
</g>
<defs>
<clipPath id="clip0_2011_4339">
<rect width="24" height="24" fill="white" transform="translate(12 12)"/>
</clipPath>
</defs>
</svg>
