<svg width="48" height="48" viewBox="0 0 48 48" fill="none" xmlns="http://www.w3.org/2000/svg">
<rect width="48" height="48" rx="8" fill="#E8EDF2"/>
<g clip-path="url(#clip0_3001_9000)">
<path fill-rule="evenodd" clip-rule="evenodd" d="M33.5306 32.4694L28.8366 27.7762C31.6629 24.383 31.3204 19.3669 28.0591 16.3893C24.7978 13.4118 19.7713 13.526 16.6487 16.6487C13.526 19.7713 13.4118 24.7978 16.3893 28.0591C19.3669 31.3204 24.383 31.6629 27.7762 28.8366L32.4694 33.5306C32.7624 33.8237 33.2376 33.8237 33.5306 33.5306C33.8237 33.2376 33.8237 32.7624 33.5306 32.4694ZM15.75 22.5C15.75 18.7721 18.7721 15.75 22.5 15.75C26.2279 15.75 29.25 18.7721 29.25 22.5C29.25 26.2279 26.2279 29.25 22.5 29.25C18.7738 29.2459 15.7541 26.2262 15.75 22.5Z" fill="#0D141C"/>
</g>
<defs>
<clipPath id="clip0_3001_9000">
<rect width="24" height="24" fill="white" transform="translate(12 12)"/>
</clipPath>
</defs>
</svg>
